<svg id="svg" version="1.1" xmlns="http://www.w3.org/2000/svg" xmlns:xlink="http://www.w3.org/1999/xlink" width="400" height="400" viewBox="0, 0, 400,400"><g id="svgg"><path id="path0" d="M30.386 2.768 C 28.407 3.157,28.126 3.402,27.827 4.996 C 27.580 6.315,27.470 6.400,26.010 6.400 C 24.023 6.400,23.200 7.228,23.200 9.229 L 23.200 10.800 21.200 10.800 L 19.200 10.800 19.200 12.779 L 19.200 14.758 17.100 14.879 L 15.000 15.000 14.879 17.100 L 14.758 19.200 12.779 19.200 L 10.800 19.200 10.800 21.148 L 10.800 23.096 8.951 23.304 C 6.831 23.543,6.415 24.002,6.406 26.110 C 6.401 27.473,6.281 27.644,5.173 27.865 C 4.485 28.003,3.650 28.562,3.273 29.138 C 2.153 30.847,2.242 370.720,3.362 371.958 C 3.797 372.438,4.613 372.800,5.262 372.800 C 6.315 372.800,6.400 372.914,6.400 374.338 C 6.400 376.263,7.360 377.200,9.331 377.200 L 10.800 377.200 10.800 379.200 L 10.800 381.200 12.779 381.200 L 14.758 381.200 14.879 383.300 L 15.000 385.400 17.100 385.521 L 19.200 385.642 19.200 387.621 L 19.200 389.600 21.200 389.600 L 23.200 389.600 23.200 390.967 C 23.200 393.550,23.285 393.600,27.643 393.600 L 31.600 393.600 31.600 395.336 C 31.600 396.808,31.755 397.142,32.619 397.536 C 34.411 398.352,367.354 398.189,368.171 397.371 C 368.528 397.015,368.800 396.068,368.800 395.185 L 368.800 393.628 372.900 393.514 L 377.000 393.400 377.120 391.553 L 377.239 389.706 379.868 389.495 C 382.794 389.260,384.513 388.307,384.736 386.795 C 384.897 385.706,385.405 385.165,386.883 384.512 C 388.272 383.897,389.600 381.167,389.600 378.925 C 389.600 377.228,389.622 377.200,390.967 377.200 C 393.550 377.200,393.600 377.115,393.600 372.757 L 393.600 368.800 395.171 368.800 C 396.067 368.800,397.013 368.530,397.371 368.171 C 398.189 367.354,398.352 34.411,397.536 32.619 C 397.142 31.755,396.808 31.600,395.336 31.600 L 393.600 31.600 393.600 27.643 C 393.600 23.285,393.550 23.200,390.967 23.200 L 389.600 23.200 389.600 21.200 L 389.600 19.200 387.621 19.200 L 385.642 19.200 385.521 17.100 L 385.400 15.000 383.300 14.879 L 381.200 14.758 381.200 12.779 L 381.200 10.800 379.200 10.800 L 377.200 10.800 377.200 9.080 C 377.200 6.919,376.681 6.400,374.520 6.400 C 372.902 6.400,372.800 6.334,372.800 5.276 C 372.800 4.659,372.545 3.804,372.232 3.376 C 371.650 2.580,34.389 1.979,30.386 2.768 M363.186 7.626 C 366.016 8.085,366.800 8.519,366.800 9.625 C 366.800 10.662,367.154 10.791,371.293 11.253 C 375.576 11.731,375.255 11.562,375.568 13.496 C 375.797 14.907,375.933 15.030,377.771 15.485 C 380.144 16.072,380.308 16.225,380.471 17.995 C 380.590 19.278,380.726 19.411,382.167 19.643 C 383.923 19.926,384.800 20.843,384.800 22.396 C 384.800 23.664,385.468 24.400,386.618 24.400 C 388.186 24.400,388.963 25.799,389.133 28.929 C 389.304 32.072,389.650 32.800,390.973 32.800 C 391.454 32.800,392.153 33.025,392.528 33.300 C 393.214 33.805,393.640 365.189,392.956 366.971 C 392.795 367.390,392.208 367.600,391.200 367.600 C 389.417 367.600,389.216 367.947,389.160 371.133 C 389.103 374.396,388.749 375.378,387.584 375.517 C 385.647 375.746,384.800 376.452,384.800 377.835 C 384.800 379.906,384.457 380.342,382.610 380.619 C 380.982 380.863,380.877 380.961,380.642 382.426 C 380.374 384.102,379.538 384.800,377.798 384.800 C 376.455 384.800,375.600 385.652,375.600 386.992 C 375.600 388.286,373.716 389.200,371.046 389.200 C 368.638 389.200,368.000 389.508,368.000 390.669 C 368.000 391.210,367.814 392.001,367.586 392.426 C 366.933 393.646,33.467 393.646,32.814 392.426 C 32.586 392.001,32.400 391.194,32.400 390.634 C 32.400 389.496,32.090 389.378,28.200 389.044 C 25.705 388.830,24.400 387.934,24.400 386.436 C 24.400 385.458,23.595 384.800,22.396 384.800 C 20.878 384.800,20.061 384.014,19.693 382.200 C 19.390 380.709,19.260 380.586,17.792 380.400 C 16.462 380.231,16.159 380.013,15.854 379.000 C 14.922 375.907,14.723 375.600,13.651 375.594 C 11.824 375.583,11.568 375.122,11.197 371.168 C 11.003 369.104,10.700 367.364,10.522 367.301 C 8.683 366.653,8.189 366.070,7.716 363.992 C 7.321 362.257,7.236 327.916,7.309 199.200 C 7.408 22.932,7.248 34.574,9.582 33.607 C 10.791 33.107,11.167 32.073,11.240 29.050 C 11.310 26.159,11.680 25.459,13.393 24.979 C 14.968 24.537,15.167 24.245,15.772 21.504 C 15.968 20.611,16.339 20.326,17.769 19.966 C 19.392 19.557,19.557 19.394,19.961 17.789 C 20.401 16.040,20.576 15.905,23.017 15.416 C 24.006 15.218,24.343 14.857,24.817 13.486 C 25.454 11.645,25.201 11.742,31.331 10.981 C 33.011 10.773,33.315 10.590,33.668 9.576 C 34.070 8.422,35.169 7.886,38.000 7.460 C 40.597 7.068,360.760 7.232,363.186 7.626 M108.696 27.901 C 107.868 28.725,106.608 29.949,105.896 30.621 C 105.183 31.293,104.309 32.193,103.953 32.621 C 103.597 33.049,102.656 33.940,101.862 34.600 C 101.067 35.260,100.413 35.948,100.409 36.129 C 100.398 36.550,99.676 37.234,98.345 38.085 C 97.765 38.456,96.897 39.396,96.415 40.175 C 95.934 40.954,94.938 41.877,94.201 42.226 C 93.430 42.592,92.592 43.430,92.226 44.201 C 91.877 44.938,90.954 45.934,90.175 46.415 C 89.396 46.897,88.456 47.765,88.085 48.345 C 87.234 49.676,86.550 50.398,86.129 50.409 C 85.948 50.413,85.260 51.067,84.600 51.862 C 83.940 52.656,83.056 53.597,82.636 53.953 C 80.579 55.697,79.600 56.729,79.600 57.157 C 79.600 57.415,78.965 58.001,78.190 58.459 C 77.414 58.917,76.604 59.619,76.390 60.019 C 75.773 61.172,75.862 373.302,76.480 373.920 C 77.261 374.701,323.047 374.610,323.829 373.829 C 324.320 373.338,324.400 363.232,324.400 302.071 L 324.400 230.884 323.369 229.942 C 322.802 229.424,322.127 228.766,321.869 228.479 C 321.459 228.024,320.515 227.076,317.708 224.300 C 316.994 223.593,314.057 220.667,313.498 220.104 C 310.783 217.373,305.509 212.078,305.116 211.690 C 304.832 211.410,295.420 202.002,284.200 190.785 C 272.980 179.568,263.664 170.258,263.498 170.095 C 263.332 169.933,261.494 168.090,259.414 166.000 C 257.334 163.910,255.443 162.020,255.212 161.800 C 254.980 161.580,254.092 160.680,253.239 159.800 C 252.385 158.920,251.442 157.971,251.143 157.691 C 250.844 157.411,242.320 148.904,232.200 138.786 C 222.080 128.668,213.643 120.235,213.451 120.044 C 211.500 118.112,208.010 114.384,207.364 113.543 C 206.662 112.629,202.904 110.000,202.299 110.000 C 202.182 110.000,201.793 110.735,201.433 111.634 C 200.930 112.891,200.415 113.422,199.202 113.934 C 198.062 114.416,197.558 114.903,197.382 115.695 C 197.111 116.916,195.469 118.400,194.389 118.400 C 193.973 118.400,193.584 118.809,193.434 119.405 C 193.117 120.668,190.924 122.800,189.941 122.800 C 189.473 122.800,189.200 123.087,189.200 123.579 C 189.200 124.542,187.668 126.251,186.625 126.452 C 186.200 126.534,185.380 127.411,184.803 128.400 C 184.069 129.658,183.351 130.332,182.416 130.640 C 181.421 130.967,180.967 131.425,180.640 132.433 C 180.327 133.396,179.703 134.061,178.473 134.738 C 177.523 135.261,176.589 136.102,176.398 136.606 C 175.951 137.781,174.432 139.200,173.622 139.200 C 173.277 139.200,172.737 139.785,172.422 140.500 C 171.706 142.125,171.325 142.506,169.700 143.222 C 168.985 143.537,168.400 144.028,168.400 144.312 C 168.400 145.313,167.120 146.765,165.867 147.183 C 164.942 147.491,164.417 148.042,163.921 149.224 C 163.401 150.461,162.862 151.001,161.625 151.521 C 160.721 151.900,160.006 152.476,160.004 152.825 C 159.999 153.634,158.686 155.032,157.217 155.791 C 156.579 156.121,155.928 156.798,155.771 157.296 C 155.414 158.428,153.629 159.999,152.700 160.000 C 152.315 160.000,152.000 160.272,152.000 160.605 C 152.000 161.417,151.167 162.862,150.274 163.600 C 149.874 163.930,148.721 164.965,147.710 165.900 C 145.261 168.166,143.233 168.367,141.702 166.497 L 140.804 165.400 140.802 112.736 L 140.800 60.071 139.569 59.036 C 138.892 58.466,138.185 58.000,137.996 58.000 C 137.808 58.000,137.536 57.628,137.392 57.174 C 137.247 56.719,136.200 55.398,135.065 54.237 C 133.053 52.180,129.868 48.628,127.146 45.406 C 126.406 44.529,125.396 43.397,124.902 42.889 C 124.408 42.382,123.728 41.435,123.392 40.784 C 123.055 40.133,122.602 39.600,122.386 39.600 C 121.690 39.600,119.729 37.432,119.473 36.380 C 119.316 35.736,118.704 35.111,117.812 34.686 C 116.821 34.214,116.208 33.536,115.762 32.421 C 115.403 31.523,114.764 30.716,114.296 30.567 C 113.246 30.234,111.600 28.605,111.600 27.898 C 111.600 27.363,110.840 26.399,110.420 26.401 C 110.299 26.401,109.523 27.076,108.696 27.901 M205.044 183.995 L 214.688 184.000 216.065 185.300 C 218.413 187.517,218.538 188.601,218.315 204.794 C 218.181 214.571,218.252 219.292,218.539 219.579 C 218.821 219.861,225.159 220.006,237.780 220.018 C 263.816 220.042,262.383 219.137,262.394 235.572 C 262.405 251.983,263.659 251.200,237.340 251.200 C 222.467 251.200,218.395 251.307,218.377 251.700 C 218.364 251.975,218.371 274.880,218.392 302.600 C 218.433 356.455,218.424 356.728,216.500 358.298 C 214.820 359.669,193.137 359.644,190.600 358.268 C 187.347 356.504,187.585 361.012,187.699 303.300 C 187.776 264.423,187.687 252.000,187.333 252.000 C 187.077 252.000,186.804 251.813,186.728 251.584 C 186.635 251.305,180.798 251.162,168.995 251.149 C 142.946 251.121,145.200 252.582,145.200 235.721 C 145.200 218.490,142.804 220.227,166.742 220.104 C 179.474 220.039,185.781 219.865,186.600 219.555 L 187.800 219.100 187.691 203.950 C 187.568 186.962,187.451 187.717,190.530 185.659 C 193.301 183.807,193.782 183.586,194.600 183.790 C 195.040 183.899,199.740 183.992,205.044 183.995 " stroke="none" fill="#050505" fill-rule="evenodd"></path><path id="path1" d="M40.800 12.804 C 40.030 12.981,37.870 13.333,36.000 13.587 C 31.119 14.248,31.063 14.267,30.372 15.489 C 30.027 16.100,29.262 16.825,28.672 17.100 C 28.083 17.375,27.112 17.825,26.515 18.100 C 25.065 18.767,18.700 25.111,18.086 26.500 C 17.819 27.105,17.403 28.025,17.162 28.544 C 16.922 29.063,16.139 29.767,15.423 30.108 C 14.185 30.699,14.111 30.862,13.889 33.464 C 13.761 34.969,13.373 37.562,13.027 39.226 C 12.021 44.067,12.276 357.974,13.291 363.600 C 13.667 365.690,14.026 367.922,14.088 368.560 C 14.151 369.217,14.544 369.910,14.994 370.160 C 16.296 370.881,17.468 372.388,18.013 374.040 C 18.295 374.894,19.024 376.057,19.634 376.625 C 20.759 377.673,22.454 379.363,23.065 380.046 C 24.054 381.153,25.863 382.359,27.189 382.796 C 28.014 383.069,28.939 383.661,29.245 384.112 C 30.524 386.002,31.131 386.329,33.864 386.603 C 35.369 386.754,38.130 387.355,40.000 387.939 L 43.400 389.000 199.800 389.115 C 318.487 389.203,356.586 389.117,357.800 388.762 C 358.680 388.504,360.402 387.957,361.627 387.546 C 362.851 387.136,364.561 386.799,365.427 386.798 C 367.944 386.794,369.808 386.094,370.821 384.773 C 371.622 383.727,375.335 381.600,376.359 381.600 C 376.543 381.600,377.163 380.891,377.737 380.023 C 378.311 379.156,379.415 378.146,380.190 377.778 C 380.966 377.410,381.600 376.857,381.600 376.549 C 381.600 376.241,381.759 375.677,381.953 375.295 C 382.148 374.913,382.551 374.060,382.851 373.400 C 383.377 372.238,384.462 371.032,385.510 370.444 C 385.790 370.286,386.206 368.997,386.435 367.579 C 387.147 363.161,387.715 360.800,388.064 360.800 C 388.249 360.800,388.400 360.296,388.400 359.680 C 388.400 359.064,388.583 358.377,388.807 358.153 C 389.082 357.878,389.211 306.660,389.204 200.661 L 389.193 43.576 388.022 39.888 C 387.379 37.860,386.736 34.983,386.594 33.496 C 386.355 31.001,386.226 30.708,384.924 29.715 C 384.122 29.103,383.063 27.682,382.468 26.420 C 381.893 25.199,380.991 23.840,380.463 23.400 C 379.934 22.960,378.579 21.727,377.451 20.660 C 376.323 19.592,374.306 18.184,372.968 17.529 C 371.542 16.831,370.265 15.879,369.879 15.225 C 369.303 14.251,368.906 14.080,366.710 13.863 C 365.330 13.727,362.670 13.346,360.800 13.016 C 357.018 12.349,43.683 12.142,40.800 12.804 M113.062 24.620 C 113.798 25.182,114.400 25.958,114.400 26.346 C 114.400 26.783,114.944 27.264,115.836 27.614 C 117.214 28.155,118.400 29.700,118.400 30.954 C 118.400 31.281,119.016 31.771,119.770 32.043 C 120.548 32.325,121.345 32.984,121.616 33.569 C 121.878 34.136,122.219 34.870,122.373 35.200 C 122.527 35.530,123.210 36.070,123.890 36.400 C 124.644 36.765,125.454 37.667,125.962 38.705 C 126.506 39.819,127.268 40.636,128.160 41.061 C 129.429 41.667,130.012 42.403,130.540 44.070 C 130.656 44.438,131.348 45.024,132.076 45.372 C 132.810 45.723,133.800 46.706,134.298 47.579 C 134.792 48.444,135.738 49.472,136.399 49.863 C 137.060 50.254,137.706 50.903,137.834 51.307 C 138.079 52.080,139.842 54.028,140.848 54.639 C 141.705 55.159,143.600 59.003,143.600 60.219 C 143.600 60.787,143.788 61.605,144.019 62.035 C 144.559 63.044,144.583 156.696,144.043 157.352 C 143.653 157.827,143.493 159.476,143.559 162.344 C 143.600 164.068,143.608 164.078,144.300 163.229 C 144.685 162.757,145.720 162.129,146.600 161.835 C 147.851 161.417,148.363 160.950,148.950 159.691 C 149.644 158.202,150.354 157.603,152.062 157.063 C 152.427 156.948,152.842 156.321,152.985 155.669 C 153.290 154.278,154.136 153.453,155.800 152.921 C 156.548 152.682,157.046 152.223,157.123 151.702 C 157.293 150.556,158.993 148.800,159.932 148.800 C 160.427 148.800,160.891 148.335,161.229 147.500 C 161.844 145.983,162.981 144.870,164.239 144.554 C 164.729 144.431,165.231 143.929,165.354 143.439 C 165.665 142.202,166.787 141.060,168.150 140.593 C 168.958 140.317,169.434 139.783,169.750 138.800 C 170.088 137.749,170.616 137.201,171.870 136.600 C 172.795 136.156,173.637 135.432,173.759 134.974 C 174.079 133.769,175.217 132.630,176.700 132.029 C 177.468 131.718,178.000 131.218,178.000 130.806 C 178.000 129.904,179.904 128.000,180.806 128.000 C 181.218 128.000,181.718 127.468,182.029 126.700 C 182.630 125.217,183.769 124.079,184.974 123.759 C 185.432 123.637,186.156 122.795,186.600 121.870 C 187.201 120.616,187.749 120.088,188.800 119.750 C 189.783 119.434,190.317 118.958,190.593 118.150 C 191.060 116.787,192.202 115.665,193.439 115.354 C 193.929 115.231,194.431 114.729,194.554 114.239 C 194.867 112.992,195.980 111.845,197.456 111.248 C 198.338 110.891,198.781 110.396,198.943 109.587 C 199.601 106.296,208.490 106.484,209.141 109.803 C 209.306 110.646,210.175 111.575,211.675 112.513 C 212.266 112.883,212.988 113.684,213.279 114.293 C 213.571 114.902,214.467 115.753,215.271 116.185 C 216.075 116.617,217.007 117.544,217.341 118.245 C 217.675 118.946,218.635 119.909,219.474 120.385 C 220.314 120.861,221.283 121.824,221.629 122.525 C 221.975 123.226,222.921 124.160,223.731 124.600 C 224.542 125.040,225.316 125.745,225.451 126.166 C 225.761 127.137,227.080 128.435,228.500 129.168 C 229.105 129.480,229.600 129.941,229.600 130.192 C 229.600 130.825,231.980 133.200,232.614 133.200 C 232.899 133.200,233.355 133.701,233.626 134.314 C 233.897 134.927,234.736 135.872,235.489 136.414 C 237.238 137.673,237.494 137.940,238.372 139.425 C 238.771 140.099,239.668 140.927,240.367 141.265 C 241.065 141.603,241.960 142.492,242.355 143.240 C 242.751 143.988,243.723 144.956,244.515 145.391 C 245.307 145.826,246.286 146.811,246.690 147.578 C 247.095 148.346,248.056 149.306,248.826 149.712 C 249.596 150.118,250.465 150.988,250.757 151.647 C 251.048 152.306,251.994 153.291,252.859 153.837 C 253.724 154.383,254.583 155.228,254.770 155.715 C 255.178 156.783,256.301 157.815,257.428 158.157 C 257.883 158.295,258.552 159.030,258.915 159.791 C 259.278 160.552,260.288 161.624,261.159 162.174 C 262.031 162.725,262.984 163.676,263.277 164.287 C 263.570 164.899,264.452 165.745,265.237 166.167 C 266.023 166.589,267.011 167.577,267.433 168.363 C 267.855 169.148,268.701 170.030,269.313 170.323 C 269.924 170.616,270.875 171.569,271.426 172.441 C 271.976 173.312,273.048 174.322,273.809 174.685 C 274.570 175.048,275.305 175.717,275.443 176.172 C 275.798 177.339,276.757 178.340,278.179 179.028 C 278.851 179.353,279.681 180.188,280.024 180.885 C 280.367 181.582,281.212 182.433,281.902 182.776 C 282.591 183.119,283.391 183.847,283.678 184.393 C 284.288 185.553,285.908 187.080,286.880 187.410 C 287.253 187.537,287.675 188.006,287.817 188.452 C 288.130 189.441,290.328 191.600,291.020 191.600 C 291.296 191.600,291.868 192.275,292.292 193.100 C 292.722 193.939,293.693 194.945,294.494 195.383 C 295.282 195.814,296.248 196.714,296.641 197.383 C 297.502 198.850,297.896 199.241,299.200 199.922 C 299.750 200.209,300.481 201.009,300.824 201.698 C 301.167 202.388,302.018 203.233,302.715 203.576 C 303.412 203.919,304.247 204.749,304.572 205.421 C 305.254 206.832,306.259 207.801,307.400 208.150 C 307.840 208.285,308.560 209.058,309.000 209.869 C 309.440 210.679,310.374 211.625,311.075 211.971 C 311.776 212.317,312.739 213.286,313.215 214.126 C 313.691 214.965,314.654 215.925,315.355 216.259 C 316.056 216.593,316.983 217.525,317.415 218.329 C 317.847 219.133,318.701 220.030,319.313 220.323 C 319.924 220.616,320.875 221.569,321.426 222.441 C 321.976 223.312,323.013 224.305,323.730 224.647 C 324.682 225.101,325.336 225.908,326.153 227.640 C 326.769 228.944,327.593 230.182,327.984 230.391 C 328.375 230.600,328.811 231.356,328.954 232.069 C 329.132 232.961,329.362 362.025,329.207 373.917 C 329.197 374.635,325.662 378.348,324.332 379.035 C 323.398 379.518,305.368 379.600,199.920 379.600 L 76.600 379.599 75.593 378.700 C 75.039 378.205,73.912 376.900,73.088 375.800 L 71.590 373.800 71.591 218.886 C 71.591 133.683,71.704 63.483,71.842 62.886 C 72.484 60.097,75.034 55.664,76.954 54.000 C 77.589 53.450,79.209 51.847,80.554 50.437 C 81.899 49.028,83.432 47.498,83.960 47.037 C 84.487 46.577,85.477 45.579,86.160 44.819 C 86.842 44.060,87.797 43.070,88.282 42.619 C 89.592 41.403,91.685 39.338,92.653 38.308 C 93.122 37.809,95.774 35.192,98.546 32.494 C 101.318 29.796,103.850 27.076,104.174 26.450 C 104.500 25.821,105.351 25.092,106.081 24.819 C 106.807 24.547,107.760 24.174,108.200 23.990 C 109.782 23.326,111.690 23.574,113.062 24.620 M193.237 189.065 C 192.772 189.591,192.690 192.242,192.766 204.415 C 192.867 220.769,192.543 222.800,189.829 222.800 C 189.483 222.800,189.200 222.956,189.200 223.147 C 189.200 224.739,185.881 225.007,169.000 224.775 L 152.600 224.551 150.310 225.575 C 147.814 226.692,147.212 228.325,148.613 230.176 C 149.465 231.303,149.434 239.186,148.570 241.006 C 147.496 243.270,147.911 244.459,150.161 245.560 L 152.122 246.521 169.561 246.560 L 187.000 246.600 189.200 247.809 C 193.113 249.960,192.772 244.744,192.768 302.322 C 192.765 340.607,192.880 353.166,193.244 354.171 L 193.724 355.498 197.962 355.354 C 200.293 355.275,204.967 355.137,208.349 355.049 C 212.958 354.928,214.585 354.751,214.843 354.344 C 215.033 354.045,215.191 330.613,215.194 302.274 C 215.200 247.139,215.092 249.974,217.273 247.934 C 218.880 246.430,221.393 246.271,240.415 246.467 L 256.389 246.632 256.994 245.356 C 257.871 243.509,257.877 227.705,257.002 225.860 L 256.404 224.600 237.636 224.600 L 218.868 224.600 217.622 223.400 C 215.142 221.013,215.200 221.458,215.200 204.853 C 215.200 196.500,215.091 189.381,214.957 189.033 C 214.590 188.076,194.086 188.107,193.237 189.065 " stroke="none" fill="#fbfbfb" fill-rule="evenodd"></path><path id="path2" d="M41.800 9.764 C 40.700 10.013,39.260 10.504,38.600 10.856 C 37.940 11.207,36.410 11.716,35.200 11.986 C 30.185 13.107,29.524 13.344,28.947 14.225 C 28.622 14.721,27.330 15.627,26.078 16.238 C 24.825 16.848,22.882 18.259,21.760 19.374 C 20.638 20.488,19.276 21.760,18.734 22.200 C 17.875 22.896,16.000 26.249,16.000 27.087 C 16.000 27.249,15.295 28.027,14.432 28.815 C 13.289 29.861,12.800 30.675,12.625 31.824 C 12.143 34.993,11.475 37.423,10.817 38.400 C 10.447 38.950,9.932 40.359,9.672 41.531 C 9.025 44.452,8.989 356.603,9.636 359.000 C 9.874 359.880,10.499 361.500,11.026 362.600 C 11.553 363.700,12.152 365.797,12.356 367.259 C 12.784 370.318,13.195 371.242,14.509 372.103 C 15.026 372.442,15.978 373.909,16.625 375.363 C 17.271 376.817,18.110 378.105,18.489 378.226 C 18.868 378.348,20.038 379.404,21.089 380.574 C 22.140 381.744,23.725 383.067,24.612 383.514 C 25.498 383.961,27.094 385.046,28.158 385.925 C 29.222 386.804,30.657 387.618,31.346 387.733 C 33.971 388.172,35.053 388.488,36.700 389.294 C 37.635 389.751,38.400 390.269,38.400 390.444 C 38.400 391.544,45.686 391.596,200.681 391.598 C 365.299 391.600,361.560 391.635,362.522 390.105 C 362.959 389.409,365.035 388.580,367.857 387.972 C 370.648 387.372,371.796 386.823,373.400 385.323 C 374.060 384.705,375.140 383.941,375.800 383.624 C 376.460 383.307,377.900 382.119,379.000 380.983 C 380.100 379.848,381.311 378.809,381.690 378.676 C 382.070 378.542,382.755 377.636,383.213 376.662 C 383.671 375.688,384.637 374.196,385.361 373.346 C 387.019 371.397,387.600 370.301,387.600 369.121 C 387.600 367.414,389.327 363.327,390.440 362.400 C 391.578 361.452,391.600 358.399,391.600 200.313 L 391.600 40.173 390.206 38.009 C 388.895 35.974,387.600 32.498,387.600 31.012 C 387.600 30.053,386.888 28.862,385.454 27.423 C 384.764 26.730,383.766 25.229,383.235 24.088 C 382.703 22.946,381.955 21.913,381.571 21.791 C 381.188 21.669,380.094 20.721,379.141 19.685 C 378.187 18.648,376.416 17.287,375.204 16.660 C 373.992 16.032,372.550 15.025,372.000 14.421 C 371.333 13.689,370.267 13.158,368.800 12.827 C 364.292 11.810,363.362 11.544,361.800 10.825 C 360.920 10.421,359.241 9.890,358.069 9.645 C 355.002 9.004,44.636 9.121,41.800 9.764 M360.800 13.016 C 362.670 13.346,365.330 13.727,366.710 13.863 C 368.906 14.080,369.303 14.251,369.879 15.225 C 370.265 15.879,371.542 16.831,372.968 17.529 C 374.306 18.184,376.323 19.592,377.451 20.660 C 378.579 21.727,379.934 22.960,380.463 23.400 C 380.991 23.840,381.893 25.199,382.468 26.420 C 383.063 27.682,384.122 29.103,384.924 29.715 C 386.226 30.708,386.355 31.001,386.594 33.496 C 386.736 34.983,387.379 37.860,388.022 39.888 L 389.193 43.576 389.204 200.661 C 389.211 306.660,389.082 357.878,388.807 358.153 C 388.583 358.377,388.400 359.064,388.400 359.680 C 388.400 360.296,388.249 360.800,388.064 360.800 C 387.715 360.800,387.147 363.161,386.435 367.579 C 386.206 368.997,385.790 370.286,385.510 370.444 C 384.462 371.032,383.377 372.238,382.851 373.400 C 382.551 374.060,382.148 374.913,381.953 375.295 C 381.759 375.677,381.600 376.241,381.600 376.549 C 381.600 376.857,380.966 377.410,380.190 377.778 C 379.415 378.146,378.311 379.156,377.737 380.023 C 377.163 380.891,376.543 381.600,376.359 381.600 C 375.335 381.600,371.622 383.727,370.821 384.773 C 369.808 386.094,367.944 386.794,365.427 386.798 C 364.561 386.799,362.851 387.136,361.627 387.546 C 360.402 387.957,358.680 388.504,357.800 388.762 C 356.586 389.117,318.487 389.203,199.800 389.115 L 43.400 389.000 40.000 387.939 C 38.130 387.355,35.369 386.754,33.864 386.603 C 31.131 386.329,30.524 386.002,29.245 384.112 C 28.939 383.661,28.014 383.069,27.189 382.796 C 25.863 382.359,24.054 381.153,23.065 380.046 C 22.454 379.363,20.759 377.673,19.634 376.625 C 19.024 376.057,18.295 374.894,18.013 374.040 C 17.468 372.388,16.296 370.881,14.994 370.160 C 14.544 369.910,14.151 369.217,14.088 368.560 C 14.026 367.922,13.667 365.690,13.291 363.600 C 12.276 357.974,12.021 44.067,13.027 39.226 C 13.373 37.562,13.761 34.969,13.889 33.464 C 14.111 30.862,14.185 30.699,15.423 30.108 C 16.139 29.767,16.922 29.063,17.162 28.544 C 17.403 28.025,17.819 27.105,18.086 26.500 C 18.700 25.111,25.065 18.767,26.515 18.100 C 27.112 17.825,28.083 17.375,28.672 17.100 C 29.262 16.825,30.027 16.100,30.372 15.489 C 31.063 14.267,31.119 14.248,36.000 13.587 C 37.870 13.333,40.030 12.981,40.800 12.804 C 43.683 12.142,357.018 12.349,360.800 13.016 M108.200 23.990 C 107.760 24.174,106.807 24.547,106.081 24.819 C 105.351 25.092,104.500 25.821,104.174 26.450 C 103.850 27.076,101.318 29.796,98.546 32.494 C 95.774 35.192,93.122 37.809,92.653 38.308 C 91.685 39.338,89.592 41.403,88.282 42.619 C 87.797 43.070,86.842 44.060,86.160 44.819 C 85.477 45.579,84.487 46.577,83.960 47.037 C 83.432 47.498,81.899 49.028,80.554 50.437 C 79.209 51.847,77.589 53.450,76.954 54.000 C 75.034 55.664,72.484 60.097,71.842 62.886 C 71.704 63.483,71.591 133.683,71.591 218.886 L 71.590 373.800 73.088 375.800 C 73.912 376.900,75.039 378.205,75.593 378.700 L 76.600 379.599 199.920 379.600 C 305.368 379.600,323.398 379.518,324.332 379.035 C 325.662 378.348,329.197 374.635,329.207 373.917 C 329.362 362.025,329.132 232.961,328.954 232.069 C 328.811 231.356,328.375 230.600,327.984 230.391 C 327.593 230.182,326.769 228.944,326.153 227.640 C 325.336 225.908,324.682 225.101,323.730 224.647 C 323.013 224.305,321.976 223.312,321.426 222.441 C 320.875 221.569,319.924 220.616,319.313 220.323 C 318.701 220.030,317.847 219.133,317.415 218.329 C 316.983 217.525,316.056 216.593,315.355 216.259 C 314.654 215.925,313.691 214.965,313.215 214.126 C 312.739 213.286,311.776 212.317,311.075 211.971 C 310.374 211.625,309.440 210.679,309.000 209.869 C 308.560 209.058,307.840 208.285,307.400 208.150 C 306.259 207.801,305.254 206.832,304.572 205.421 C 304.247 204.749,303.412 203.919,302.715 203.576 C 302.018 203.233,301.167 202.388,300.824 201.698 C 300.481 201.009,299.750 200.209,299.200 199.922 C 297.896 199.241,297.502 198.850,296.641 197.383 C 296.248 196.714,295.282 195.814,294.494 195.383 C 293.693 194.945,292.722 193.939,292.292 193.100 C 291.868 192.275,291.296 191.600,291.020 191.600 C 290.328 191.600,288.130 189.441,287.817 188.452 C 287.675 188.006,287.253 187.537,286.880 187.410 C 285.908 187.080,284.288 185.553,283.678 184.393 C 283.391 183.847,282.591 183.119,281.902 182.776 C 281.212 182.433,280.367 181.582,280.024 180.885 C 279.681 180.188,278.851 179.353,278.179 179.028 C 276.757 178.340,275.798 177.339,275.443 176.172 C 275.305 175.717,274.570 175.048,273.809 174.685 C 273.048 174.322,271.976 173.312,271.426 172.441 C 270.875 171.569,269.924 170.616,269.313 170.323 C 268.701 170.030,267.855 169.148,267.433 168.363 C 267.011 167.577,266.023 166.589,265.237 166.167 C 264.452 165.745,263.570 164.899,263.277 164.287 C 262.984 163.676,262.031 162.725,261.159 162.174 C 260.288 161.624,259.278 160.552,258.915 159.791 C 258.552 159.030,257.883 158.295,257.428 158.157 C 256.301 157.815,255.178 156.783,254.770 155.715 C 254.583 155.228,253.724 154.383,252.859 153.837 C 251.994 153.291,251.048 152.306,250.757 151.647 C 250.465 150.988,249.596 150.118,248.826 149.712 C 248.056 149.306,247.095 148.346,246.690 147.578 C 246.286 146.811,245.307 145.826,244.515 145.391 C 243.723 144.956,242.751 143.988,242.355 143.240 C 241.960 142.492,241.065 141.603,240.367 141.265 C 239.668 140.927,238.771 140.099,238.372 139.425 C 237.494 137.940,237.238 137.673,235.489 136.414 C 234.736 135.872,233.897 134.927,233.626 134.314 C 233.355 133.701,232.899 133.200,232.614 133.200 C 231.980 133.200,229.600 130.825,229.600 130.192 C 229.600 129.941,229.105 129.480,228.500 129.168 C 227.080 128.435,225.761 127.137,225.451 126.166 C 225.316 125.745,224.542 125.040,223.731 124.600 C 222.921 124.160,221.975 123.226,221.629 122.525 C 221.283 121.824,220.314 120.861,219.474 120.385 C 218.635 119.909,217.675 118.946,217.341 118.245 C 217.007 117.544,216.075 116.617,215.271 116.185 C 214.467 115.753,213.571 114.902,213.279 114.293 C 212.988 113.684,212.266 112.883,211.675 112.513 C 210.175 111.575,209.306 110.646,209.141 109.803 C 208.490 106.484,199.601 106.296,198.943 109.587 C 198.781 110.396,198.338 110.891,197.456 111.248 C 195.980 111.845,194.867 112.992,194.554 114.239 C 194.431 114.729,193.929 115.231,193.439 115.354 C 192.202 115.665,191.060 116.787,190.593 118.150 C 190.317 118.958,189.783 119.434,188.800 119.750 C 187.749 120.088,187.201 120.616,186.600 121.870 C 186.156 122.795,185.432 123.637,184.974 123.759 C 183.769 124.079,182.630 125.217,182.029 126.700 C 181.718 127.468,181.218 128.000,180.806 128.000 C 179.904 128.000,178.000 129.904,178.000 130.806 C 178.000 131.218,177.468 131.718,176.700 132.029 C 175.217 132.630,174.079 133.769,173.759 134.974 C 173.637 135.432,172.795 136.156,171.870 136.600 C 170.616 137.201,170.088 137.749,169.750 138.800 C 169.434 139.783,168.958 140.317,168.150 140.593 C 166.787 141.060,165.665 142.202,165.354 143.439 C 165.231 143.929,164.729 144.431,164.239 144.554 C 162.981 144.870,161.844 145.983,161.229 147.500 C 160.891 148.335,160.427 148.800,159.932 148.800 C 158.993 148.800,157.293 150.556,157.123 151.702 C 157.046 152.223,156.548 152.682,155.800 152.921 C 154.136 153.453,153.290 154.278,152.985 155.669 C 152.842 156.321,152.427 156.948,152.062 157.063 C 150.354 157.603,149.644 158.202,148.950 159.691 C 148.363 160.950,147.851 161.417,146.600 161.835 C 145.720 162.129,144.685 162.757,144.300 163.229 C 143.608 164.078,143.600 164.068,143.559 162.344 C 143.493 159.476,143.653 157.827,144.043 157.352 C 144.583 156.696,144.559 63.044,144.019 62.035 C 143.788 61.605,143.600 60.787,143.600 60.219 C 143.600 59.003,141.705 55.159,140.848 54.639 C 139.842 54.028,138.079 52.080,137.834 51.307 C 137.706 50.903,137.060 50.254,136.399 49.863 C 135.738 49.472,134.792 48.444,134.298 47.579 C 133.800 46.706,132.810 45.723,132.076 45.372 C 131.348 45.024,130.656 44.438,130.540 44.070 C 130.012 42.403,129.429 41.667,128.160 41.061 C 127.268 40.636,126.506 39.819,125.962 38.705 C 125.454 37.667,124.644 36.765,123.890 36.400 C 123.210 36.070,122.527 35.530,122.373 35.200 C 122.219 34.870,121.878 34.136,121.616 33.569 C 121.345 32.984,120.548 32.325,119.770 32.043 C 119.016 31.771,118.400 31.281,118.400 30.954 C 118.400 29.700,117.214 28.155,115.836 27.614 C 114.944 27.264,114.400 26.783,114.400 26.346 C 114.400 24.512,110.493 23.028,108.200 23.990 M111.551 25.375 C 112.162 25.691,113.098 26.591,113.631 27.375 C 114.164 28.160,114.906 28.900,115.280 29.021 C 115.654 29.142,116.363 29.907,116.855 30.721 C 117.346 31.534,118.195 32.560,118.740 33.000 C 119.286 33.440,120.017 34.153,120.366 34.583 C 120.715 35.014,121.861 36.250,122.914 37.330 C 123.966 38.409,125.090 39.801,125.412 40.423 C 125.733 41.044,126.537 41.872,127.198 42.262 C 127.859 42.653,128.400 43.089,128.400 43.232 C 128.400 43.375,128.937 44.101,129.594 44.846 C 130.250 45.591,130.790 46.323,130.794 46.473 C 130.797 46.623,131.121 46.848,131.513 46.973 C 131.906 47.097,132.521 47.694,132.881 48.299 C 133.240 48.905,134.466 50.390,135.604 51.600 C 136.742 52.810,138.055 54.340,138.521 55.000 C 138.987 55.660,139.855 56.662,140.449 57.227 C 142.934 59.592,142.801 56.620,142.790 109.349 C 142.785 136.430,142.624 158.078,142.420 158.954 C 141.643 162.306,143.198 166.860,144.630 165.427 C 144.976 165.081,146.035 164.264,146.983 163.612 C 147.931 162.960,149.357 161.520,150.152 160.413 C 150.948 159.306,151.751 158.400,151.938 158.400 C 152.477 158.400,153.756 157.096,154.347 155.944 C 154.644 155.363,155.363 154.643,155.944 154.344 C 157.313 153.639,157.687 153.268,158.599 151.717 C 159.013 151.011,159.813 150.241,160.376 150.006 C 160.939 149.771,161.806 148.954,162.302 148.191 C 162.798 147.429,163.815 146.404,164.562 145.915 C 165.309 145.425,166.323 144.371,166.817 143.572 C 167.311 142.774,168.306 141.802,169.028 141.413 C 169.751 141.024,170.541 140.225,170.784 139.639 C 171.027 139.053,171.931 138.137,172.794 137.603 C 173.658 137.070,174.669 136.067,175.042 135.374 C 175.415 134.681,176.415 133.685,177.264 133.161 C 178.113 132.636,178.905 131.898,179.025 131.521 C 179.145 131.144,179.757 130.422,180.385 129.918 C 181.014 129.413,181.862 128.730,182.270 128.400 C 182.678 128.070,183.246 127.339,183.532 126.777 C 183.819 126.214,184.639 125.438,185.355 125.052 C 186.070 124.667,186.964 123.831,187.339 123.195 C 187.715 122.559,188.602 121.635,189.311 121.142 C 190.020 120.649,190.870 119.886,191.200 119.447 C 191.530 119.007,192.430 118.050,193.200 117.318 C 193.970 116.587,194.739 115.856,194.908 115.694 C 195.077 115.533,195.806 114.770,196.528 114.000 C 197.250 113.230,198.237 112.335,198.721 112.011 C 199.206 111.687,199.706 111.095,199.833 110.697 C 200.809 107.622,205.848 107.742,208.047 110.891 C 208.549 111.611,234.962 138.210,266.743 170.000 C 305.654 208.924,324.833 228.379,325.469 229.571 L 326.413 231.343 326.429 302.771 L 326.446 374.200 324.923 375.522 L 323.400 376.844 200.200 376.822 C 63.113 376.798,75.847 377.053,74.499 374.308 C 73.956 373.202,73.722 63.919,74.262 61.160 C 74.694 58.957,75.168 58.423,89.496 44.000 C 97.036 36.410,104.221 29.163,105.463 27.896 C 106.705 26.628,108.279 25.430,108.960 25.232 C 109.642 25.034,110.254 24.856,110.320 24.836 C 110.386 24.816,110.940 25.059,111.551 25.375 M193.000 187.263 C 190.571 188.506,190.581 188.424,190.800 204.400 C 191.070 224.097,193.452 222.114,169.600 222.051 C 144.870 221.985,147.037 220.702,147.016 235.428 C 146.994 250.233,144.663 248.800,168.762 248.800 C 186.036 248.800,186.470 248.819,188.116 249.657 C 190.101 250.668,191.310 251.935,191.018 252.698 C 190.625 253.720,190.767 353.554,191.162 354.291 C 191.371 354.681,191.635 355.305,191.749 355.677 C 192.247 357.298,193.305 357.432,204.464 357.284 L 215.127 357.142 215.539 356.071 C 216.378 353.886,216.419 351.571,216.509 301.732 L 216.600 250.865 217.797 249.836 L 218.994 248.808 238.197 248.704 L 257.400 248.600 258.284 246.800 C 259.222 244.888,259.718 226.367,258.845 225.828 C 258.650 225.707,258.377 225.004,258.239 224.266 C 257.810 221.979,257.789 221.977,237.261 222.016 L 218.602 222.052 217.484 220.800 L 216.366 219.549 216.419 204.569 C 216.471 190.118,216.444 189.541,215.650 188.195 L 214.827 186.800 204.313 186.827 C 197.993 186.843,193.481 187.017,193.000 187.263 M214.957 189.033 C 215.091 189.381,215.200 196.500,215.200 204.853 C 215.200 221.458,215.142 221.013,217.622 223.400 L 218.868 224.600 237.636 224.600 L 256.404 224.600 257.002 225.860 C 257.877 227.705,257.871 243.509,256.994 245.356 L 256.389 246.632 240.415 246.467 C 221.393 246.271,218.880 246.430,217.273 247.934 C 215.092 249.974,215.200 247.139,215.194 302.274 C 215.191 330.613,215.033 354.045,214.843 354.344 C 214.585 354.751,212.958 354.928,208.349 355.049 C 204.967 355.137,200.293 355.275,197.962 355.354 L 193.724 355.498 193.244 354.171 C 192.880 353.166,192.765 340.607,192.768 302.322 C 192.772 244.744,193.113 249.960,189.200 247.809 L 187.000 246.600 169.561 246.560 L 152.122 246.521 150.161 245.560 C 147.911 244.459,147.496 243.270,148.570 241.006 C 149.434 239.186,149.465 231.303,148.613 230.176 C 147.212 228.325,147.814 226.692,150.310 225.575 L 152.600 224.551 169.000 224.775 C 185.881 225.007,189.200 224.739,189.200 223.147 C 189.200 222.956,189.483 222.800,189.829 222.800 C 192.543 222.800,192.867 220.769,192.766 204.415 C 192.690 192.242,192.772 189.591,193.237 189.065 C 194.086 188.107,214.590 188.076,214.957 189.033 " stroke="none" fill="#afafaf" fill-rule="evenodd"></path><path id="path3" d="M38.000 7.460 C 35.169 7.886,34.070 8.422,33.668 9.576 C 33.315 10.590,33.011 10.773,31.331 10.981 C 25.201 11.742,25.454 11.645,24.817 13.486 C 24.343 14.857,24.006 15.218,23.017 15.416 C 20.576 15.905,20.401 16.040,19.961 17.789 C 19.557 19.394,19.392 19.557,17.769 19.966 C 16.339 20.326,15.968 20.611,15.772 21.504 C 15.167 24.245,14.968 24.537,13.393 24.979 C 11.680 25.459,11.310 26.159,11.240 29.050 C 11.167 32.073,10.791 33.107,9.582 33.607 C 7.248 34.574,7.408 22.932,7.309 199.200 C 7.236 327.916,7.321 362.257,7.716 363.992 C 8.189 366.070,8.683 366.653,10.522 367.301 C 10.700 367.364,11.003 369.104,11.197 371.168 C 11.568 375.122,11.824 375.583,13.651 375.594 C 14.723 375.600,14.922 375.907,15.854 379.000 C 16.159 380.013,16.462 380.231,17.792 380.400 C 19.260 380.586,19.390 380.709,19.693 382.200 C 20.061 384.014,20.878 384.800,22.396 384.800 C 23.595 384.800,24.400 385.458,24.400 386.436 C 24.400 387.934,25.705 388.830,28.200 389.044 C 32.090 389.378,32.400 389.496,32.400 390.634 C 32.400 391.194,32.586 392.001,32.814 392.426 C 33.467 393.646,366.933 393.646,367.586 392.426 C 367.814 392.001,368.000 391.210,368.000 390.669 C 368.000 389.508,368.638 389.200,371.046 389.200 C 373.716 389.200,375.600 388.286,375.600 386.992 C 375.600 385.652,376.455 384.800,377.798 384.800 C 379.538 384.800,380.374 384.102,380.642 382.426 C 380.877 380.961,380.982 380.863,382.610 380.619 C 384.457 380.342,384.800 379.906,384.800 377.835 C 384.800 376.452,385.647 375.746,387.584 375.517 C 388.749 375.378,389.103 374.396,389.160 371.133 C 389.216 367.947,389.417 367.600,391.200 367.600 C 392.208 367.600,392.795 367.390,392.956 366.971 C 393.640 365.189,393.214 33.805,392.528 33.300 C 392.153 33.025,391.454 32.800,390.973 32.800 C 389.650 32.800,389.304 32.072,389.133 28.929 C 388.963 25.799,388.186 24.400,386.618 24.400 C 385.468 24.400,384.800 23.664,384.800 22.396 C 384.800 20.843,383.923 19.926,382.167 19.643 C 380.726 19.411,380.590 19.278,380.471 17.995 C 380.308 16.225,380.144 16.072,377.771 15.485 C 375.933 15.030,375.797 14.907,375.568 13.496 C 375.255 11.562,375.576 11.731,371.293 11.253 C 367.154 10.791,366.800 10.662,366.800 9.625 C 366.800 8.519,366.016 8.085,363.186 7.626 C 360.760 7.232,40.597 7.068,38.000 7.460 M360.323 8.867 C 361.355 9.124,362.470 9.626,362.800 9.984 C 363.489 10.730,365.510 11.418,369.123 12.137 C 371.087 12.528,371.987 12.961,373.192 14.095 C 374.043 14.897,375.557 15.925,376.558 16.381 C 377.558 16.837,378.585 17.612,378.839 18.105 C 379.428 19.247,381.368 21.073,382.313 21.372 C 382.713 21.499,383.279 22.278,383.571 23.102 C 383.863 23.926,384.895 25.347,385.864 26.260 C 387.356 27.667,387.692 28.278,388.061 30.260 C 388.655 33.454,389.542 35.492,390.440 35.726 C 392.278 36.207,392.200 28.931,392.200 199.800 C 392.200 368.958,392.253 363.826,390.484 364.832 C 389.322 365.492,388.844 366.659,388.004 370.883 C 387.621 372.811,387.343 373.293,386.216 373.990 C 385.427 374.478,384.525 375.573,384.011 376.665 C 383.075 378.658,382.310 379.600,381.629 379.600 C 381.061 379.600,379.930 380.774,379.261 382.058 C 378.952 382.652,377.884 383.471,376.754 383.982 C 375.672 384.471,374.329 385.471,373.769 386.205 C 372.699 387.608,371.035 388.400,369.159 388.400 C 367.558 388.400,365.985 389.169,364.589 390.635 L 363.377 391.907 356.789 392.179 C 353.165 392.329,280.000 392.395,194.200 392.326 C 27.713 392.192,36.402 392.298,35.797 390.389 C 35.560 389.644,32.732 388.400,31.274 388.400 C 29.845 388.400,27.901 387.406,26.600 386.012 C 25.940 385.304,24.538 384.286,23.485 383.748 C 22.431 383.211,21.415 382.372,21.227 381.885 C 20.843 380.893,19.451 379.532,18.111 378.842 C 17.622 378.590,16.728 377.333,16.125 376.050 C 15.470 374.655,14.536 373.393,13.804 372.913 C 12.734 372.211,12.512 371.736,12.050 369.155 C 11.543 366.314,11.148 365.301,9.400 362.350 C 8.604 361.007,8.599 360.174,8.479 201.600 C 8.354 37.137,8.337 39.088,9.930 37.359 C 10.866 36.344,11.436 34.756,12.055 31.443 C 12.494 29.091,12.742 28.580,13.740 27.973 C 14.486 27.520,15.293 26.398,15.964 24.882 C 17.139 22.227,17.867 21.200,18.574 21.200 C 19.134 21.200,20.913 19.369,21.540 18.147 C 21.781 17.678,23.127 16.740,24.531 16.063 C 25.936 15.385,27.516 14.286,28.043 13.619 C 28.602 12.911,29.377 12.406,29.907 12.404 C 31.502 12.397,36.973 10.767,37.735 10.071 C 38.139 9.702,39.219 9.193,40.135 8.939 C 42.554 8.270,357.636 8.199,360.323 8.867 M109.379 25.783 C 108.399 26.196,104.201 30.057,102.555 32.059 C 102.311 32.357,100.961 33.706,99.555 35.058 C 98.150 36.410,96.267 38.300,95.371 39.258 C 94.475 40.216,93.305 41.382,92.771 41.849 C 92.237 42.316,91.249 43.306,90.575 44.049 C 89.901 44.792,88.731 45.959,87.975 46.642 C 87.219 47.326,85.478 49.036,84.107 50.442 C 82.736 51.849,81.386 53.206,81.107 53.459 C 79.429 54.977,75.635 59.137,75.249 59.881 C 74.601 61.131,74.593 372.708,75.241 374.131 C 75.487 374.671,76.127 375.312,76.663 375.556 C 77.985 376.158,322.892 376.193,324.017 375.591 C 325.644 374.720,325.621 375.782,325.617 302.352 L 325.613 231.090 324.411 229.245 C 323.750 228.230,297.364 201.570,265.774 170.000 C 234.184 138.430,208.037 112.090,207.669 111.467 C 206.129 108.858,200.400 108.450,200.400 110.950 C 200.400 111.379,198.495 113.200,198.045 113.200 C 197.830 113.200,197.248 113.785,196.751 114.500 C 196.255 115.215,195.391 116.160,194.831 116.600 C 194.271 117.040,193.361 117.904,192.807 118.521 C 192.253 119.137,191.378 120.037,190.863 120.521 C 190.348 121.004,189.448 121.904,188.863 122.521 C 188.278 123.137,187.382 124.037,186.871 124.521 C 185.250 126.055,183.834 127.452,182.692 128.644 C 181.289 130.108,180.108 131.289,178.644 132.692 C 177.452 133.834,176.055 135.250,174.521 136.871 C 174.037 137.382,173.137 138.278,172.521 138.863 C 171.904 139.448,171.004 140.348,170.521 140.863 C 170.037 141.378,169.137 142.267,168.521 142.837 C 167.904 143.407,166.919 144.397,166.331 145.037 C 165.743 145.677,164.753 146.653,164.131 147.207 C 163.509 147.761,162.640 148.680,162.200 149.249 C 161.760 149.819,161.025 150.481,160.566 150.721 C 160.108 150.961,159.318 151.761,158.812 152.500 C 158.307 153.238,157.302 154.230,156.580 154.703 C 155.858 155.176,154.963 156.078,154.591 156.707 C 154.220 157.335,153.390 158.199,152.747 158.625 C 152.104 159.051,151.084 160.155,150.480 161.077 C 149.452 162.648,147.315 164.519,144.777 166.069 C 143.723 166.713,143.648 166.703,142.816 165.817 L 141.950 164.895 141.987 112.629 C 142.026 57.274,142.048 58.000,140.336 58.000 C 140.175 58.000,139.203 56.965,138.175 55.700 C 137.147 54.435,135.382 52.383,134.253 51.140 C 133.124 49.897,131.300 47.850,130.200 46.592 C 129.100 45.334,127.461 43.543,126.557 42.611 C 125.654 41.680,124.580 40.351,124.171 39.658 C 123.762 38.966,123.106 38.297,122.714 38.173 C 122.322 38.048,121.479 37.186,120.839 36.257 C 120.200 35.328,119.029 34.014,118.238 33.339 C 117.447 32.663,116.800 31.939,116.800 31.731 C 116.800 31.522,115.945 30.552,114.900 29.576 C 113.855 28.599,112.645 27.309,112.212 26.709 C 111.197 25.305,110.812 25.179,109.379 25.783 M111.120 26.880 C 111.384 27.144,111.600 27.602,111.600 27.898 C 111.600 28.605,113.246 30.234,114.296 30.567 C 114.764 30.716,115.403 31.523,115.762 32.421 C 116.208 33.536,116.821 34.214,117.812 34.686 C 118.704 35.111,119.316 35.736,119.473 36.380 C 119.729 37.432,121.690 39.600,122.386 39.600 C 122.602 39.600,123.055 40.133,123.392 40.784 C 123.728 41.435,124.408 42.382,124.902 42.889 C 125.396 43.397,126.406 44.529,127.146 45.406 C 129.868 48.628,133.053 52.180,135.065 54.237 C 136.200 55.398,137.247 56.719,137.392 57.174 C 137.536 57.628,137.808 58.000,137.996 58.000 C 138.185 58.000,138.892 58.466,139.569 59.036 L 140.800 60.071 140.802 112.736 L 140.804 165.400 141.702 166.497 C 143.233 168.367,145.261 168.166,147.710 165.900 C 148.721 164.965,149.874 163.930,150.274 163.600 C 151.167 162.862,152.000 161.417,152.000 160.605 C 152.000 160.272,152.315 160.000,152.700 160.000 C 153.629 159.999,155.414 158.428,155.771 157.296 C 155.928 156.798,156.579 156.121,157.217 155.791 C 158.686 155.032,159.999 153.634,160.004 152.825 C 160.006 152.476,160.721 151.900,161.625 151.521 C 162.862 151.001,163.401 150.461,163.921 149.224 C 164.417 148.042,164.942 147.491,165.867 147.183 C 167.120 146.765,168.400 145.313,168.400 144.312 C 168.400 144.028,168.985 143.537,169.700 143.222 C 171.325 142.506,171.706 142.125,172.422 140.500 C 172.737 139.785,173.277 139.200,173.622 139.200 C 174.432 139.200,175.951 137.781,176.398 136.606 C 176.589 136.102,177.523 135.261,178.473 134.738 C 179.703 134.061,180.327 133.396,180.640 132.433 C 180.967 131.425,181.421 130.967,182.416 130.640 C 183.351 130.332,184.069 129.658,184.803 128.400 C 185.380 127.411,186.200 126.534,186.625 126.452 C 187.668 126.251,189.200 124.542,189.200 123.579 C 189.200 123.087,189.473 122.800,189.941 122.800 C 190.924 122.800,193.117 120.668,193.434 119.405 C 193.584 118.809,193.973 118.400,194.389 118.400 C 195.469 118.400,197.111 116.916,197.382 115.695 C 197.558 114.903,198.062 114.416,199.202 113.934 C 200.415 113.422,200.930 112.891,201.433 111.634 C 201.793 110.735,202.182 110.000,202.299 110.000 C 202.904 110.000,206.662 112.629,207.364 113.543 C 208.010 114.384,211.500 118.112,213.451 120.044 C 213.643 120.235,222.080 128.668,232.200 138.786 C 242.320 148.904,250.844 157.411,251.143 157.691 C 251.442 157.971,252.385 158.920,253.239 159.800 C 254.092 160.680,254.980 161.580,255.212 161.800 C 255.443 162.020,257.334 163.910,259.414 166.000 C 261.494 168.090,263.332 169.933,263.498 170.095 C 263.664 170.258,272.980 179.568,284.200 190.785 C 295.420 202.002,304.832 211.410,305.116 211.690 C 305.509 212.078,310.783 217.373,313.498 220.104 C 314.057 220.667,316.994 223.593,317.708 224.300 C 320.515 227.076,321.459 228.024,321.869 228.479 C 322.127 228.766,322.802 229.424,323.369 229.942 L 324.400 230.884 324.400 302.071 C 324.400 363.232,324.320 373.338,323.829 373.829 C 323.047 374.610,77.261 374.701,76.480 373.920 C 75.862 373.302,75.773 61.172,76.390 60.019 C 76.604 59.619,77.414 58.917,78.190 58.459 C 78.965 58.001,79.600 57.415,79.600 57.157 C 79.600 56.729,80.579 55.697,82.636 53.953 C 83.056 53.597,83.940 52.656,84.600 51.862 C 85.260 51.067,85.948 50.413,86.129 50.409 C 86.550 50.398,87.234 49.676,88.085 48.345 C 88.456 47.765,89.396 46.897,90.175 46.415 C 90.954 45.934,91.877 44.938,92.226 44.201 C 92.592 43.430,93.430 42.592,94.201 42.226 C 94.938 41.877,95.934 40.954,96.415 40.175 C 96.897 39.396,97.765 38.456,98.345 38.085 C 99.676 37.234,100.398 36.550,100.409 36.129 C 100.413 35.948,101.067 35.260,101.862 34.600 C 102.656 33.940,103.597 33.049,103.953 32.621 C 104.309 32.193,105.183 31.293,105.896 30.621 C 106.608 29.949,107.868 28.725,108.696 27.901 C 110.371 26.232,110.442 26.202,111.120 26.880 M192.957 184.095 C 187.171 187.562,187.562 186.089,187.691 203.950 L 187.800 219.100 186.600 219.555 C 185.781 219.865,179.474 220.039,166.742 220.104 C 142.804 220.227,145.200 218.490,145.200 235.721 C 145.200 252.582,142.946 251.121,168.995 251.149 C 180.798 251.162,186.635 251.305,186.728 251.584 C 186.804 251.813,187.077 252.000,187.333 252.000 C 187.687 252.000,187.776 264.423,187.699 303.300 C 187.585 361.012,187.347 356.504,190.600 358.268 C 193.137 359.644,214.820 359.669,216.500 358.298 C 218.424 356.728,218.433 356.455,218.392 302.600 C 218.371 274.880,218.364 251.975,218.377 251.700 C 218.395 251.307,222.467 251.200,237.340 251.200 C 263.659 251.200,262.405 251.983,262.394 235.572 C 262.383 219.137,263.816 220.042,237.780 220.018 C 225.159 220.006,218.821 219.861,218.539 219.579 C 218.252 219.292,218.181 214.571,218.315 204.794 C 218.538 188.601,218.413 187.517,216.065 185.300 L 214.688 184.000 205.044 183.995 C 199.740 183.992,195.040 183.899,194.600 183.790 C 194.160 183.680,193.421 183.817,192.957 184.095 M215.764 187.231 C 217.039 188.745,216.914 186.756,216.826 204.200 L 216.751 219.000 217.728 220.188 L 218.706 221.377 237.453 221.259 L 256.200 221.140 257.547 222.070 C 259.738 223.582,259.987 224.955,259.994 235.572 C 260.000 245.652,259.780 247.108,258.004 248.700 L 257.000 249.599 237.871 249.600 C 217.578 249.600,218.306 249.533,217.249 251.509 C 216.885 252.188,216.782 264.659,216.817 303.769 C 216.863 356.686,216.882 355.975,215.365 357.492 C 214.979 357.878,212.224 358.000,203.883 358.000 C 191.630 358.000,191.489 357.970,190.414 355.114 C 190.142 354.391,189.748 353.434,189.538 352.986 C 189.293 352.463,189.304 351.534,189.569 350.386 C 190.104 348.063,190.162 251.600,189.629 251.600 C 189.424 251.600,189.019 251.373,188.729 251.095 C 187.245 249.679,186.189 249.600,168.281 249.569 C 147.584 249.533,147.784 249.561,146.834 246.598 C 146.051 244.154,145.985 227.299,146.747 224.547 C 147.651 221.288,149.078 221.085,169.911 221.253 L 186.260 221.385 188.149 220.393 L 190.038 219.400 189.891 205.400 C 189.811 197.700,189.608 191.023,189.442 190.562 C 189.200 189.893,189.514 189.349,191.001 187.862 L 192.863 186.000 203.796 186.000 L 214.729 186.000 215.764 187.231 " stroke="none" fill="#6c6c6c" fill-rule="evenodd"></path><path id="path4" d="M40.135 8.939 C 39.219 9.193,38.139 9.702,37.735 10.071 C 36.973 10.767,31.502 12.397,29.907 12.404 C 29.377 12.406,28.602 12.911,28.043 13.619 C 27.516 14.286,25.936 15.385,24.531 16.063 C 23.127 16.740,21.781 17.678,21.540 18.147 C 20.913 19.369,19.134 21.200,18.574 21.200 C 17.867 21.200,17.139 22.227,15.964 24.882 C 15.293 26.398,14.486 27.520,13.740 27.973 C 12.742 28.580,12.494 29.091,12.055 31.443 C 11.436 34.756,10.866 36.344,9.930 37.359 C 8.337 39.088,8.354 37.137,8.479 201.600 C 8.599 360.174,8.604 361.007,9.400 362.350 C 11.148 365.301,11.543 366.314,12.050 369.155 C 12.512 371.736,12.734 372.211,13.804 372.913 C 14.536 373.393,15.470 374.655,16.125 376.050 C 16.728 377.333,17.622 378.590,18.111 378.842 C 19.451 379.532,20.843 380.893,21.227 381.885 C 21.415 382.372,22.431 383.211,23.485 383.748 C 24.538 384.286,25.940 385.304,26.600 386.012 C 27.901 387.406,29.845 388.400,31.274 388.400 C 32.732 388.400,35.560 389.644,35.797 390.389 C 36.402 392.298,27.713 392.192,194.200 392.326 C 280.000 392.395,353.165 392.329,356.789 392.179 L 363.377 391.907 364.589 390.635 C 365.985 389.169,367.558 388.400,369.159 388.400 C 371.035 388.400,372.699 387.608,373.769 386.205 C 374.329 385.471,375.672 384.471,376.754 383.982 C 377.884 383.471,378.952 382.652,379.261 382.058 C 379.930 380.774,381.061 379.600,381.629 379.600 C 382.310 379.600,383.075 378.658,384.011 376.665 C 384.525 375.573,385.427 374.478,386.216 373.990 C 387.343 373.293,387.621 372.811,388.004 370.883 C 388.844 366.659,389.322 365.492,390.484 364.832 C 392.253 363.826,392.200 368.958,392.200 199.800 C 392.200 28.931,392.278 36.207,390.440 35.726 C 389.542 35.492,388.655 33.454,388.061 30.260 C 387.692 28.278,387.356 27.667,385.864 26.260 C 384.895 25.347,383.863 23.926,383.571 23.102 C 383.279 22.278,382.713 21.499,382.313 21.372 C 381.368 21.073,379.428 19.247,378.839 18.105 C 378.585 17.612,377.558 16.837,376.558 16.381 C 375.557 15.925,374.043 14.897,373.192 14.095 C 371.987 12.961,371.087 12.528,369.123 12.137 C 365.510 11.418,363.489 10.730,362.800 9.984 C 362.470 9.626,361.355 9.124,360.323 8.867 C 357.636 8.199,42.554 8.270,40.135 8.939 M358.069 9.645 C 359.241 9.890,360.920 10.421,361.800 10.825 C 363.362 11.544,364.292 11.810,368.800 12.827 C 370.267 13.158,371.333 13.689,372.000 14.421 C 372.550 15.025,373.992 16.032,375.204 16.660 C 376.416 17.287,378.187 18.648,379.141 19.685 C 380.094 20.721,381.188 21.669,381.571 21.791 C 381.955 21.913,382.703 22.946,383.235 24.088 C 383.766 25.229,384.764 26.730,385.454 27.423 C 386.888 28.862,387.600 30.053,387.600 31.012 C 387.600 32.498,388.895 35.974,390.206 38.009 L 391.600 40.173 391.600 200.313 C 391.600 358.399,391.578 361.452,390.440 362.400 C 389.327 363.327,387.600 367.414,387.600 369.121 C 387.600 370.301,387.019 371.397,385.361 373.346 C 384.637 374.196,383.671 375.688,383.213 376.662 C 382.755 377.636,382.070 378.542,381.690 378.676 C 381.311 378.809,380.100 379.848,379.000 380.983 C 377.900 382.119,376.460 383.307,375.800 383.624 C 375.140 383.941,374.060 384.705,373.400 385.323 C 371.796 386.823,370.648 387.372,367.857 387.972 C 365.035 388.580,362.959 389.409,362.522 390.105 C 361.560 391.635,365.299 391.600,200.681 391.598 C 45.686 391.596,38.400 391.544,38.400 390.444 C 38.400 390.269,37.635 389.751,36.700 389.294 C 35.053 388.488,33.971 388.172,31.346 387.733 C 30.657 387.618,29.222 386.804,28.158 385.925 C 27.094 385.046,25.498 383.961,24.612 383.514 C 23.725 383.067,22.140 381.744,21.089 380.574 C 20.038 379.404,18.868 378.348,18.489 378.226 C 18.110 378.105,17.271 376.817,16.625 375.363 C 15.978 373.909,15.026 372.442,14.509 372.103 C 13.195 371.242,12.784 370.318,12.356 367.259 C 12.152 365.797,11.553 363.700,11.026 362.600 C 10.499 361.500,9.874 359.880,9.636 359.000 C 8.989 356.603,9.025 44.452,9.672 41.531 C 9.932 40.359,10.447 38.950,10.817 38.400 C 11.475 37.423,12.143 34.993,12.625 31.824 C 12.800 30.675,13.289 29.861,14.432 28.815 C 15.295 28.027,16.000 27.249,16.000 27.087 C 16.000 26.249,17.875 22.896,18.734 22.200 C 19.276 21.760,20.638 20.488,21.760 19.374 C 22.882 18.259,24.825 16.848,26.078 16.238 C 27.330 15.627,28.622 14.721,28.947 14.225 C 29.524 13.344,30.185 13.107,35.200 11.986 C 36.410 11.716,37.940 11.207,38.600 10.856 C 39.260 10.504,40.700 10.013,41.800 9.764 C 44.636 9.121,355.002 9.004,358.069 9.645 M108.960 25.232 C 108.279 25.430,106.705 26.628,105.463 27.896 C 104.221 29.163,97.036 36.410,89.496 44.000 C 75.168 58.423,74.694 58.957,74.262 61.160 C 73.722 63.919,73.956 373.202,74.499 374.308 C 75.847 377.053,63.113 376.798,200.200 376.822 L 323.400 376.844 324.923 375.522 L 326.446 374.200 326.429 302.771 L 326.413 231.343 325.469 229.571 C 324.833 228.379,305.654 208.924,266.743 170.000 C 234.962 138.210,208.549 111.611,208.047 110.891 C 205.848 107.742,200.809 107.622,199.833 110.697 C 199.706 111.095,199.206 111.687,198.721 112.011 C 198.237 112.335,197.250 113.230,196.528 114.000 C 195.806 114.770,195.077 115.533,194.908 115.694 C 194.739 115.856,193.970 116.587,193.200 117.318 C 192.430 118.050,191.530 119.007,191.200 119.447 C 190.870 119.886,190.020 120.649,189.311 121.142 C 188.602 121.635,187.715 122.559,187.339 123.195 C 186.964 123.831,186.070 124.667,185.355 125.052 C 184.639 125.438,183.819 126.214,183.532 126.777 C 183.246 127.339,182.678 128.070,182.270 128.400 C 181.862 128.730,181.014 129.413,180.385 129.918 C 179.757 130.422,179.145 131.144,179.025 131.521 C 178.905 131.898,178.113 132.636,177.264 133.161 C 176.415 133.685,175.415 134.681,175.042 135.374 C 174.669 136.067,173.658 137.070,172.794 137.603 C 171.931 138.137,171.027 139.053,170.784 139.639 C 170.541 140.225,169.751 141.024,169.028 141.413 C 168.306 141.802,167.311 142.774,166.817 143.572 C 166.323 144.371,165.309 145.425,164.562 145.915 C 163.815 146.404,162.798 147.429,162.302 148.191 C 161.806 148.954,160.939 149.771,160.376 150.006 C 159.813 150.241,159.013 151.011,158.599 151.717 C 157.687 153.268,157.313 153.639,155.944 154.344 C 155.363 154.643,154.644 155.363,154.347 155.944 C 153.756 157.096,152.477 158.400,151.938 158.400 C 151.751 158.400,150.948 159.306,150.152 160.413 C 149.357 161.520,147.931 162.960,146.983 163.612 C 146.035 164.264,144.976 165.081,144.630 165.427 C 143.198 166.860,141.643 162.306,142.420 158.954 C 142.624 158.078,142.785 136.430,142.790 109.349 C 142.801 56.620,142.934 59.592,140.449 57.227 C 139.855 56.662,138.987 55.660,138.521 55.000 C 138.055 54.340,136.742 52.810,135.604 51.600 C 134.466 50.390,133.240 48.905,132.881 48.299 C 132.521 47.694,131.906 47.097,131.513 46.973 C 131.121 46.848,130.797 46.623,130.794 46.473 C 130.790 46.323,130.250 45.591,129.594 44.846 C 128.937 44.101,128.400 43.375,128.400 43.232 C 128.400 43.089,127.859 42.653,127.198 42.262 C 126.537 41.872,125.733 41.044,125.412 40.423 C 125.090 39.801,123.966 38.409,122.914 37.330 C 121.861 36.250,120.715 35.014,120.366 34.583 C 120.017 34.153,119.286 33.440,118.740 33.000 C 118.195 32.560,117.346 31.534,116.855 30.721 C 116.363 29.907,115.654 29.142,115.280 29.021 C 114.906 28.900,114.164 28.160,113.631 27.375 C 112.843 26.215,110.840 24.679,110.320 24.836 C 110.254 24.856,109.642 25.034,108.960 25.232 M112.212 26.709 C 112.645 27.309,113.855 28.599,114.900 29.576 C 115.945 30.552,116.800 31.522,116.800 31.731 C 116.800 31.939,117.447 32.663,118.238 33.339 C 119.029 34.014,120.200 35.328,120.839 36.257 C 121.479 37.186,122.322 38.048,122.714 38.173 C 123.106 38.297,123.762 38.966,124.171 39.658 C 124.580 40.351,125.654 41.680,126.557 42.611 C 127.461 43.543,129.100 45.334,130.200 46.592 C 131.300 47.850,133.124 49.897,134.253 51.140 C 135.382 52.383,137.147 54.435,138.175 55.700 C 139.203 56.965,140.175 58.000,140.336 58.000 C 142.048 58.000,142.026 57.274,141.987 112.629 L 141.950 164.895 142.816 165.817 C 143.648 166.703,143.723 166.713,144.777 166.069 C 147.315 164.519,149.452 162.648,150.480 161.077 C 151.084 160.155,152.104 159.051,152.747 158.625 C 153.390 158.199,154.220 157.335,154.591 156.707 C 154.963 156.078,155.858 155.176,156.580 154.703 C 157.302 154.230,158.307 153.238,158.812 152.500 C 159.318 151.761,160.108 150.961,160.566 150.721 C 161.025 150.481,161.760 149.819,162.200 149.249 C 162.640 148.680,163.509 147.761,164.131 147.207 C 164.753 146.653,165.743 145.677,166.331 145.037 C 166.919 144.397,167.904 143.407,168.521 142.837 C 169.137 142.267,170.037 141.378,170.521 140.863 C 171.004 140.348,171.904 139.448,172.521 138.863 C 173.137 138.278,174.037 137.382,174.521 136.871 C 176.055 135.250,177.452 133.834,178.644 132.692 C 180.108 131.289,181.289 130.108,182.692 128.644 C 183.834 127.452,185.250 126.055,186.871 124.521 C 187.382 124.037,188.278 123.137,188.863 122.521 C 189.448 121.904,190.348 121.004,190.863 120.521 C 191.378 120.037,192.253 119.137,192.807 118.521 C 193.361 117.904,194.271 117.040,194.831 116.600 C 195.391 116.160,196.255 115.215,196.751 114.500 C 197.248 113.785,197.830 113.200,198.045 113.200 C 198.495 113.200,200.400 111.379,200.400 110.950 C 200.400 108.450,206.129 108.858,207.669 111.467 C 208.037 112.090,234.184 138.430,265.774 170.000 C 297.364 201.570,323.750 228.230,324.411 229.245 L 325.613 231.090 325.617 302.352 C 325.621 375.782,325.644 374.720,324.017 375.591 C 322.892 376.193,77.985 376.158,76.663 375.556 C 76.127 375.312,75.487 374.671,75.241 374.131 C 74.593 372.708,74.601 61.131,75.249 59.881 C 75.635 59.137,79.429 54.977,81.107 53.459 C 81.386 53.206,82.736 51.849,84.107 50.442 C 85.478 49.036,87.219 47.326,87.975 46.642 C 88.731 45.959,89.901 44.792,90.575 44.049 C 91.249 43.306,92.237 42.316,92.771 41.849 C 93.305 41.382,94.475 40.216,95.371 39.258 C 96.267 38.300,98.150 36.410,99.555 35.058 C 100.961 33.706,102.311 32.357,102.555 32.059 C 107.328 26.252,110.580 24.450,112.212 26.709 M191.001 187.862 C 189.514 189.349,189.200 189.893,189.442 190.562 C 189.608 191.023,189.811 197.700,189.891 205.400 L 190.038 219.400 188.149 220.393 L 186.260 221.385 169.911 221.253 C 149.078 221.085,147.651 221.288,146.747 224.547 C 145.985 227.299,146.051 244.154,146.834 246.598 C 147.784 249.561,147.584 249.533,168.281 249.569 C 186.189 249.600,187.245 249.679,188.729 251.095 C 189.019 251.373,189.424 251.600,189.629 251.600 C 190.162 251.600,190.104 348.063,189.569 350.386 C 189.304 351.534,189.293 352.463,189.538 352.986 C 189.748 353.434,190.142 354.391,190.414 355.114 C 191.489 357.970,191.630 358.000,203.883 358.000 C 212.224 358.000,214.979 357.878,215.365 357.492 C 216.882 355.975,216.863 356.686,216.817 303.769 C 216.782 264.659,216.885 252.188,217.249 251.509 C 218.306 249.533,217.578 249.600,237.871 249.600 L 257.000 249.599 258.004 248.700 C 259.780 247.108,260.000 245.652,259.994 235.572 C 259.987 224.955,259.738 223.582,257.547 222.070 L 256.200 221.140 237.453 221.259 L 218.706 221.377 217.728 220.188 L 216.751 219.000 216.826 204.200 C 216.914 186.756,217.039 188.745,215.764 187.231 L 214.729 186.000 203.796 186.000 L 192.863 186.000 191.001 187.862 M215.650 188.195 C 216.444 189.541,216.471 190.118,216.419 204.569 L 216.366 219.549 217.484 220.800 L 218.602 222.052 237.261 222.016 C 257.789 221.977,257.810 221.979,258.239 224.266 C 258.377 225.004,258.650 225.707,258.845 225.828 C 259.718 226.367,259.222 244.888,258.284 246.800 L 257.400 248.600 238.197 248.704 L 218.994 248.808 217.797 249.836 L 216.600 250.865 216.509 301.732 C 216.419 351.571,216.378 353.886,215.539 356.071 L 215.127 357.142 204.464 357.284 C 193.305 357.432,192.247 357.298,191.749 355.677 C 191.635 355.305,191.371 354.681,191.162 354.291 C 190.767 353.554,190.625 253.720,191.018 252.698 C 191.310 251.935,190.101 250.668,188.116 249.657 C 186.470 248.819,186.036 248.800,168.762 248.800 C 144.663 248.800,146.994 250.233,147.016 235.428 C 147.037 220.702,144.870 221.985,169.600 222.051 C 193.452 222.114,191.070 224.097,190.800 204.400 C 190.536 185.156,189.221 186.866,204.313 186.827 L 214.827 186.800 215.650 188.195 " stroke="none" fill="#7c7c7c" fill-rule="evenodd"></path></g></svg>