<svg id="svg" version="1.1" xmlns="http://www.w3.org/2000/svg" xmlns:xlink="http://www.w3.org/1999/xlink" width="400" height="400" viewBox="0, 0, 400,400"><g id="svgg"><path id="path0" d="M30.386 2.768 C 28.407 3.157,28.126 3.402,27.827 4.996 C 27.580 6.315,27.470 6.400,26.010 6.400 C 24.023 6.400,23.200 7.228,23.200 9.229 L 23.200 10.800 21.200 10.800 L 19.200 10.800 19.200 12.779 L 19.200 14.758 17.100 14.879 L 15.000 15.000 14.879 17.100 L 14.758 19.200 12.779 19.200 L 10.800 19.200 10.800 21.148 L 10.800 23.096 8.951 23.304 C 6.831 23.543,6.415 24.002,6.406 26.110 C 6.401 27.473,6.281 27.644,5.173 27.865 C 4.485 28.003,3.650 28.562,3.273 29.138 C 2.153 30.847,2.242 370.720,3.362 371.958 C 3.797 372.438,4.613 372.800,5.262 372.800 C 6.315 372.800,6.400 372.914,6.400 374.338 C 6.400 376.263,7.360 377.200,9.331 377.200 L 10.800 377.200 10.800 379.200 L 10.800 381.200 12.779 381.200 L 14.758 381.200 14.879 383.300 L 15.000 385.400 17.100 385.521 L 19.200 385.642 19.200 387.621 L 19.200 389.600 21.200 389.600 L 23.200 389.600 23.200 390.967 C 23.200 393.550,23.285 393.600,27.643 393.600 L 31.600 393.600 31.600 395.336 C 31.600 396.808,31.755 397.142,32.619 397.536 C 34.411 398.352,367.354 398.189,368.171 397.371 C 368.528 397.015,368.800 396.068,368.800 395.185 L 368.800 393.628 372.900 393.514 L 377.000 393.400 377.120 391.553 L 377.239 389.706 379.868 389.495 C 382.794 389.260,384.513 388.307,384.736 386.795 C 384.897 385.706,385.405 385.165,386.883 384.512 C 388.272 383.897,389.600 381.167,389.600 378.925 C 389.600 377.228,389.622 377.200,390.967 377.200 C 393.550 377.200,393.600 377.115,393.600 372.757 L 393.600 368.800 395.171 368.800 C 396.067 368.800,397.013 368.530,397.371 368.171 C 398.189 367.354,398.352 34.411,397.536 32.619 C 397.142 31.755,396.808 31.600,395.336 31.600 L 393.600 31.600 393.600 27.643 C 393.600 23.285,393.550 23.200,390.967 23.200 L 389.600 23.200 389.600 21.200 L 389.600 19.200 387.621 19.200 L 385.642 19.200 385.521 17.100 L 385.400 15.000 383.300 14.879 L 381.200 14.758 381.200 12.779 L 381.200 10.800 379.200 10.800 L 377.200 10.800 377.200 9.080 C 377.200 6.919,376.681 6.400,374.520 6.400 C 372.902 6.400,372.800 6.334,372.800 5.276 C 372.800 4.659,372.545 3.804,372.232 3.376 C 371.650 2.580,34.389 1.979,30.386 2.768 M361.317 8.259 C 362.151 8.397,363.349 8.992,363.979 9.580 C 365.195 10.716,367.567 11.600,369.400 11.600 C 371.618 11.600,373.562 12.465,374.094 13.689 C 374.452 14.513,375.277 15.170,376.910 15.928 C 378.539 16.684,379.294 17.282,379.468 17.958 C 379.789 19.200,380.718 20.099,382.206 20.609 C 383.001 20.881,383.534 21.422,383.800 22.231 C 384.377 23.981,385.527 25.600,386.194 25.600 C 387.362 25.600,388.400 27.275,388.400 29.162 C 388.400 31.964,389.435 34.267,390.818 34.544 C 391.719 34.724,392.051 35.091,392.397 36.286 C 393.117 38.779,392.775 364.467,392.051 365.339 C 391.749 365.702,391.099 366.000,390.605 366.000 C 389.437 366.000,388.400 368.601,388.400 371.532 C 388.400 373.488,388.310 373.685,387.127 374.319 C 385.313 375.290,384.066 376.696,383.923 377.932 C 383.833 378.710,383.372 379.219,382.218 379.817 C 381.214 380.336,380.336 381.214,379.816 382.218 C 379.254 383.303,378.685 383.844,378.003 383.940 C 376.589 384.140,374.930 385.428,374.650 386.545 C 374.370 387.659,373.251 388.153,369.514 388.812 C 366.738 389.301,366.190 389.636,365.938 391.000 C 365.847 391.491,365.251 391.985,364.395 392.278 C 362.773 392.834,36.675 392.837,35.564 392.282 C 35.215 392.107,34.675 391.395,34.364 390.700 C 33.794 389.422,31.409 388.429,28.862 388.408 C 27.728 388.398,25.600 386.958,25.600 386.200 C 25.600 385.545,23.531 384.000,22.654 384.000 C 21.914 384.000,20.400 382.471,20.400 381.725 C 20.400 380.926,18.901 379.600,17.999 379.600 C 17.407 379.600,16.880 378.925,15.971 377.000 C 15.263 375.503,14.488 374.400,14.142 374.400 C 12.811 374.400,11.600 372.032,11.600 369.431 C 11.600 367.701,10.744 365.611,9.539 364.404 C 7.906 362.766,7.954 368.302,8.081 198.200 C 8.208 27.772,8.107 36.401,9.978 35.807 C 10.634 35.599,11.598 32.801,11.602 31.094 C 11.607 29.068,12.407 27.294,13.523 26.832 C 14.594 26.388,15.386 25.202,16.392 22.534 C 16.697 21.725,17.325 21.082,18.134 20.751 C 19.745 20.093,20.334 19.508,20.835 18.071 C 21.140 17.196,21.814 16.661,23.635 15.849 C 24.954 15.260,26.151 14.468,26.294 14.089 C 26.838 12.653,28.969 11.600,31.331 11.600 C 33.077 11.600,35.149 10.764,36.480 9.523 C 37.179 8.872,38.221 8.385,39.118 8.290 C 41.647 8.024,359.709 7.994,361.317 8.259 M114.400 25.621 C 111.080 26.213,110.206 26.514,109.079 27.451 C 108.463 27.964,106.618 29.019,104.979 29.797 C 103.341 30.575,102.000 31.370,102.000 31.565 C 102.000 32.047,99.218 34.800,98.731 34.800 C 98.122 34.800,97.474 35.643,96.512 37.685 C 96.024 38.722,95.019 40.252,94.279 41.085 C 90.178 45.701,89.991 66.328,94.017 70.000 C 94.620 70.550,95.609 71.900,96.214 73.000 C 98.382 76.939,105.798 83.178,108.346 83.207 C 108.706 83.212,110.173 83.809,111.606 84.536 C 116.758 87.148,126.031 87.371,130.200 84.985 C 131.080 84.481,132.610 83.854,133.600 83.591 C 135.628 83.051,137.188 82.393,137.841 81.800 C 138.083 81.580,139.163 80.682,140.241 79.805 C 143.495 77.156,145.466 74.994,146.565 72.867 C 146.898 72.224,147.433 71.596,147.755 71.473 C 148.380 71.233,149.397 69.240,149.731 67.600 C 149.843 67.050,150.320 65.160,150.792 63.400 C 151.264 61.640,151.895 59.213,152.194 58.006 C 152.848 55.370,154.097 54.150,156.493 53.807 C 160.615 53.217,244.961 53.776,245.996 54.400 C 247.599 55.366,248.367 56.404,248.622 57.951 C 248.753 58.748,249.008 59.850,249.187 60.400 C 249.367 60.950,249.728 62.480,249.990 63.800 C 250.887 68.331,251.304 69.595,252.198 70.496 C 252.690 70.993,253.730 72.390,254.508 73.600 C 256.634 76.906,263.053 82.586,265.182 83.045 C 266.817 83.398,268.472 84.020,270.400 85.007 C 274.120 86.910,286.298 87.113,287.569 85.293 C 287.875 84.855,291.929 83.205,292.753 83.183 C 293.878 83.154,295.815 81.882,298.819 79.200 C 302.688 75.746,302.480 75.972,304.024 73.537 C 304.769 72.361,305.700 71.164,306.092 70.876 C 307.163 70.088,307.860 68.450,308.166 66.000 C 308.317 64.790,308.808 62.555,309.257 61.034 C 310.029 58.417,310.352 52.893,309.785 51.976 C 309.402 51.355,308.498 47.517,308.191 45.200 C 307.910 43.083,306.799 40.982,304.907 38.991 C 304.484 38.546,303.803 37.422,303.393 36.494 C 302.984 35.565,302.332 34.705,301.945 34.582 C 301.021 34.289,298.800 32.204,298.800 31.630 C 298.800 31.382,298.389 31.024,297.887 30.833 C 295.636 29.977,292.885 28.557,291.600 27.586 C 288.539 25.273,294.271 25.415,201.600 25.356 C 154.630 25.325,115.390 25.445,114.400 25.621 M164.000 64.284 C 162.550 64.745,160.071 68.338,159.590 70.676 C 158.883 74.117,158.087 76.004,156.669 77.599 C 155.971 78.384,154.798 79.920,154.062 81.013 C 153.326 82.106,152.066 83.413,151.262 83.917 C 150.458 84.422,148.602 85.976,147.137 87.370 L 144.475 89.906 145.501 90.373 C 147.257 91.173,253.880 91.023,255.423 90.219 C 256.070 89.881,256.413 89.604,256.183 89.602 C 255.747 89.600,253.007 87.154,252.749 86.538 C 252.667 86.341,251.430 85.302,250.000 84.228 C 248.570 83.153,247.346 82.139,247.279 81.974 C 247.212 81.809,246.790 81.252,246.340 80.737 C 245.890 80.222,245.194 79.161,244.794 78.381 C 244.394 77.600,243.605 76.615,243.041 76.192 C 242.034 75.436,241.941 75.146,240.567 68.489 C 240.350 67.436,237.831 64.898,236.474 64.364 C 235.540 63.997,165.148 63.919,164.000 64.284 M139.062 101.131 C 138.177 102.110,138.525 105.413,139.617 106.400 C 140.684 107.363,141.672 109.599,142.198 112.239 C 142.840 115.459,143.361 116.862,144.360 118.061 C 146.037 120.073,145.988 116.891,145.994 222.754 C 146.000 324.351,146.018 325.784,147.319 327.500 C 147.619 327.895,158.233 328.000,198.030 328.000 C 248.096 328.000,250.400 327.944,250.400 326.727 C 250.400 326.538,250.805 325.712,251.300 324.891 L 252.200 323.400 252.000 224.000 L 251.800 124.600 253.111 120.443 C 254.378 116.426,255.482 114.000,256.042 114.000 C 256.433 114.000,257.851 110.837,258.194 109.200 C 258.355 108.430,259.143 106.900,259.945 105.800 C 262.306 102.558,262.370 102.371,261.458 101.322 L 260.656 100.400 200.190 100.400 C 142.120 100.400,139.698 100.429,139.062 101.131 M175.040 116.960 L 176.400 118.320 176.400 218.765 C 176.400 329.257,176.518 323.732,174.124 325.500 C 171.600 327.364,165.494 325.642,164.090 322.669 L 163.179 320.739 163.195 219.504 C 163.206 143.577,163.326 118.130,163.672 117.713 C 165.729 115.235,172.844 114.764,175.040 116.960 M203.139 115.848 C 203.820 115.984,205.016 116.659,205.798 117.348 L 207.218 118.600 207.223 219.200 L 207.228 319.800 205.923 322.493 C 204.421 325.592,203.710 326.000,199.816 326.000 C 197.061 326.000,195.817 325.245,195.350 323.289 C 195.207 322.690,194.959 322.020,194.800 321.800 C 194.044 320.756,193.982 313.015,193.992 221.093 C 193.997 167.142,194.002 121.993,194.001 120.761 C 193.999 116.589,197.482 114.716,203.139 115.848 M236.500 117.205 L 237.600 118.413 237.594 219.506 C 237.588 324.829,237.633 321.890,235.989 324.366 C 234.208 327.048,225.866 326.478,225.354 323.639 C 225.211 322.847,224.937 321.894,224.744 321.521 C 223.956 319.992,224.289 118.141,225.082 117.188 C 226.854 115.057,234.555 115.068,236.500 117.205 M149.400 340.444 C 147.860 340.887,145.815 341.437,144.856 341.666 C 143.128 342.080,142.614 342.399,140.357 344.463 C 138.988 345.715,137.621 348.532,137.609 350.126 C 137.576 354.337,134.832 355.600,125.718 355.600 L 118.759 355.600 118.124 357.100 C 117.087 359.552,117.130 373.587,118.179 374.636 C 118.926 375.383,120.748 375.400,200.226 375.400 L 281.510 375.400 282.342 374.400 C 283.801 372.645,283.441 358.541,281.874 356.100 C 281.637 355.732,279.735 355.600,274.655 355.600 C 265.521 355.600,264.164 354.892,262.765 349.400 C 261.688 345.174,258.315 341.600,255.403 341.600 C 255.058 341.600,253.655 341.195,252.287 340.700 L 249.800 339.800 201.000 339.719 C 153.164 339.640,152.145 339.655,149.400 340.444 " stroke="none" fill="#141414" fill-rule="evenodd"></path><path id="path1" d="M40.600 13.206 C 34.803 13.931,31.021 14.450,31.011 14.522 C 30.845 15.692,29.485 17.075,27.967 17.618 C 25.755 18.409,18.875 25.038,18.023 27.200 C 17.310 29.006,16.054 30.400,15.138 30.400 C 14.312 30.400,14.140 31.002,13.822 35.000 C 13.700 36.540,13.427 38.970,13.216 40.400 C 12.677 44.049,12.686 356.449,13.226 360.200 C 13.447 361.740,13.764 364.517,13.930 366.372 C 14.096 368.227,14.405 369.805,14.616 369.878 C 16.267 370.455,17.044 371.229,17.776 373.022 C 18.901 375.783,24.439 381.273,27.433 382.597 C 28.625 383.125,29.604 383.701,29.609 383.878 C 29.645 385.186,31.131 386.001,34.200 386.396 C 35.960 386.622,38.030 386.971,38.800 387.172 C 39.570 387.372,40.951 387.734,41.869 387.975 C 44.944 388.783,356.606 388.557,359.493 387.745 C 360.762 387.388,363.420 386.885,365.400 386.627 C 369.379 386.109,370.400 385.774,370.400 384.986 C 370.400 384.228,372.037 383.047,374.270 382.194 C 376.371 381.392,376.591 381.220,377.925 379.322 C 378.419 378.618,379.448 377.817,380.212 377.541 C 381.084 377.226,381.600 376.776,381.600 376.331 C 381.600 374.832,383.613 371.214,384.784 370.608 C 385.746 370.111,385.996 369.672,386.210 368.103 C 386.739 364.238,387.134 362.143,387.763 359.864 C 388.508 357.167,388.792 43.433,388.052 41.541 C 387.299 39.617,386.803 37.308,386.441 34.035 C 386.153 31.436,385.901 30.577,385.334 30.263 C 384.068 29.562,382.621 27.783,382.070 26.251 C 381.614 24.983,379.919 22.800,379.391 22.800 C 379.296 22.800,378.187 21.816,376.925 20.614 C 375.664 19.411,374.085 18.223,373.416 17.973 C 371.010 17.075,370.402 16.652,369.907 15.535 C 369.551 14.730,369.054 14.352,368.202 14.235 C 367.541 14.145,365.470 13.832,363.600 13.539 C 359.804 12.944,45.280 12.620,40.600 13.206 M283.254 21.621 C 284.053 21.953,284.967 22.441,285.285 22.704 C 285.602 22.968,287.108 23.375,288.631 23.610 C 290.154 23.844,292.099 24.144,292.952 24.277 C 294.093 24.455,294.939 24.980,296.142 26.260 C 297.043 27.217,298.016 28.000,298.304 28.000 C 299.291 28.000,300.838 29.316,301.382 30.619 C 301.770 31.547,302.272 31.996,303.133 32.185 C 304.370 32.457,305.600 33.867,305.600 35.014 C 305.600 35.712,306.519 36.800,307.109 36.800 C 308.268 36.800,309.983 40.298,309.994 42.683 C 309.998 43.618,310.415 44.402,311.529 45.574 C 314.886 49.103,314.646 66.000,311.239 66.000 C 310.815 66.000,310.137 67.737,309.830 69.607 C 309.542 71.359,308.181 73.943,306.989 75.000 C 306.493 75.440,305.710 76.553,305.249 77.474 C 304.726 78.517,303.791 79.518,302.769 80.127 C 301.867 80.665,300.790 81.662,300.377 82.342 C 299.595 83.627,297.826 84.571,295.316 85.042 C 294.379 85.218,293.388 85.823,292.564 86.723 C 289.369 90.210,269.577 90.225,265.989 86.743 C 264.900 85.686,263.910 85.131,262.796 84.953 C 261.909 84.811,261.086 84.539,260.968 84.347 C 260.849 84.156,260.470 84.000,260.123 84.000 C 259.417 84.000,258.000 82.533,258.000 81.802 C 258.000 81.540,257.193 80.911,256.207 80.404 C 254.312 79.429,253.409 78.372,252.967 76.609 C 252.818 76.019,252.405 75.425,252.049 75.290 C 250.620 74.750,248.800 71.602,248.800 69.672 C 248.800 68.639,247.230 65.741,246.372 65.190 C 246.031 64.972,245.556 63.187,244.670 58.800 L 244.145 56.200 200.372 56.097 C 151.384 55.981,155.600 55.721,155.600 58.857 C 155.600 62.450,154.367 66.468,153.048 67.174 C 152.379 67.532,152.019 68.285,151.641 70.111 C 151.022 73.110,150.274 74.625,149.104 75.251 C 147.816 75.941,147.272 76.572,146.986 77.714 C 146.673 78.961,145.336 80.216,143.980 80.535 C 143.337 80.686,142.716 81.287,142.300 82.159 C 141.622 83.582,140.559 84.224,137.200 85.242 C 136.210 85.541,134.845 86.339,134.166 87.014 C 130.845 90.317,110.046 89.971,107.821 86.576 C 107.464 86.031,106.486 85.437,105.502 85.167 C 102.860 84.444,100.492 83.120,100.031 82.108 C 99.800 81.601,98.798 80.696,97.805 80.096 C 96.484 79.298,95.723 78.442,94.974 76.911 C 94.410 75.759,93.334 74.183,92.582 73.409 C 91.831 72.635,91.107 71.506,90.975 70.901 C 90.842 70.295,90.569 69.278,90.367 68.640 C 90.165 68.002,90.000 67.111,90.000 66.659 C 90.000 66.208,89.484 65.290,88.854 64.619 C 85.916 61.495,85.880 49.118,88.802 46.660 C 89.602 45.987,89.982 45.131,90.346 43.183 C 90.990 39.734,91.867 37.807,93.088 37.153 C 93.643 36.856,94.480 35.817,94.948 34.844 C 95.772 33.133,96.236 32.692,97.682 32.248 C 98.057 32.133,98.715 31.350,99.145 30.507 C 99.730 29.362,100.440 28.744,101.963 28.055 C 103.083 27.549,104.000 26.979,104.000 26.788 C 104.000 25.649,106.784 24.435,110.944 23.760 C 113.333 23.372,115.525 22.817,115.815 22.527 C 116.106 22.237,116.590 22.000,116.891 22.000 C 117.193 22.000,117.611 21.832,117.820 21.627 C 118.846 20.618,280.827 20.613,283.254 21.621 M240.425 61.930 C 241.977 62.733,242.678 64.568,243.241 69.300 C 243.636 72.621,243.889 73.600,244.350 73.600 C 245.018 73.600,246.800 75.134,246.800 75.709 C 246.800 76.588,248.142 78.800,248.674 78.800 C 249.342 78.800,249.913 79.336,250.913 80.898 C 251.300 81.502,252.240 82.257,253.004 82.576 C 253.895 82.948,254.631 83.657,255.059 84.556 C 255.469 85.416,256.204 86.143,256.963 86.443 C 260.068 87.665,260.962 90.157,258.968 92.030 L 257.936 93.000 200.179 93.000 L 142.422 93.000 141.531 92.109 C 139.920 90.498,140.771 86.819,142.762 86.791 C 143.615 86.779,144.911 85.644,145.564 84.339 C 145.855 83.755,146.862 82.883,147.800 82.400 C 148.738 81.917,149.714 81.134,149.968 80.660 C 150.222 80.186,150.956 79.495,151.600 79.126 C 152.273 78.740,152.886 77.974,153.041 77.327 C 153.391 75.864,153.864 75.296,155.694 74.141 L 157.200 73.190 157.200 70.268 C 157.200 64.317,158.594 62.057,162.576 61.551 C 166.842 61.009,239.327 61.362,240.425 61.930 M262.019 97.657 C 265.502 99.472,265.086 107.162,261.395 109.200 C 260.656 109.609,260.161 110.230,260.099 110.830 C 259.680 114.834,258.616 117.074,256.574 118.244 C 255.813 118.680,255.797 120.373,255.593 222.644 C 255.471 283.757,255.235 327.012,255.020 327.600 C 254.591 328.777,254.137 329.273,252.792 330.037 C 251.750 330.628,152.431 331.162,147.754 330.601 C 145.627 330.346,143.491 328.858,142.455 326.909 C 142.094 326.230,141.985 301.957,141.995 224.619 C 142.007 136.917,141.930 122.908,141.424 120.910 C 141.102 119.639,140.623 117.196,140.359 115.481 C 140.053 113.489,139.643 112.188,139.224 111.881 C 133.984 108.043,135.625 95.078,141.039 97.545 C 142.741 98.321,257.559 98.182,259.054 97.402 C 260.450 96.675,260.072 96.642,262.019 97.657 M167.591 118.700 C 167.127 133.849,167.727 319.422,168.243 320.210 C 169.044 321.433,172.921 321.704,173.357 320.567 C 173.491 320.219,173.600 274.589,173.600 219.167 L 173.600 118.400 170.600 118.400 C 168.950 118.400,167.596 118.535,167.591 118.700 M197.200 218.764 C 197.200 330.535,196.925 321.200,200.216 321.200 C 203.476 321.200,203.219 330.311,203.104 218.800 L 203.000 118.600 200.100 118.482 L 197.200 118.365 197.200 218.764 M226.667 118.667 C 226.158 119.175,226.354 319.062,226.864 320.181 C 227.482 321.537,231.032 321.690,232.191 320.410 C 232.584 319.976,233.213 319.523,233.588 319.404 C 234.167 319.220,234.223 318.898,233.958 317.293 C 233.785 316.252,233.638 271.223,233.630 217.228 C 233.618 138.338,233.516 118.994,233.108 118.735 C 232.496 118.346,227.044 118.289,226.667 118.667 M255.919 337.518 C 256.865 338.023,257.740 338.699,257.863 339.020 C 257.986 339.341,258.742 339.891,259.544 340.243 C 262.493 341.537,262.879 341.792,263.400 342.800 C 263.692 343.365,264.056 344.490,264.208 345.300 C 264.377 346.201,264.763 346.861,265.203 347.001 C 265.983 347.248,267.189 349.477,267.584 351.400 L 267.831 352.600 275.215 352.801 C 285.952 353.092,285.600 352.658,285.600 365.600 C 285.600 374.986,285.440 375.902,283.379 378.352 L 282.329 379.600 200.264 379.587 C 136.264 379.577,118.059 379.467,117.558 379.086 C 115.495 377.515,115.200 375.830,115.200 365.635 C 115.200 352.347,114.654 353.058,125.000 352.866 C 132.300 352.730,133.200 352.544,133.200 351.165 C 133.200 350.760,133.728 349.827,134.373 349.092 C 135.018 348.358,135.662 347.226,135.804 346.578 C 136.546 343.194,137.497 341.789,139.731 340.779 C 140.861 340.269,142.214 339.422,142.738 338.898 C 143.841 337.795,145.150 337.202,147.400 336.786 C 148.280 336.623,172.670 336.515,201.600 336.545 L 254.200 336.600 255.919 337.518 " stroke="none" fill="#fbfbfb" fill-rule="evenodd"></path><path id="path2" d="M40.658 11.058 C 38.930 11.603,37.612 12.145,37.728 12.261 C 37.845 12.378,38.629 12.261,39.470 12.001 C 40.312 11.740,41.553 11.364,42.228 11.164 C 44.145 10.596,356.303 10.685,358.694 11.253 C 359.742 11.503,360.987 11.884,361.461 12.100 C 361.934 12.316,362.548 12.417,362.824 12.325 C 363.387 12.138,360.804 11.160,357.894 10.459 C 356.476 10.117,316.092 10.008,199.894 10.033 L 43.800 10.066 40.658 11.058 M34.200 12.800 L 33.000 13.105 34.200 13.125 C 34.860 13.135,35.760 12.989,36.200 12.800 L 37.000 12.456 36.200 12.475 C 35.760 12.486,34.860 12.632,34.200 12.800 M364.400 12.800 C 364.950 12.976,365.760 13.126,366.200 13.132 L 367.000 13.144 366.200 12.800 C 365.760 12.611,364.950 12.462,364.400 12.468 L 363.400 12.480 364.400 12.800 M30.224 13.813 C 29.796 14.136,29.625 14.400,29.844 14.400 C 30.062 14.400,30.411 14.237,30.620 14.039 C 30.829 13.840,31.360 13.591,31.800 13.485 L 32.600 13.293 31.800 13.259 C 31.360 13.241,30.651 13.490,30.224 13.813 M368.833 13.321 C 368.925 13.388,369.540 13.758,370.200 14.145 L 371.400 14.847 370.456 14.024 C 369.936 13.571,369.321 13.200,369.089 13.200 C 368.857 13.200,368.742 13.254,368.833 13.321 M28.200 15.812 C 27.540 16.353,27.194 16.797,27.430 16.798 C 27.667 16.799,28.283 16.350,28.800 15.800 C 29.985 14.538,29.748 14.543,28.200 15.812 M372.000 16.000 C 372.550 16.430,373.180 16.782,373.400 16.782 C 373.620 16.782,373.350 16.430,372.800 16.000 C 372.250 15.570,371.620 15.218,371.400 15.218 C 371.180 15.218,371.450 15.570,372.000 16.000 M24.470 17.779 C 23.738 18.297,22.368 19.525,21.426 20.509 C 20.483 21.493,19.453 22.456,19.137 22.649 C 18.455 23.066,16.792 25.842,16.818 26.523 C 16.827 26.785,17.202 26.305,17.651 25.455 C 18.559 23.733,23.593 18.672,25.300 17.764 C 25.905 17.443,26.400 17.094,26.400 16.990 C 26.400 16.604,25.765 16.864,24.470 17.779 M377.200 18.670 C 377.200 19.128,379.955 22.181,380.168 21.959 C 380.252 21.871,379.618 21.012,378.760 20.049 C 377.902 19.085,377.200 18.465,377.200 18.670 M381.396 22.843 C 381.833 23.370,382.238 23.875,382.296 23.967 C 382.353 24.058,382.400 23.877,382.400 23.563 C 382.400 23.249,381.995 22.744,381.500 22.440 L 380.600 21.887 381.396 22.843 M119.800 23.157 C 118.920 23.291,155.190 23.400,200.400 23.400 C 245.610 23.400,281.700 23.281,280.600 23.135 C 278.096 22.803,121.986 22.824,119.800 23.157 M113.600 24.000 C 112.256 24.431,113.708 24.431,115.400 24.000 C 116.478 23.726,116.498 23.694,115.600 23.687 C 115.050 23.683,114.150 23.824,113.600 24.000 M109.800 24.800 C 109.296 25.017,109.222 25.144,109.600 25.144 C 109.930 25.144,110.560 24.989,111.000 24.800 C 111.504 24.583,111.578 24.456,111.200 24.456 C 110.870 24.456,110.240 24.611,109.800 24.800 M289.600 24.800 C 289.930 25.013,290.560 25.178,291.000 25.166 L 291.800 25.144 291.000 24.800 C 289.804 24.286,288.805 24.286,289.600 24.800 M382.400 24.577 C 382.400 24.675,382.804 25.440,383.297 26.277 C 384.191 27.793,386.800 30.597,386.800 30.041 C 386.800 29.881,386.244 29.221,385.563 28.575 C 384.883 27.929,383.980 26.725,383.555 25.900 C 382.876 24.580,382.400 24.035,382.400 24.577 M292.600 25.668 C 293.040 25.912,293.715 26.385,294.100 26.718 C 294.485 27.051,294.800 27.155,294.800 26.948 C 294.800 26.552,292.715 25.191,292.138 25.212 C 291.952 25.219,292.160 25.424,292.600 25.668 M105.615 26.816 C 104.853 27.467,104.403 28.000,104.615 27.999 C 104.827 27.999,105.630 27.459,106.400 26.800 C 107.170 26.141,107.620 25.609,107.400 25.617 C 107.180 25.626,106.377 26.165,105.615 26.816 M14.900 28.969 C 13.965 29.880,13.200 30.760,13.200 30.926 C 13.200 31.092,14.046 30.417,15.080 29.427 C 16.113 28.436,16.878 27.555,16.780 27.469 C 16.681 27.383,15.835 28.058,14.900 28.969 M299.263 30.100 C 299.998 30.815,300.677 31.353,300.771 31.296 C 301.030 31.138,298.704 28.800,298.288 28.800 C 298.089 28.800,298.527 29.385,299.263 30.100 M98.831 32.069 C 97.992 33.129,97.971 33.225,98.672 32.787 C 99.542 32.244,100.604 30.786,100.103 30.822 C 99.937 30.834,99.364 31.395,98.831 32.069 M387.062 32.200 C 387.196 33.080,387.372 33.875,387.453 33.967 C 387.756 34.310,387.529 32.168,387.181 31.400 C 386.929 30.842,386.893 31.085,387.062 32.200 M12.647 34.537 C 12.478 35.602,12.432 36.565,12.544 36.678 C 12.836 36.969,13.305 34.224,13.114 33.340 C 13.027 32.933,12.816 33.471,12.647 34.537 M96.765 33.713 C 96.416 33.981,95.899 34.650,95.616 35.200 C 95.334 35.750,95.262 36.020,95.457 35.800 C 97.853 33.100,98.122 32.671,96.765 33.713 M303.200 33.393 C 303.200 33.525,303.582 34.031,304.049 34.517 L 304.899 35.400 304.447 34.522 C 304.000 33.654,303.200 32.929,303.200 33.393 M387.612 35.200 C 387.612 35.530,387.787 36.070,388.000 36.400 C 388.345 36.933,388.388 36.933,388.388 36.400 C 388.388 36.070,388.213 35.530,388.000 35.200 C 387.655 34.667,387.612 34.667,387.612 35.200 M94.356 37.300 C 94.096 37.795,93.642 38.343,93.347 38.517 C 93.051 38.692,92.598 39.232,92.340 39.717 C 91.902 40.541,91.943 40.533,92.953 39.600 C 93.984 38.647,95.439 36.400,95.024 36.400 C 94.916 36.400,94.616 36.805,94.356 37.300 M11.585 38.480 C 9.979 42.656,10.036 36.742,10.022 200.400 C 10.011 334.901,10.090 357.668,10.577 359.271 C 11.257 361.513,12.361 363.657,12.384 362.780 C 12.393 362.439,12.244 361.989,12.054 361.780 C 10.818 360.421,10.794 357.311,10.797 200.077 L 10.800 42.532 11.624 40.023 C 12.488 37.390,12.458 36.208,11.585 38.480 M388.400 37.638 C 388.400 37.879,388.735 38.554,389.145 39.138 C 389.554 39.722,390.076 40.920,390.303 41.800 L 390.717 43.400 390.759 42.071 C 390.783 41.299,390.365 40.001,389.762 38.971 C 388.700 37.160,388.400 36.866,388.400 37.638 M306.400 37.748 C 306.400 37.907,306.850 38.486,307.400 39.036 C 307.950 39.586,308.400 39.880,308.400 39.688 C 308.400 39.496,307.950 38.917,307.400 38.400 C 306.850 37.883,306.400 37.590,306.400 37.748 M91.049 42.615 C 90.912 42.973,90.815 43.566,90.834 43.933 C 90.853 44.300,91.027 44.069,91.221 43.420 C 91.598 42.158,91.465 41.533,91.049 42.615 M390.942 47.000 C 390.941 48.980,391.008 49.840,391.092 48.912 C 391.176 47.984,391.177 46.364,391.095 45.312 C 391.012 44.260,390.943 45.020,390.942 47.000 M310.000 46.257 C 310.000 46.458,310.282 47.025,310.627 47.518 C 310.972 48.010,311.495 49.175,311.788 50.107 C 312.132 51.199,312.335 51.487,312.360 50.919 C 312.382 50.434,312.182 49.534,311.916 48.919 C 311.346 47.601,310.000 45.731,310.000 46.257 M88.828 50.023 C 87.834 52.335,87.332 56.896,87.907 58.396 C 88.197 59.153,88.297 58.514,88.323 55.737 C 88.350 52.865,88.545 51.684,89.230 50.225 C 89.710 49.205,90.014 48.281,89.906 48.172 C 89.798 48.064,89.313 48.897,88.828 50.023 M312.544 55.600 C 312.544 57.690,312.612 58.545,312.694 57.500 C 312.776 56.455,312.776 54.745,312.694 53.700 C 312.612 52.655,312.544 53.510,312.544 55.600 M157.913 55.495 C 159.076 55.576,160.876 55.576,161.913 55.493 C 162.951 55.411,162.000 55.345,159.800 55.346 C 157.600 55.347,156.751 55.414,157.913 55.495 M238.713 55.495 C 239.876 55.576,241.676 55.576,242.713 55.493 C 243.751 55.411,242.800 55.345,240.600 55.346 C 238.400 55.347,237.551 55.414,238.713 55.495 M245.057 56.000 C 245.308 56.330,245.602 56.960,245.711 57.400 C 245.897 58.160,245.910 58.157,245.954 57.349 C 245.979 56.881,245.685 56.251,245.300 55.949 C 244.691 55.472,244.660 55.478,245.057 56.000 M154.182 58.982 C 154.029 60.002,153.994 60.927,154.104 61.037 C 154.214 61.147,154.429 60.402,154.582 59.382 C 154.735 58.361,154.770 57.437,154.660 57.327 C 154.550 57.217,154.335 57.961,154.182 58.982 M246.036 59.146 C 245.993 60.284,247.262 64.000,247.694 64.000 C 248.115 64.000,248.078 63.440,247.628 62.980 C 247.424 62.771,246.990 61.610,246.664 60.400 C 246.339 59.190,246.056 58.626,246.036 59.146 M88.400 60.106 C 88.400 60.477,88.759 61.370,89.199 62.090 C 90.234 63.788,90.235 63.029,89.200 61.000 C 88.760 60.137,88.400 59.735,88.400 60.106 M312.046 60.403 C 312.021 60.735,311.550 61.852,311.000 62.885 C 309.595 65.524,309.768 65.828,311.239 63.305 C 311.911 62.152,312.378 60.892,312.277 60.505 C 312.145 59.999,312.080 59.971,312.046 60.403 M153.216 63.300 C 152.935 64.345,152.546 65.200,152.353 65.200 C 152.159 65.200,152.000 65.391,152.000 65.624 C 152.000 65.857,152.183 65.934,152.406 65.796 C 153.004 65.427,154.051 62.736,153.877 62.019 C 153.794 61.678,153.496 62.255,153.216 63.300 M182.330 62.300 C 192.302 62.359,208.502 62.359,218.330 62.300 C 228.159 62.240,220.000 62.192,200.200 62.192 C 180.400 62.192,172.359 62.240,182.330 62.300 M161.291 63.037 C 160.085 63.565,158.393 65.658,158.411 66.600 C 158.415 66.820,158.804 66.335,159.275 65.523 C 159.859 64.515,160.713 63.795,161.965 63.255 C 162.974 62.821,163.530 62.465,163.200 62.465 C 162.870 62.465,162.011 62.723,161.291 63.037 M238.182 63.036 C 239.052 63.354,240.177 64.003,240.682 64.477 C 241.187 64.951,241.600 65.205,241.600 65.041 C 241.600 64.220,238.585 62.379,237.320 62.428 C 236.924 62.444,237.312 62.717,238.182 63.036 M248.856 67.200 C 248.856 67.530,249.011 68.160,249.200 68.600 C 249.417 69.104,249.544 69.178,249.544 68.800 C 249.544 68.470,249.389 67.840,249.200 67.400 C 248.983 66.896,248.856 66.822,248.856 67.200 M242.080 68.600 C 242.080 69.040,242.224 69.850,242.400 70.400 C 242.654 71.192,242.720 71.233,242.720 70.600 C 242.720 70.160,242.576 69.350,242.400 68.800 C 242.146 68.008,242.080 67.967,242.080 68.600 M92.220 71.309 C 92.328 71.588,92.817 72.062,93.308 72.361 C 94.159 72.880,94.155 72.856,93.230 71.853 C 92.148 70.677,91.934 70.562,92.220 71.309 M157.552 72.313 C 157.421 73.107,157.479 73.481,157.701 73.259 C 157.903 73.057,158.001 72.467,157.919 71.946 C 157.793 71.145,157.737 71.202,157.552 72.313 M148.600 73.320 C 147.296 74.918,147.190 75.254,148.315 74.225 C 149.022 73.579,149.600 72.994,149.600 72.925 C 149.600 72.622,148.965 72.874,148.600 73.320 M94.400 73.857 C 94.400 74.447,97.640 78.894,97.888 78.645 C 98.002 78.531,97.771 78.115,97.376 77.719 C 96.980 77.324,96.149 76.200,95.528 75.222 C 94.908 74.244,94.400 73.629,94.400 73.857 M156.400 74.773 C 156.400 74.978,156.067 75.252,155.661 75.381 C 155.254 75.510,154.709 76.107,154.450 76.708 C 153.979 77.797,153.980 77.798,154.689 76.929 C 155.080 76.450,155.850 75.691,156.400 75.242 C 156.950 74.794,157.175 74.421,156.900 74.413 C 156.625 74.406,156.400 74.568,156.400 74.773 M244.600 75.366 C 245.260 75.895,245.870 76.259,245.957 76.174 C 246.173 75.962,244.294 74.429,243.800 74.415 C 243.580 74.409,243.940 74.837,244.600 75.366 M252.802 74.553 C 252.796 75.748,257.814 81.200,258.920 81.200 C 259.118 81.200,258.359 80.435,257.234 79.500 C 256.110 78.565,254.652 76.990,253.996 76.000 C 253.340 75.010,252.803 74.359,252.802 74.553 M303.675 77.184 C 302.701 78.501,302.508 79.149,303.337 78.320 C 303.904 77.754,304.926 76.000,304.689 76.000 C 304.613 76.000,304.157 76.533,303.675 77.184 M145.519 77.603 C 144.642 79.143,144.902 79.142,146.000 77.600 C 146.470 76.940,146.707 76.401,146.527 76.403 C 146.347 76.404,145.893 76.944,145.519 77.603 M246.000 76.990 C 246.000 77.095,246.359 77.770,246.799 78.490 C 247.738 80.031,247.869 79.681,246.990 77.980 C 246.441 76.919,246.000 76.478,246.000 76.990 M143.429 79.429 C 143.005 79.738,142.736 80.069,142.830 80.163 C 142.924 80.257,143.348 80.081,143.771 79.771 C 144.195 79.462,144.464 79.131,144.370 79.037 C 144.276 78.943,143.852 79.119,143.429 79.429 M151.200 81.243 C 150.040 82.246,149.975 82.376,150.822 81.998 C 151.383 81.748,152.060 81.196,152.325 80.772 C 152.952 79.767,152.865 79.804,151.200 81.243 M140.856 81.800 C 140.129 82.570,139.792 83.101,140.107 82.980 C 140.602 82.790,142.634 80.400,142.300 80.400 C 142.232 80.400,141.582 81.030,140.856 81.800 M102.352 82.400 C 103.277 83.280,104.251 83.995,104.517 83.988 C 104.783 83.981,104.649 83.772,104.220 83.523 C 103.790 83.274,103.009 82.559,102.484 81.935 C 101.959 81.311,101.336 80.800,101.099 80.800 C 100.863 80.800,101.427 81.520,102.352 82.400 M297.506 82.611 C 295.561 84.419,296.131 84.417,298.204 82.608 C 299.082 81.842,299.620 81.217,299.400 81.218 C 299.180 81.220,298.328 81.847,297.506 82.611 M260.400 82.800 C 261.170 83.448,261.980 83.978,262.200 83.977 C 262.420 83.975,262.240 83.707,261.800 83.380 C 261.360 83.053,260.683 82.518,260.295 82.192 C 259.908 81.867,259.458 81.605,259.295 81.611 C 259.133 81.617,259.630 82.152,260.400 82.800 M147.650 83.850 C 146.721 84.645,146.041 85.375,146.138 85.472 C 146.236 85.569,146.745 85.218,147.271 84.692 C 147.797 84.167,148.580 83.539,149.010 83.298 C 149.441 83.057,149.691 82.758,149.566 82.632 C 149.441 82.507,148.579 83.055,147.650 83.850 M266.500 85.467 C 267.105 85.862,267.600 86.324,267.600 86.493 C 267.600 86.662,267.780 86.800,268.000 86.800 C 268.775 86.800,268.387 86.122,267.300 85.577 C 265.593 84.721,265.295 84.680,266.500 85.467 M291.000 85.750 C 290.340 86.267,289.381 86.821,288.870 86.982 C 288.358 87.142,288.030 87.363,288.140 87.473 C 288.497 87.830,289.896 87.195,291.420 85.984 C 292.239 85.333,292.750 84.802,292.555 84.804 C 292.360 84.807,291.660 85.232,291.000 85.750 M254.000 85.325 C 254.000 85.394,254.585 85.979,255.300 86.625 L 256.600 87.800 255.425 86.500 C 254.330 85.288,254.000 85.016,254.000 85.325 M109.450 86.080 C 109.755 86.575,112.004 87.665,112.426 87.524 C 112.630 87.456,111.999 87.030,111.023 86.578 C 110.047 86.125,109.339 85.902,109.450 86.080 M131.600 86.619 C 130.610 87.146,130.070 87.582,130.400 87.587 C 131.026 87.597,133.600 86.164,133.600 85.806 C 133.600 85.542,133.699 85.502,131.600 86.619 M143.400 87.699 C 141.162 89.327,141.320 92.000,143.654 92.000 C 143.904 92.000,143.634 91.627,143.054 91.171 C 141.657 90.072,141.720 89.640,143.500 88.115 C 145.221 86.641,145.167 86.413,143.400 87.699 M114.475 88.060 C 115.710 88.407,127.615 88.417,128.484 88.072 C 128.860 87.922,125.653 87.800,121.358 87.800 C 117.063 87.800,113.966 87.917,114.475 88.060 M257.739 88.648 C 258.316 89.225,258.674 89.900,258.535 90.148 C 258.351 90.477,258.418 90.476,258.777 90.144 C 259.295 89.667,257.910 87.600,257.073 87.600 C 256.863 87.600,257.163 88.072,257.739 88.648 M272.079 88.060 C 272.586 88.203,275.790 88.320,279.200 88.320 C 282.610 88.320,285.816 88.203,286.325 88.060 C 286.834 87.917,283.630 87.800,279.205 87.800 C 274.779 87.800,271.573 87.917,272.079 88.060 M145.677 92.460 C 146.866 92.795,253.416 92.788,254.978 92.453 C 255.625 92.314,231.090 92.200,200.454 92.200 C 169.819 92.200,145.169 92.317,145.677 92.460 M137.601 99.798 C 137.086 100.348,136.739 100.869,136.832 100.957 C 136.924 101.046,137.474 100.596,138.054 99.959 C 138.634 99.321,138.980 98.800,138.824 98.800 C 138.667 98.800,138.117 99.249,137.601 99.798 M171.700 99.100 C 187.265 99.158,212.735 99.158,228.300 99.100 C 243.865 99.042,231.130 98.995,200.000 98.995 C 168.870 98.995,156.135 99.042,171.700 99.100 M263.350 102.516 C 263.318 104.045,263.348 104.100,263.685 103.115 C 263.890 102.517,263.906 101.761,263.721 101.431 C 263.496 101.028,263.374 101.385,263.350 102.516 M136.868 104.600 C 136.862 105.040,137.011 105.760,137.200 106.200 C 137.638 107.219,137.638 106.168,137.200 104.800 C 136.943 103.996,136.877 103.957,136.868 104.600 M260.971 107.689 C 260.327 108.393,260.159 108.706,260.598 108.385 C 261.853 107.466,262.511 106.778,262.318 106.585 C 262.221 106.488,261.615 106.985,260.971 107.689 M137.602 107.494 C 137.605 107.982,139.507 110.221,139.731 110.000 C 139.843 109.890,139.409 109.212,138.767 108.493 C 138.125 107.775,137.601 107.325,137.602 107.494 M258.629 112.629 C 258.481 113.215,258.438 113.772,258.532 113.866 C 258.627 113.960,258.824 113.558,258.971 112.971 C 259.119 112.385,259.162 111.828,259.068 111.734 C 258.973 111.640,258.776 112.042,258.629 112.629 M140.868 114.000 C 140.888 115.039,141.518 116.746,141.532 115.800 C 141.538 115.360,141.389 114.640,141.200 114.200 C 140.989 113.710,140.861 113.632,140.868 114.000 M257.400 115.362 C 255.652 117.232,255.351 117.822,256.673 116.792 C 257.811 115.905,258.606 114.838,258.309 114.596 C 258.249 114.547,257.840 114.892,257.400 115.362 M169.500 117.489 C 170.215 117.578,171.385 117.578,172.100 117.489 C 172.815 117.401,172.230 117.328,170.800 117.328 C 169.370 117.328,168.785 117.401,169.500 117.489 M200.147 117.497 C 201.437 117.577,202.922 117.924,203.446 118.267 L 204.398 118.891 204.500 218.945 L 204.602 319.000 204.701 218.927 L 204.800 118.854 203.638 118.027 C 202.741 117.388,201.945 117.217,200.138 117.276 L 197.800 117.351 200.147 117.497 M228.300 117.489 C 229.015 117.578,230.185 117.578,230.900 117.489 C 231.615 117.401,231.030 117.328,229.600 117.328 C 228.170 117.328,227.585 117.401,228.300 117.489 M196.500 118.265 C 196.102 118.426,196.020 138.700,196.099 218.133 L 196.198 317.800 196.300 218.440 C 196.374 145.801,196.522 118.935,196.850 118.540 C 197.324 117.968,197.294 117.945,196.500 118.265 M165.467 118.667 C 165.320 118.813,165.200 163.320,165.200 217.569 C 165.200 278.358,165.055 316.711,164.822 317.524 C 164.519 318.580,164.579 318.983,165.122 319.540 C 165.495 319.923,166.408 320.993,167.152 321.918 C 168.471 323.559,172.604 324.482,173.339 323.300 C 173.442 323.135,172.373 323.060,170.963 323.134 C 169.553 323.208,168.400 323.111,168.400 322.920 C 168.400 322.728,167.677 321.768,166.794 320.786 C 165.478 319.322,165.241 318.819,165.481 318.000 C 165.745 317.096,166.107 118.400,165.844 118.400 C 165.783 118.400,165.613 118.520,165.467 118.667 M142.005 119.100 C 142.007 119.265,142.459 120.187,143.009 121.149 L 144.009 122.897 143.995 224.106 C 143.988 279.771,144.074 325.407,144.186 325.520 C 144.299 325.632,144.394 280.065,144.398 224.259 L 144.404 122.794 143.360 120.797 C 142.368 118.899,141.994 118.431,142.005 119.100 M174.597 219.200 C 174.597 274.530,174.643 297.165,174.700 269.500 C 174.757 241.835,174.757 196.565,174.700 168.900 C 174.643 141.235,174.597 163.870,174.597 219.200 M235.797 217.800 C 235.797 272.360,235.843 294.621,235.900 267.268 C 235.957 239.915,235.957 195.275,235.900 168.068 C 235.843 140.861,235.797 163.240,235.797 217.800 M254.251 122.100 C 253.980 123.111,253.968 325.637,254.240 324.979 C 254.389 324.620,254.695 121.200,254.547 121.200 C 254.517 121.200,254.384 121.605,254.251 122.100 M203.400 321.200 L 202.387 323.200 200.206 323.200 C 198.239 323.200,197.967 323.092,197.429 322.100 C 196.719 320.792,196.603 321.130,197.264 322.581 C 197.688 323.512,197.941 323.600,200.181 323.600 L 202.633 323.600 203.712 321.400 C 204.306 320.190,204.706 319.200,204.602 319.200 C 204.498 319.200,203.957 320.100,203.400 321.200 M234.986 320.142 C 232.014 323.276,227.663 324.488,226.990 322.370 C 226.846 321.913,226.639 321.628,226.531 321.736 C 226.423 321.843,226.536 322.307,226.782 322.766 C 227.514 324.133,231.584 323.967,233.274 322.500 C 235.402 320.653,236.000 320.017,236.000 319.600 C 236.000 319.092,235.965 319.111,234.986 320.142 M253.383 326.924 C 253.154 327.839,252.171 328.534,250.000 329.320 C 249.573 329.474,249.631 329.546,250.200 329.567 C 251.923 329.632,254.725 326.992,253.856 326.123 C 253.737 326.003,253.524 326.364,253.383 326.924 M144.425 326.845 C 144.397 327.574,146.272 329.607,146.955 329.587 C 147.200 329.580,146.889 329.194,146.265 328.729 C 145.641 328.264,144.978 327.504,144.791 327.041 C 144.549 326.443,144.443 326.386,144.425 326.845 M172.931 329.900 C 186.973 329.958,209.833 329.958,223.731 329.900 C 237.629 329.842,226.140 329.794,198.200 329.794 C 170.260 329.794,158.889 329.842,172.931 329.900 M176.100 337.500 C 189.465 337.558,211.335 337.558,224.700 337.500 C 238.065 337.442,227.130 337.394,200.400 337.394 C 173.670 337.394,162.735 337.442,176.100 337.500 M145.863 338.653 C 145.017 339.206,144.431 339.764,144.560 339.894 C 144.689 340.023,145.156 339.802,145.597 339.402 C 146.039 339.003,147.255 338.446,148.300 338.165 C 150.121 337.675,150.142 337.654,148.800 337.651 C 147.974 337.648,146.770 338.059,145.863 338.653 M252.142 338.043 C 252.990 338.242,254.215 338.783,254.865 339.246 C 255.514 339.709,256.140 339.994,256.254 339.879 C 256.662 339.471,252.910 337.601,251.765 337.640 C 250.712 337.677,250.748 337.715,252.142 338.043 M140.635 341.463 C 139.412 342.125,137.600 343.776,137.600 344.228 C 137.600 344.374,138.289 343.887,139.132 343.147 C 139.974 342.406,141.009 341.586,141.432 341.324 C 142.551 340.629,141.995 340.726,140.635 341.463 M259.664 341.609 C 260.469 342.034,261.609 342.971,262.197 343.691 C 263.004 344.680,263.144 344.758,262.769 344.008 C 262.029 342.526,259.669 340.754,258.520 340.818 C 258.344 340.827,258.859 341.183,259.664 341.609 M264.400 349.038 C 264.400 349.169,264.731 349.754,265.135 350.338 C 265.539 350.922,265.993 351.741,266.144 352.157 C 266.295 352.574,266.526 352.807,266.658 352.675 C 266.790 352.544,266.418 351.618,265.832 350.618 C 264.847 348.937,264.400 348.444,264.400 349.038 M134.906 351.267 C 134.300 352.374,134.221 352.715,134.653 352.356 C 135.257 351.855,136.149 350.015,135.906 349.772 C 135.841 349.708,135.392 350.381,134.906 351.267 M390.931 354.600 C 390.933 356.140,391.005 356.721,391.092 355.891 C 391.179 355.061,391.177 353.801,391.089 353.091 C 391.000 352.381,390.929 353.060,390.931 354.600 M125.400 353.600 L 118.600 353.829 125.276 353.915 C 129.391 353.967,132.048 353.846,132.200 353.600 C 132.336 353.380,132.392 353.238,132.324 353.285 C 132.256 353.332,129.140 353.474,125.400 353.600 M268.349 353.710 C 268.520 353.881,271.617 353.970,275.230 353.909 L 281.800 353.798 274.919 353.599 C 271.134 353.490,268.178 353.540,268.349 353.710 M282.708 354.800 C 283.180 355.240,283.692 355.600,283.845 355.600 C 283.999 355.600,283.798 355.240,283.400 354.800 C 283.002 354.360,282.490 354.000,282.263 354.000 C 282.035 354.000,282.236 354.360,282.708 354.800 M284.262 357.400 C 284.396 358.280,284.572 359.075,284.653 359.167 C 284.956 359.510,284.729 357.368,284.381 356.600 C 284.129 356.042,284.093 356.285,284.262 357.400 M390.235 359.300 C 390.057 360.125,389.772 360.800,389.602 360.800 C 389.211 360.800,387.424 365.157,387.701 365.435 C 387.815 365.548,388.114 365.047,388.367 364.320 C 388.620 363.594,389.282 362.313,389.838 361.472 C 390.469 360.518,390.794 359.543,390.703 358.872 C 390.571 357.897,390.529 357.935,390.235 359.300 M115.767 366.200 C 115.767 370.380,115.826 372.036,115.898 369.879 C 115.971 367.723,115.970 364.303,115.898 362.279 C 115.825 360.256,115.766 362.020,115.767 366.200 M12.475 364.600 C 12.486 365.040,12.632 365.940,12.800 366.600 L 13.105 367.800 13.125 366.600 C 13.135 365.940,12.989 365.040,12.800 364.600 L 12.456 363.800 12.475 364.600 M387.022 367.822 C 386.872 368.625,386.828 369.362,386.926 369.460 C 387.024 369.557,387.227 368.981,387.378 368.178 C 387.528 367.375,387.572 366.638,387.474 366.540 C 387.376 366.443,387.173 367.019,387.022 367.822 M385.246 371.870 C 383.790 373.456,382.390 375.754,382.418 376.512 C 382.428 376.780,382.833 376.249,383.318 375.332 C 383.803 374.415,384.802 373.006,385.537 372.202 C 386.272 371.398,386.804 370.671,386.719 370.586 C 386.635 370.501,385.971 371.079,385.246 371.870 M15.634 372.247 C 16.165 372.933,16.680 373.423,16.779 373.335 C 16.877 373.247,16.443 372.686,15.813 372.088 L 14.669 371.000 15.634 372.247 M283.819 375.016 C 283.409 375.777,282.922 376.400,282.737 376.400 C 282.552 376.400,282.400 376.602,282.400 376.849 C 282.400 377.541,283.555 376.447,284.256 375.092 C 284.588 374.450,284.793 373.859,284.712 373.779 C 284.631 373.698,284.229 374.254,283.819 375.016 M16.800 374.149 C 16.800 374.613,18.361 377.529,18.732 377.758 C 18.922 377.875,18.655 377.138,18.139 376.120 C 17.171 374.207,16.800 373.661,16.800 374.149 M117.600 376.580 C 117.600 378.031,115.795 378.000,200.148 378.000 C 244.921 378.000,281.636 377.865,281.738 377.700 C 281.840 377.535,245.248 377.400,200.423 377.400 C 131.933 377.400,118.817 377.312,118.261 376.851 C 117.898 376.549,117.600 376.427,117.600 376.580 M21.475 380.195 C 22.534 381.402,23.554 382.392,23.742 382.395 C 23.930 382.398,23.712 381.995,23.257 381.500 C 22.803 381.005,21.902 380.015,21.255 379.300 C 20.608 378.585,19.960 378.000,19.814 378.000 C 19.669 378.000,20.416 378.988,21.475 380.195 M24.400 382.592 C 24.400 382.697,25.075 383.137,25.900 383.568 C 26.725 384.000,27.975 384.904,28.678 385.576 C 29.381 386.249,30.086 386.800,30.245 386.800 C 30.788 386.800,27.802 384.146,26.277 383.272 C 24.708 382.374,24.400 382.262,24.400 382.592 M373.569 383.713 C 371.732 385.132,370.320 386.453,370.475 386.608 C 370.572 386.705,371.284 386.202,372.059 385.492 C 372.833 384.781,373.812 383.986,374.233 383.724 C 374.655 383.461,374.820 383.242,374.600 383.236 C 374.380 383.230,373.916 383.445,373.569 383.713 M31.400 387.181 C 32.168 387.529,34.310 387.756,33.967 387.453 C 33.875 387.372,33.080 387.196,32.200 387.062 C 31.085 386.893,30.842 386.929,31.400 387.181 M367.800 387.200 C 366.693 387.482,366.677 387.509,367.600 387.547 C 368.150 387.569,368.870 387.413,369.200 387.200 C 369.881 386.760,369.529 386.760,367.800 387.200 M35.400 388.000 C 36.596 388.514,37.595 388.514,36.800 388.000 C 36.470 387.787,35.840 387.622,35.400 387.634 L 34.600 387.656 35.400 388.000 M362.500 388.464 C 361.565 388.918,360.800 389.449,360.800 389.644 C 360.800 389.840,360.305 390.013,359.700 390.028 C 357.907 390.074,356.682 390.737,358.326 390.772 C 359.550 390.798,361.121 390.245,361.600 389.619 C 361.860 389.280,364.372 388.134,365.400 387.886 C 366.049 387.729,366.011 387.688,365.200 387.666 C 364.650 387.652,363.435 388.011,362.500 388.464 M38.200 389.055 C 39.436 390.028,41.458 390.803,42.687 390.773 C 43.671 390.750,43.615 390.688,42.200 390.240 C 41.320 389.962,40.024 389.434,39.320 389.067 C 37.717 388.232,37.146 388.226,38.200 389.055 M47.705 391.087 C 48.314 391.179,49.214 391.177,49.705 391.082 C 50.197 390.987,49.700 390.911,48.600 390.914 C 47.500 390.917,47.097 390.995,47.705 391.087 M353.107 391.090 C 353.826 391.179,354.906 391.177,355.507 391.086 C 356.108 390.995,355.520 390.922,354.200 390.924 C 352.880 390.926,352.388 391.001,353.107 391.090 " stroke="none" fill="#b4b4b4" fill-rule="evenodd"></path><path id="path3" d="M39.118 8.290 C 38.221 8.385,37.179 8.872,36.480 9.523 C 35.149 10.764,33.077 11.600,31.331 11.600 C 28.969 11.600,26.838 12.653,26.294 14.089 C 26.151 14.468,24.954 15.260,23.635 15.849 C 21.814 16.661,21.140 17.196,20.835 18.071 C 20.334 19.508,19.745 20.093,18.134 20.751 C 17.325 21.082,16.697 21.725,16.392 22.534 C 15.386 25.202,14.594 26.388,13.523 26.832 C 12.407 27.294,11.607 29.068,11.602 31.094 C 11.598 32.801,10.634 35.599,9.978 35.807 C 8.107 36.401,8.208 27.772,8.081 198.200 C 7.954 368.302,7.906 362.766,9.539 364.404 C 10.744 365.611,11.600 367.701,11.600 369.431 C 11.600 372.032,12.811 374.400,14.142 374.400 C 14.488 374.400,15.263 375.503,15.971 377.000 C 16.880 378.925,17.407 379.600,17.999 379.600 C 18.901 379.600,20.400 380.926,20.400 381.725 C 20.400 382.471,21.914 384.000,22.654 384.000 C 23.531 384.000,25.600 385.545,25.600 386.200 C 25.600 386.958,27.728 388.398,28.862 388.408 C 31.409 388.429,33.794 389.422,34.364 390.700 C 34.675 391.395,35.215 392.107,35.564 392.282 C 36.675 392.837,362.773 392.834,364.395 392.278 C 365.251 391.985,365.847 391.491,365.938 391.000 C 366.190 389.636,366.738 389.301,369.514 388.812 C 373.251 388.153,374.370 387.659,374.650 386.545 C 374.930 385.428,376.589 384.140,378.003 383.940 C 378.685 383.844,379.254 383.303,379.816 382.218 C 380.336 381.214,381.214 380.336,382.218 379.817 C 383.372 379.219,383.833 378.710,383.923 377.932 C 384.066 376.696,385.313 375.290,387.127 374.319 C 388.310 373.685,388.400 373.488,388.400 371.532 C 388.400 368.601,389.437 366.000,390.605 366.000 C 391.099 366.000,391.749 365.702,392.051 365.339 C 392.775 364.467,393.117 38.779,392.397 36.286 C 392.051 35.091,391.719 34.724,390.818 34.544 C 389.435 34.267,388.400 31.964,388.400 29.162 C 388.400 27.275,387.362 25.600,386.194 25.600 C 385.527 25.600,384.377 23.981,383.800 22.231 C 383.534 21.422,383.001 20.881,382.206 20.609 C 380.718 20.099,379.789 19.200,379.468 17.958 C 379.294 17.282,378.539 16.684,376.910 15.928 C 375.277 15.170,374.452 14.513,374.094 13.689 C 373.562 12.465,371.618 11.600,369.400 11.600 C 367.567 11.600,365.195 10.716,363.979 9.580 C 363.349 8.992,362.151 8.397,361.317 8.259 C 359.709 7.994,41.647 8.024,39.118 8.290 M357.894 10.454 C 358.942 10.704,360.700 11.220,361.800 11.600 C 364.430 12.509,367.369 13.200,368.605 13.200 C 369.189 13.200,370.204 13.771,371.069 14.587 C 371.878 15.350,373.534 16.461,374.751 17.056 C 375.967 17.651,377.733 18.975,378.675 19.999 C 379.618 21.022,380.842 22.101,381.395 22.397 C 381.948 22.693,382.400 23.164,382.400 23.445 C 382.400 24.251,384.008 26.870,385.443 28.400 C 386.277 29.290,386.924 30.529,387.218 31.800 C 388.128 35.733,388.581 37.026,389.694 38.862 L 390.822 40.723 390.816 200.393 L 390.810 360.062 389.994 361.208 C 388.800 362.885,387.969 365.043,387.320 368.151 C 386.897 370.175,386.430 371.231,385.548 372.151 C 384.890 372.838,383.821 374.431,383.175 375.690 C 382.433 377.133,381.559 378.207,380.811 378.594 C 380.157 378.932,379.202 379.828,378.687 380.586 C 378.141 381.389,376.761 382.481,375.376 383.206 C 374.069 383.889,372.587 384.888,372.082 385.426 C 370.942 386.641,369.180 387.391,366.667 387.732 C 364.867 387.976,362.058 389.022,361.600 389.619 C 360.696 390.799,358.650 390.814,200.650 390.811 C 92.067 390.809,41.328 390.677,40.584 390.394 C 39.985 390.166,39.024 389.649,38.448 389.245 C 37.871 388.841,36.410 388.289,35.200 388.020 C 30.668 387.012,29.881 386.711,28.525 385.471 C 27.760 384.772,26.294 383.743,25.267 383.184 C 22.543 381.702,18.104 377.129,17.000 374.668 C 16.490 373.531,15.461 372.034,14.715 371.342 C 13.513 370.228,13.297 369.702,12.825 366.742 C 12.532 364.904,12.032 362.887,11.715 362.259 C 9.923 358.720,10.009 366.852,10.004 200.446 C 10.001 85.273,10.120 43.055,10.451 41.846 C 10.699 40.941,11.211 39.480,11.590 38.600 C 11.969 37.720,12.510 35.560,12.793 33.800 C 13.269 30.833,13.434 30.475,15.053 28.886 C 16.014 27.943,16.800 26.919,16.800 26.609 C 16.800 25.839,18.430 23.081,19.141 22.647 C 19.460 22.452,20.548 21.446,21.560 20.411 C 23.687 18.235,25.662 16.800,26.528 16.800 C 26.861 16.800,27.966 16.024,28.985 15.075 C 30.639 13.534,31.166 13.295,33.903 12.835 C 35.589 12.551,38.506 11.808,40.384 11.182 L 43.800 10.044 199.894 10.022 C 315.083 10.006,356.488 10.119,357.894 10.454 M120.200 23.463 C 114.862 23.778,108.070 25.303,106.822 26.465 C 106.376 26.881,104.973 27.787,103.705 28.479 C 101.649 29.600,100.484 30.559,99.665 31.802 C 99.519 32.024,98.729 32.705,97.909 33.316 C 97.089 33.927,95.933 35.276,95.340 36.314 C 94.747 37.351,93.778 38.692,93.186 39.294 C 92.151 40.346,90.800 44.088,90.800 45.903 C 90.800 46.370,90.620 46.864,90.400 47.000 C 90.180 47.136,90.000 47.563,90.000 47.948 C 90.000 48.334,89.631 49.414,89.179 50.349 C 88.013 52.762,87.965 58.410,89.088 60.861 C 89.865 62.555,90.080 63.244,91.363 68.171 C 91.735 69.599,92.436 71.031,93.126 71.771 C 93.755 72.447,94.754 73.849,95.345 74.887 C 96.503 76.923,100.205 80.800,100.990 80.800 C 101.255 80.800,102.020 81.403,102.690 82.139 C 103.443 82.966,104.725 83.745,106.046 84.177 C 107.222 84.562,108.648 85.207,109.215 85.611 C 111.915 87.534,113.398 87.800,121.400 87.800 C 129.368 87.800,130.150 87.667,133.200 85.786 C 133.970 85.311,135.320 84.687,136.200 84.398 C 138.454 83.658,139.943 82.755,141.871 80.958 C 142.790 80.101,144.050 78.928,144.671 78.352 C 145.883 77.227,146.191 76.846,147.364 75.021 C 147.781 74.372,148.511 73.453,148.985 72.979 C 149.813 72.151,150.505 70.550,151.612 66.900 C 151.896 65.965,152.245 65.200,152.388 65.200 C 152.686 65.200,153.704 61.692,154.392 58.299 C 155.069 54.958,151.477 55.200,200.329 55.200 C 250.485 55.200,245.515 54.790,246.388 59.000 C 246.662 60.320,247.287 62.300,247.777 63.400 C 248.266 64.500,248.897 66.300,249.177 67.400 C 249.863 70.093,250.680 71.865,251.520 72.486 C 251.903 72.769,252.842 74.049,253.608 75.331 C 254.374 76.613,255.786 78.308,256.748 79.097 C 257.709 79.886,258.879 80.911,259.348 81.374 C 260.732 82.743,262.516 83.863,263.800 84.169 C 265.268 84.519,268.400 86.043,268.400 86.407 C 268.400 87.316,272.220 87.800,279.400 87.800 C 287.400 87.800,288.452 87.618,291.000 85.787 C 291.660 85.313,293.217 84.616,294.460 84.238 C 295.704 83.860,297.036 83.202,297.422 82.776 C 297.808 82.350,299.143 81.255,300.389 80.342 C 302.425 78.852,305.600 75.047,305.600 74.099 C 305.600 73.895,306.191 73.191,306.913 72.534 C 308.146 71.412,308.476 70.662,309.707 66.200 C 309.950 65.320,310.610 63.700,311.174 62.600 C 312.924 59.189,312.800 51.123,310.952 48.123 C 310.195 46.895,309.213 43.969,309.206 42.924 C 309.203 42.442,309.020 41.936,308.800 41.800 C 308.580 41.664,308.400 41.209,308.400 40.790 C 308.400 40.370,307.786 39.413,307.036 38.662 C 306.285 37.912,305.402 36.781,305.074 36.149 C 304.412 34.875,303.041 33.200,302.662 33.200 C 302.527 33.200,301.427 32.210,300.217 31.000 C 299.007 29.790,297.817 28.800,297.572 28.800 C 297.327 28.800,296.079 28.064,294.797 27.165 C 291.768 25.041,288.899 24.269,281.600 23.616 C 277.899 23.285,125.647 23.140,120.200 23.463 M288.600 25.969 C 289.480 26.277,290.830 27.004,291.600 27.586 C 292.885 28.557,295.636 29.977,297.887 30.833 C 298.389 31.024,298.800 31.382,298.800 31.630 C 298.800 32.204,301.021 34.289,301.945 34.582 C 302.332 34.705,302.984 35.565,303.393 36.494 C 303.803 37.422,304.484 38.546,304.907 38.991 C 306.799 40.982,307.910 43.083,308.191 45.200 C 308.498 47.517,309.402 51.355,309.785 51.976 C 310.352 52.893,310.029 58.417,309.257 61.034 C 308.808 62.555,308.317 64.790,308.166 66.000 C 307.860 68.450,307.163 70.088,306.092 70.876 C 305.700 71.164,304.769 72.361,304.024 73.537 C 302.480 75.972,302.688 75.746,298.819 79.200 C 295.815 81.882,293.878 83.154,292.753 83.183 C 291.929 83.205,287.875 84.855,287.569 85.293 C 286.298 87.113,274.120 86.910,270.400 85.007 C 268.472 84.020,266.817 83.398,265.182 83.045 C 263.053 82.586,256.634 76.906,254.508 73.600 C 253.730 72.390,252.690 70.993,252.198 70.496 C 251.304 69.595,250.887 68.331,249.990 63.800 C 249.728 62.480,249.367 60.950,249.187 60.400 C 249.008 59.850,248.753 58.748,248.622 57.951 C 248.367 56.404,247.599 55.366,245.996 54.400 C 244.961 53.776,160.615 53.217,156.493 53.807 C 154.097 54.150,152.848 55.370,152.194 58.006 C 151.895 59.213,151.264 61.640,150.792 63.400 C 150.320 65.160,149.843 67.050,149.731 67.600 C 149.397 69.240,148.380 71.233,147.755 71.473 C 147.433 71.596,146.898 72.224,146.565 72.867 C 145.466 74.994,143.495 77.156,140.241 79.805 C 139.163 80.682,138.083 81.580,137.841 81.800 C 137.188 82.393,135.628 83.051,133.600 83.591 C 132.610 83.854,131.080 84.481,130.200 84.985 C 126.031 87.371,116.758 87.148,111.606 84.536 C 110.173 83.809,108.706 83.212,108.346 83.207 C 105.798 83.178,98.382 76.939,96.214 73.000 C 95.609 71.900,94.620 70.550,94.017 70.000 C 89.991 66.328,90.178 45.701,94.279 41.085 C 95.019 40.252,96.024 38.722,96.512 37.685 C 97.474 35.643,98.122 34.800,98.731 34.800 C 99.218 34.800,102.000 32.047,102.000 31.565 C 102.000 31.370,103.341 30.575,104.979 29.797 C 106.618 29.019,108.463 27.964,109.079 27.451 C 110.206 26.514,111.080 26.213,114.400 25.621 C 117.886 25.000,286.791 25.338,288.600 25.969 M161.959 63.258 C 159.571 64.287,158.525 66.105,158.183 69.820 C 157.893 72.960,157.127 74.997,156.009 75.595 C 155.591 75.819,154.474 77.252,153.527 78.781 C 152.580 80.310,151.413 81.739,150.934 81.957 C 149.874 82.440,148.944 83.182,146.037 85.863 C 144.807 86.998,143.365 88.275,142.833 88.701 C 141.691 89.616,141.877 90.439,143.461 91.477 C 144.956 92.456,254.407 92.619,256.715 91.645 C 258.692 90.811,259.018 89.875,257.727 88.737 C 257.144 88.221,255.733 86.900,254.592 85.800 C 253.452 84.700,251.934 83.354,251.220 82.810 C 248.900 81.042,247.278 79.342,246.469 77.834 C 246.034 77.021,245.056 75.752,244.296 75.015 C 243.371 74.116,242.838 73.167,242.680 72.137 C 241.550 64.740,241.223 64.092,238.078 63.020 C 234.911 61.941,164.505 62.161,161.959 63.258 M236.474 64.364 C 237.831 64.898,240.350 67.436,240.567 68.489 C 241.941 75.146,242.034 75.436,243.041 76.192 C 243.605 76.615,244.394 77.600,244.794 78.381 C 245.194 79.161,245.890 80.222,246.340 80.737 C 246.790 81.252,247.212 81.809,247.279 81.974 C 247.346 82.139,248.570 83.153,250.000 84.228 C 251.430 85.302,252.667 86.341,252.749 86.538 C 253.007 87.154,255.747 89.600,256.183 89.602 C 256.413 89.604,256.070 89.881,255.423 90.219 C 253.880 91.023,147.257 91.173,145.501 90.373 L 144.475 89.906 147.137 87.370 C 148.602 85.976,150.458 84.422,151.262 83.917 C 152.066 83.413,153.326 82.106,154.062 81.013 C 154.798 79.920,155.971 78.384,156.669 77.599 C 158.087 76.004,158.883 74.117,159.590 70.676 C 160.071 68.338,162.550 64.745,164.000 64.284 C 165.148 63.919,235.540 63.997,236.474 64.364 M137.900 100.142 C 136.281 101.824,136.834 106.493,138.920 108.756 C 140.153 110.093,140.988 112.481,141.773 116.913 C 141.920 117.745,142.573 119.394,143.223 120.579 L 144.404 122.732 144.398 224.328 C 144.391 331.104,144.320 327.319,146.340 328.757 L 147.536 329.609 198.868 329.504 C 256.244 329.388,252.466 329.585,253.526 326.654 C 253.895 325.634,254.005 301.895,254.002 224.274 C 253.998 149.364,254.116 122.728,254.458 121.311 C 255.126 118.541,255.837 117.059,257.197 115.603 C 257.859 114.895,258.400 114.137,258.400 113.919 C 258.400 112.522,259.884 108.880,260.952 107.655 C 263.485 104.753,264.152 101.574,262.562 99.984 L 261.738 99.160 200.369 99.080 L 139.000 99.000 137.900 100.142 M261.458 101.322 C 262.370 102.371,262.306 102.558,259.945 105.800 C 259.143 106.900,258.355 108.430,258.194 109.200 C 257.851 110.837,256.433 114.000,256.042 114.000 C 255.482 114.000,254.378 116.426,253.111 120.443 L 251.800 124.600 252.000 224.000 L 252.200 323.400 251.300 324.891 C 250.805 325.712,250.400 326.538,250.400 326.727 C 250.400 327.944,248.096 328.000,198.030 328.000 C 158.233 328.000,147.619 327.895,147.319 327.500 C 146.018 325.784,146.000 324.351,145.994 222.754 C 145.988 116.891,146.037 120.073,144.360 118.061 C 143.361 116.862,142.840 115.459,142.198 112.239 C 141.672 109.599,140.684 107.363,139.617 106.400 C 138.525 105.413,138.177 102.110,139.062 101.131 C 139.698 100.429,142.120 100.400,200.190 100.400 L 260.656 100.400 261.458 101.322 M167.000 115.971 C 165.524 116.328,164.283 116.977,163.672 117.713 C 163.326 118.130,163.206 143.577,163.195 219.504 L 163.179 320.739 164.090 322.669 C 165.494 325.642,171.600 327.364,174.124 325.500 C 176.518 323.732,176.400 329.257,176.400 218.765 L 176.400 118.320 175.040 116.960 C 173.610 115.530,170.443 115.141,167.000 115.971 M196.641 116.209 C 194.598 117.275,194.000 118.306,194.001 120.761 C 194.002 121.993,193.997 167.142,193.992 221.093 C 193.982 313.015,194.044 320.756,194.800 321.800 C 194.959 322.020,195.207 322.690,195.350 323.289 C 195.817 325.245,197.061 326.000,199.816 326.000 C 203.710 326.000,204.421 325.592,205.923 322.493 L 207.228 319.800 207.223 219.200 L 207.218 118.600 205.798 117.348 C 203.718 115.515,199.079 114.938,196.641 116.209 M226.600 115.959 C 224.160 117.073,224.362 107.640,224.379 219.447 C 224.388 276.617,224.547 321.138,224.744 321.521 C 224.937 321.894,225.211 322.847,225.354 323.639 C 225.866 326.478,234.208 327.048,235.989 324.366 C 237.633 321.890,237.588 324.829,237.594 219.506 L 237.600 118.413 236.500 117.205 C 235.320 115.908,228.571 115.059,226.600 115.959 M174.000 118.000 C 175.182 119.182,175.240 318.064,174.059 321.400 L 173.351 323.400 170.942 323.517 C 168.539 323.634,168.529 323.630,167.166 321.936 C 166.415 321.001,165.495 319.923,165.122 319.540 C 164.579 318.983,164.519 318.580,164.822 317.524 C 165.055 316.711,165.200 278.338,165.200 217.514 L 165.200 118.823 166.900 118.026 C 169.251 116.924,172.911 116.911,174.000 118.000 M203.638 118.027 L 204.800 118.854 204.800 219.018 L 204.800 319.182 203.717 321.391 L 202.633 323.600 200.117 323.600 C 198.733 323.600,197.600 323.552,197.600 323.494 C 197.600 323.436,197.240 322.404,196.800 321.200 C 196.008 319.033,196.000 318.015,196.000 218.798 L 196.000 118.585 197.100 117.903 C 198.702 116.910,202.162 116.976,203.638 118.027 M234.739 118.168 L 236.000 118.821 236.000 219.410 C 236.000 316.217,235.973 320.026,235.271 320.700 C 232.340 323.514,232.077 323.643,229.500 323.519 L 227.035 323.400 226.319 321.400 C 225.639 319.499,225.603 314.449,225.602 219.047 L 225.600 118.694 226.500 117.903 C 227.604 116.932,232.664 117.095,234.739 118.168 M148.300 338.161 C 147.255 338.445,146.070 338.974,145.668 339.338 C 145.266 339.702,144.733 340.000,144.483 340.000 C 143.752 340.000,140.299 342.007,139.064 343.149 C 137.642 344.465,137.109 345.525,136.220 348.800 C 134.947 353.490,133.857 354.000,125.111 354.000 C 115.794 354.000,116.000 353.730,116.000 365.898 C 116.000 374.641,116.173 375.521,118.147 376.833 C 119.614 377.808,281.156 377.879,282.279 376.905 C 284.532 374.950,284.797 373.877,284.799 366.720 C 284.801 354.266,284.604 354.001,275.323 354.000 C 268.797 354.000,266.000 353.384,266.000 351.946 C 266.000 351.740,265.694 351.105,265.321 350.535 C 264.947 349.965,264.302 348.487,263.886 347.249 C 262.768 343.919,261.545 342.572,258.068 340.842 C 256.380 340.003,254.370 338.975,253.600 338.558 C 251.793 337.580,151.834 337.203,148.300 338.161 M252.287 340.700 C 253.655 341.195,255.058 341.600,255.403 341.600 C 258.315 341.600,261.688 345.174,262.765 349.400 C 264.164 354.892,265.521 355.600,274.655 355.600 C 279.735 355.600,281.637 355.732,281.874 356.100 C 283.441 358.541,283.801 372.645,282.342 374.400 L 281.510 375.400 200.226 375.400 C 120.748 375.400,118.926 375.383,118.179 374.636 C 117.130 373.587,117.087 359.552,118.124 357.100 L 118.759 355.600 125.718 355.600 C 134.832 355.600,137.576 354.337,137.609 350.126 C 137.621 348.532,138.988 345.715,140.357 344.463 C 142.614 342.399,143.128 342.080,144.856 341.666 C 145.815 341.437,147.860 340.887,149.400 340.444 C 152.145 339.655,153.164 339.640,201.000 339.719 L 249.800 339.800 252.287 340.700 " stroke="none" fill="#a4a4a4" fill-rule="evenodd"></path><path id="path4" d="M42.683 11.051 C 42.545 11.189,41.750 11.443,40.916 11.615 C 40.082 11.787,38.320 12.203,37.000 12.539 C 35.680 12.874,33.751 13.260,32.712 13.397 C 31.201 13.596,30.526 13.960,29.330 15.223 C 28.508 16.090,27.599 16.800,27.310 16.800 C 25.490 16.800,18.803 23.050,17.413 26.051 C 16.894 27.172,15.733 28.795,14.834 29.659 C 13.375 31.062,13.200 31.431,13.200 33.117 C 13.200 34.155,12.660 36.712,12.000 38.800 L 10.800 42.597 10.801 200.198 C 10.801 308.542,10.932 358.300,11.220 359.400 C 11.450 360.280,11.789 361.360,11.975 361.800 C 12.654 363.412,13.200 365.933,13.200 367.457 C 13.200 369.098,13.953 370.507,15.481 371.725 C 15.981 372.124,16.929 373.614,17.587 375.035 C 18.245 376.456,19.102 377.737,19.491 377.883 C 20.209 378.150,22.800 380.750,22.800 381.202 C 22.800 381.337,23.925 382.045,25.300 382.776 C 26.675 383.508,28.402 384.699,29.137 385.423 C 30.229 386.499,30.998 386.832,33.337 387.239 C 34.912 387.512,37.640 388.381,39.400 389.168 L 42.600 390.600 200.000 390.589 C 344.905 390.578,360.800 390.480,360.800 389.593 C 360.800 388.991,363.850 387.865,366.924 387.332 C 369.572 386.872,370.300 386.568,371.534 385.402 C 372.340 384.641,374.125 383.448,375.500 382.750 C 376.875 382.051,378.000 381.319,378.000 381.123 C 378.000 380.634,379.528 379.112,381.100 378.036 C 381.815 377.546,382.400 376.893,382.400 376.585 C 382.400 375.724,383.816 373.397,385.293 371.831 C 386.357 370.703,386.729 369.847,387.155 367.542 C 387.664 364.790,388.920 361.249,389.545 360.808 C 390.782 359.933,390.800 357.618,390.800 200.631 C 390.800 38.468,390.831 41.657,389.225 39.200 C 388.379 37.906,387.771 36.027,387.155 32.800 C 386.765 30.757,386.379 29.928,385.354 28.931 C 384.637 28.234,383.454 26.540,382.725 25.169 C 381.996 23.797,381.045 22.478,380.612 22.237 C 379.816 21.795,377.826 19.879,377.291 19.039 C 377.131 18.788,375.774 17.969,374.275 17.219 C 372.777 16.469,371.376 15.530,371.163 15.132 C 370.634 14.142,368.699 13.200,367.197 13.200 C 365.909 13.200,362.795 12.566,361.400 12.020 C 358.336 10.821,355.600 10.800,199.861 10.800 C 113.551 10.800,42.820 10.913,42.683 11.051 M363.600 13.539 C 365.470 13.832,367.541 14.145,368.202 14.235 C 369.054 14.352,369.551 14.730,369.907 15.535 C 370.402 16.652,371.010 17.075,373.416 17.973 C 374.085 18.223,375.664 19.411,376.925 20.614 C 378.187 21.816,379.296 22.800,379.391 22.800 C 379.919 22.800,381.614 24.983,382.070 26.251 C 382.621 27.783,384.068 29.562,385.334 30.263 C 385.901 30.577,386.153 31.436,386.441 34.035 C 386.803 37.308,387.299 39.617,388.052 41.541 C 388.792 43.433,388.508 357.167,387.763 359.864 C 387.134 362.143,386.739 364.238,386.210 368.103 C 385.996 369.672,385.746 370.111,384.784 370.608 C 383.613 371.214,381.600 374.832,381.600 376.331 C 381.600 376.776,381.084 377.226,380.212 377.541 C 379.448 377.817,378.419 378.618,377.925 379.322 C 376.591 381.220,376.371 381.392,374.270 382.194 C 372.037 383.047,370.400 384.228,370.400 384.986 C 370.400 385.774,369.379 386.109,365.400 386.627 C 363.420 386.885,360.762 387.388,359.493 387.745 C 356.606 388.557,44.944 388.783,41.869 387.975 C 40.951 387.734,39.570 387.372,38.800 387.172 C 38.030 386.971,35.960 386.622,34.200 386.396 C 31.131 386.001,29.645 385.186,29.609 383.878 C 29.604 383.701,28.625 383.125,27.433 382.597 C 24.439 381.273,18.901 375.783,17.776 373.022 C 17.044 371.229,16.267 370.455,14.616 369.878 C 14.405 369.805,14.096 368.227,13.930 366.372 C 13.764 364.517,13.447 361.740,13.226 360.200 C 12.686 356.449,12.677 44.049,13.216 40.400 C 13.427 38.970,13.700 36.540,13.822 35.000 C 14.140 31.002,14.312 30.400,15.138 30.400 C 16.054 30.400,17.310 29.006,18.023 27.200 C 18.875 25.038,25.755 18.409,27.967 17.618 C 29.485 17.075,30.845 15.692,31.011 14.522 C 31.021 14.450,34.803 13.931,40.600 13.206 C 45.280 12.620,359.804 12.944,363.600 13.539 M119.800 21.090 C 118.920 21.180,118.029 21.421,117.820 21.627 C 117.611 21.832,117.193 22.000,116.891 22.000 C 116.590 22.000,116.106 22.237,115.815 22.527 C 115.525 22.817,113.333 23.372,110.944 23.760 C 106.784 24.435,104.000 25.649,104.000 26.788 C 104.000 26.979,103.083 27.549,101.963 28.055 C 100.440 28.744,99.730 29.362,99.145 30.507 C 98.715 31.350,98.057 32.133,97.682 32.248 C 96.236 32.692,95.772 33.133,94.948 34.844 C 94.480 35.817,93.643 36.856,93.088 37.153 C 91.867 37.807,90.990 39.734,90.346 43.183 C 89.982 45.131,89.602 45.987,88.802 46.660 C 85.880 49.118,85.916 61.495,88.854 64.619 C 89.484 65.290,90.000 66.208,90.000 66.659 C 90.000 67.111,90.165 68.002,90.367 68.640 C 90.569 69.278,90.842 70.295,90.975 70.901 C 91.107 71.506,91.831 72.635,92.582 73.409 C 93.334 74.183,94.410 75.759,94.974 76.911 C 95.723 78.442,96.484 79.298,97.805 80.096 C 98.798 80.696,99.800 81.601,100.031 82.108 C 100.492 83.120,102.860 84.444,105.502 85.167 C 106.486 85.437,107.464 86.031,107.821 86.576 C 110.046 89.971,130.845 90.317,134.166 87.014 C 134.845 86.339,136.210 85.541,137.200 85.242 C 140.559 84.224,141.622 83.582,142.300 82.159 C 142.716 81.287,143.337 80.686,143.980 80.535 C 145.336 80.216,146.673 78.961,146.986 77.714 C 147.272 76.572,147.816 75.941,149.104 75.251 C 150.274 74.625,151.022 73.110,151.641 70.111 C 152.019 68.285,152.379 67.532,153.048 67.174 C 154.367 66.468,155.600 62.450,155.600 58.857 C 155.600 55.721,151.384 55.981,200.372 56.097 L 244.145 56.200 244.670 58.800 C 245.556 63.187,246.031 64.972,246.372 65.190 C 247.230 65.741,248.800 68.639,248.800 69.672 C 248.800 71.602,250.620 74.750,252.049 75.290 C 252.405 75.425,252.818 76.019,252.967 76.609 C 253.409 78.372,254.312 79.429,256.207 80.404 C 257.193 80.911,258.000 81.540,258.000 81.802 C 258.000 82.533,259.417 84.000,260.123 84.000 C 260.470 84.000,260.849 84.156,260.968 84.347 C 261.086 84.539,261.909 84.811,262.796 84.953 C 263.910 85.131,264.900 85.686,265.989 86.743 C 269.577 90.225,289.369 90.210,292.564 86.723 C 293.388 85.823,294.379 85.218,295.316 85.042 C 297.826 84.571,299.595 83.627,300.377 82.342 C 300.790 81.662,301.867 80.665,302.769 80.127 C 303.791 79.518,304.726 78.517,305.249 77.474 C 305.710 76.553,306.493 75.440,306.989 75.000 C 308.181 73.943,309.542 71.359,309.830 69.607 C 310.137 67.737,310.815 66.000,311.239 66.000 C 314.646 66.000,314.886 49.103,311.529 45.574 C 310.415 44.402,309.998 43.618,309.994 42.683 C 309.983 40.298,308.268 36.800,307.109 36.800 C 306.519 36.800,305.600 35.712,305.600 35.014 C 305.600 33.867,304.370 32.457,303.133 32.185 C 302.272 31.996,301.770 31.547,301.382 30.619 C 300.838 29.316,299.291 28.000,298.304 28.000 C 298.016 28.000,297.043 27.217,296.142 26.260 C 294.939 24.980,294.093 24.455,292.952 24.277 C 292.099 24.144,290.154 23.844,288.631 23.610 C 287.108 23.375,285.602 22.968,285.285 22.704 C 283.170 20.949,286.600 21.020,201.600 20.972 C 157.490 20.947,120.680 21.000,119.800 21.090 M282.200 23.381 C 290.464 24.459,293.026 25.104,294.416 26.458 C 295.535 27.547,297.528 28.800,298.142 28.800 C 298.482 28.800,299.444 29.625,300.280 30.634 C 301.116 31.642,302.274 32.716,302.854 33.020 C 303.434 33.324,304.412 34.434,305.029 35.487 C 305.645 36.539,306.579 37.739,307.105 38.153 C 308.188 39.006,308.573 39.868,309.598 43.725 C 309.996 45.224,310.580 46.754,310.895 47.125 C 313.138 49.765,313.419 59.551,311.357 63.200 C 310.673 64.410,309.891 66.300,309.618 67.400 C 308.836 70.562,308.412 71.457,307.175 72.559 C 306.539 73.126,305.904 74.043,305.765 74.595 C 305.627 75.148,305.365 75.600,305.184 75.600 C 305.002 75.600,304.734 75.977,304.588 76.437 C 304.341 77.216,301.281 80.400,300.780 80.400 C 300.656 80.400,299.732 81.165,298.727 82.100 C 297.449 83.289,296.175 84.014,294.489 84.512 C 293.163 84.904,291.850 85.499,291.572 85.834 C 288.639 89.368,270.935 89.428,267.043 85.917 C 266.626 85.541,265.227 84.905,263.934 84.503 C 262.517 84.062,260.849 83.142,259.735 82.186 C 255.239 78.327,253.993 77.039,253.227 75.455 C 252.777 74.526,251.816 73.119,251.092 72.328 C 250.249 71.408,249.588 70.117,249.258 68.745 C 248.678 66.337,247.967 64.300,247.602 64.000 C 247.148 63.627,246.070 60.208,245.815 58.333 C 245.675 57.306,245.272 56.226,244.919 55.933 C 243.895 55.083,156.257 55.149,155.482 56.000 C 155.181 56.330,154.711 58.005,154.438 59.723 C 153.955 62.749,153.574 63.854,151.991 66.800 C 151.577 67.570,151.230 68.493,151.219 68.851 C 151.184 70.050,149.995 72.403,148.663 73.909 C 147.938 74.729,146.956 76.045,146.481 76.834 C 146.005 77.622,145.028 78.702,144.308 79.233 C 143.589 79.764,142.425 80.787,141.721 81.505 C 140.365 82.891,136.938 84.800,135.807 84.800 C 135.435 84.800,134.381 85.338,133.465 85.996 C 128.831 89.324,114.096 89.380,109.435 86.087 C 108.536 85.452,106.905 84.688,105.811 84.389 C 104.718 84.091,103.365 83.386,102.805 82.823 C 102.245 82.260,101.070 81.266,100.194 80.613 C 97.225 78.401,94.400 74.985,94.400 73.608 C 94.400 73.238,93.961 72.700,93.424 72.413 C 92.371 71.849,91.240 69.298,90.402 65.600 C 90.128 64.390,89.581 62.770,89.188 62.000 C 87.174 58.061,87.188 53.785,89.228 49.136 C 89.907 47.589,90.554 45.665,90.665 44.861 C 90.955 42.768,92.387 39.256,93.183 38.686 C 93.557 38.419,94.379 37.300,95.011 36.200 C 95.643 35.100,96.439 34.034,96.780 33.830 C 97.121 33.627,98.446 32.412,99.724 31.130 C 101.003 29.849,102.308 28.800,102.624 28.800 C 102.941 28.800,103.200 28.620,103.200 28.400 C 103.200 28.180,103.429 28.000,103.709 28.000 C 103.989 28.000,104.844 27.487,105.609 26.861 C 107.661 25.179,110.826 24.313,118.800 23.249 C 123.678 22.598,277.148 22.722,282.200 23.381 M162.576 61.551 C 158.594 62.057,157.200 64.317,157.200 70.268 L 157.200 73.190 155.694 74.141 C 153.864 75.296,153.391 75.864,153.041 77.327 C 152.886 77.974,152.273 78.740,151.600 79.126 C 150.956 79.495,150.222 80.186,149.968 80.660 C 149.714 81.134,148.738 81.917,147.800 82.400 C 146.862 82.883,145.855 83.755,145.564 84.339 C 144.911 85.644,143.615 86.779,142.762 86.791 C 140.771 86.819,139.920 90.498,141.531 92.109 L 142.422 93.000 200.179 93.000 L 257.936 93.000 258.968 92.030 C 260.962 90.157,260.068 87.665,256.963 86.443 C 256.204 86.143,255.469 85.416,255.059 84.556 C 254.631 83.657,253.895 82.948,253.004 82.576 C 252.240 82.257,251.300 81.502,250.913 80.898 C 249.913 79.336,249.342 78.800,248.674 78.800 C 248.142 78.800,246.800 76.588,246.800 75.709 C 246.800 75.134,245.018 73.600,244.350 73.600 C 243.889 73.600,243.636 72.621,243.241 69.300 C 242.678 64.568,241.977 62.733,240.425 61.930 C 239.327 61.362,166.842 61.009,162.576 61.551 M239.180 62.952 C 239.940 63.365,240.766 63.909,241.016 64.159 C 241.564 64.706,242.800 69.984,242.800 71.774 C 242.800 72.997,243.523 74.102,245.084 75.266 C 245.478 75.560,246.238 76.610,246.773 77.600 C 247.752 79.410,249.744 81.527,251.600 82.728 C 252.150 83.084,253.478 84.326,254.550 85.488 C 255.623 86.650,256.716 87.600,256.978 87.600 C 259.590 87.600,259.189 91.115,256.467 92.080 C 254.325 92.839,146.610 92.846,144.107 92.086 C 141.328 91.244,140.881 89.234,143.170 87.881 C 143.814 87.501,145.300 86.247,146.471 85.095 C 147.642 83.943,149.474 82.405,150.543 81.678 C 151.645 80.928,152.679 79.846,152.931 79.178 C 153.175 78.530,153.494 78.000,153.639 78.000 C 153.784 78.000,154.127 77.460,154.400 76.800 C 154.673 76.140,155.028 75.600,155.187 75.600 C 156.644 75.600,157.535 73.347,158.198 67.987 C 158.605 64.703,159.908 63.300,163.400 62.384 C 166.334 61.615,237.708 62.150,239.180 62.952 M259.054 97.402 C 257.559 98.182,142.741 98.321,141.039 97.545 C 135.625 95.078,133.984 108.043,139.224 111.881 C 139.643 112.188,140.053 113.489,140.359 115.481 C 140.623 117.196,141.102 119.639,141.424 120.910 C 141.930 122.908,142.007 136.917,141.995 224.619 C 141.985 301.957,142.094 326.230,142.455 326.909 C 143.491 328.858,145.627 330.346,147.754 330.601 C 152.431 331.162,251.750 330.628,252.792 330.037 C 254.137 329.273,254.591 328.777,255.020 327.600 C 255.235 327.012,255.471 283.757,255.593 222.644 C 255.797 120.373,255.813 118.680,256.574 118.244 C 258.616 117.074,259.680 114.834,260.099 110.830 C 260.161 110.230,260.656 109.609,261.395 109.200 C 265.086 107.162,265.502 99.472,262.019 97.657 C 260.072 96.642,260.450 96.675,259.054 97.402 M261.762 99.009 C 264.699 100.402,264.286 104.935,260.921 108.237 C 260.218 108.927,259.533 110.011,259.399 110.646 C 258.629 114.290,258.184 115.353,256.937 116.532 C 254.252 119.072,254.409 112.406,254.400 224.000 C 254.393 315.980,254.294 326.554,253.427 327.956 C 252.247 329.866,254.281 329.792,199.800 329.917 C 145.457 330.043,146.989 330.080,145.495 328.586 C 143.942 327.033,143.981 329.762,143.995 223.630 L 144.009 122.917 143.029 121.158 C 142.491 120.191,141.763 118.050,141.412 116.400 C 140.429 111.780,139.933 110.413,138.797 109.197 C 136.666 106.916,135.989 101.515,137.616 99.783 L 138.537 98.803 199.169 98.700 C 232.516 98.644,259.953 98.553,260.140 98.499 C 260.326 98.444,261.057 98.674,261.762 99.009 M166.878 118.187 L 165.955 118.696 165.864 217.848 C 165.814 272.382,165.641 317.450,165.481 318.000 C 165.241 318.819,165.478 319.322,166.794 320.786 C 167.677 321.768,168.400 322.721,168.400 322.905 C 168.400 323.088,169.497 323.185,170.839 323.119 L 173.278 323.000 173.833 321.400 C 174.679 318.960,174.675 119.018,173.829 118.171 C 173.105 117.448,168.197 117.459,166.878 118.187 M196.900 118.388 C 196.384 119.215,196.108 318.217,196.621 319.847 C 197.600 322.955,197.860 323.200,200.187 323.200 L 202.387 323.200 203.396 321.207 L 204.406 319.214 204.402 219.108 L 204.397 119.001 203.498 118.309 C 202.137 117.262,197.570 117.316,196.900 118.388 M226.262 118.331 C 225.122 119.591,225.257 317.674,226.400 320.800 C 226.840 322.004,227.200 323.036,227.200 323.094 C 227.200 323.821,231.655 323.032,232.811 322.100 C 235.935 319.582,236.121 319.289,235.850 317.312 C 235.713 316.309,235.600 271.181,235.600 217.027 L 235.600 118.566 233.794 118.083 C 230.949 117.322,227.059 117.450,226.262 118.331 M173.600 219.167 C 173.600 274.589,173.491 320.219,173.357 320.567 C 172.921 321.704,169.044 321.433,168.243 320.210 C 167.727 319.422,167.127 133.849,167.591 118.700 C 167.596 118.535,168.950 118.400,170.600 118.400 L 173.600 118.400 173.600 219.167 M203.104 218.800 C 203.219 330.311,203.476 321.200,200.216 321.200 C 196.925 321.200,197.200 330.535,197.200 218.764 L 197.200 118.365 200.100 118.482 L 203.000 118.600 203.104 218.800 M233.108 118.735 C 233.516 118.994,233.618 138.338,233.630 217.228 C 233.638 271.223,233.785 316.252,233.958 317.293 C 234.223 318.898,234.167 319.220,233.588 319.404 C 233.213 319.523,232.584 319.976,232.191 320.410 C 231.032 321.690,227.482 321.537,226.864 320.181 C 226.354 319.062,226.158 119.175,226.667 118.667 C 227.044 118.289,232.496 118.346,233.108 118.735 M147.400 336.786 C 145.150 337.202,143.841 337.795,142.738 338.898 C 142.214 339.422,140.861 340.269,139.731 340.779 C 137.497 341.789,136.546 343.194,135.804 346.578 C 135.662 347.226,135.018 348.358,134.373 349.092 C 133.728 349.827,133.200 350.760,133.200 351.165 C 133.200 352.544,132.300 352.730,125.000 352.866 C 114.654 353.058,115.200 352.347,115.200 365.635 C 115.200 375.830,115.495 377.515,117.558 379.086 C 118.059 379.467,136.264 379.577,200.264 379.587 L 282.329 379.600 283.379 378.352 C 285.440 375.902,285.600 374.986,285.600 365.600 C 285.600 352.658,285.952 353.092,275.215 352.801 L 267.831 352.600 267.584 351.400 C 267.189 349.477,265.983 347.248,265.203 347.001 C 264.763 346.861,264.377 346.201,264.208 345.300 C 264.056 344.490,263.692 343.365,263.400 342.800 C 262.879 341.792,262.493 341.537,259.544 340.243 C 258.742 339.891,257.986 339.341,257.863 339.020 C 257.740 338.699,256.865 338.023,255.919 337.518 L 254.200 336.600 201.600 336.545 C 172.670 336.515,148.280 336.623,147.400 336.786 M254.600 338.599 C 255.700 339.258,257.650 340.294,258.933 340.902 C 262.082 342.395,263.005 343.503,264.179 347.200 C 265.996 352.919,267.156 353.598,275.119 353.606 C 284.858 353.615,284.798 353.541,284.799 365.720 C 284.800 374.829,284.640 375.605,282.444 377.168 L 281.277 378.000 199.992 378.000 L 118.708 378.000 117.398 376.570 C 114.906 373.849,114.671 357.752,117.082 354.943 L 118.063 353.800 125.351 353.600 C 134.563 353.347,134.600 353.326,136.374 347.400 C 137.039 345.179,137.665 343.937,138.600 342.987 C 139.424 342.150,143.044 340.000,143.630 340.000 C 143.812 340.000,144.745 339.470,145.705 338.822 C 148.040 337.246,144.748 337.331,202.400 337.368 L 252.600 337.400 254.600 338.599 " stroke="none" fill="#bcbcbc" fill-rule="evenodd"></path></g></svg>