<svg id="svg" version="1.1" xmlns="http://www.w3.org/2000/svg" xmlns:xlink="http://www.w3.org/1999/xlink" width="400" height="400" viewBox="0, 0, 400,400"><g id="svgg"><path id="path0" d="M30.386 2.768 C 28.407 3.157,28.126 3.402,27.827 4.996 C 27.580 6.315,27.470 6.400,26.010 6.400 C 24.023 6.400,23.200 7.228,23.200 9.229 L 23.200 10.800 21.200 10.800 L 19.200 10.800 19.200 12.779 L 19.200 14.758 17.100 14.879 L 15.000 15.000 14.879 17.100 L 14.758 19.200 12.779 19.200 L 10.800 19.200 10.800 21.148 L 10.800 23.096 8.951 23.304 C 6.831 23.543,6.415 24.002,6.406 26.110 C 6.401 27.473,6.281 27.644,5.173 27.865 C 4.485 28.003,3.650 28.562,3.273 29.138 C 2.153 30.847,2.242 370.720,3.362 371.958 C 3.797 372.438,4.613 372.800,5.262 372.800 C 6.315 372.800,6.400 372.914,6.400 374.338 C 6.400 376.263,7.360 377.200,9.331 377.200 L 10.800 377.200 10.800 379.200 L 10.800 381.200 12.779 381.200 L 14.758 381.200 14.879 383.300 L 15.000 385.400 17.100 385.521 L 19.200 385.642 19.200 387.621 L 19.200 389.600 21.200 389.600 L 23.200 389.600 23.200 390.967 C 23.200 393.550,23.285 393.600,27.643 393.600 L 31.600 393.600 31.600 395.336 C 31.600 396.808,31.755 397.142,32.619 397.536 C 34.411 398.352,367.354 398.189,368.171 397.371 C 368.528 397.015,368.800 396.068,368.800 395.185 L 368.800 393.628 372.900 393.514 L 377.000 393.400 377.120 391.553 L 377.239 389.706 379.868 389.495 C 382.794 389.260,384.513 388.307,384.736 386.795 C 384.897 385.706,385.405 385.165,386.883 384.512 C 388.272 383.897,389.600 381.167,389.600 378.925 C 389.600 377.228,389.622 377.200,390.967 377.200 C 393.550 377.200,393.600 377.115,393.600 372.757 L 393.600 368.800 395.171 368.800 C 396.067 368.800,397.013 368.530,397.371 368.171 C 398.189 367.354,398.352 34.411,397.536 32.619 C 397.142 31.755,396.808 31.600,395.336 31.600 L 393.600 31.600 393.600 27.643 C 393.600 23.285,393.550 23.200,390.967 23.200 L 389.600 23.200 389.600 21.200 L 389.600 19.200 387.621 19.200 L 385.642 19.200 385.521 17.100 L 385.400 15.000 383.300 14.879 L 381.200 14.758 381.200 12.779 L 381.200 10.800 379.200 10.800 L 377.200 10.800 377.200 9.080 C 377.200 6.919,376.681 6.400,374.520 6.400 C 372.902 6.400,372.800 6.334,372.800 5.276 C 372.800 4.659,372.545 3.804,372.232 3.376 C 371.650 2.580,34.389 1.979,30.386 2.768 M359.575 7.617 C 364.381 8.110,365.464 8.464,366.042 9.732 C 366.519 10.780,369.142 11.590,372.131 11.613 C 374.019 11.627,375.197 12.329,375.206 13.444 C 375.218 14.869,376.686 16.000,378.525 16.000 C 379.263 16.000,379.621 16.319,379.985 17.300 C 380.803 19.509,381.035 19.774,382.390 20.051 C 383.853 20.351,384.385 20.952,384.394 22.318 C 384.402 23.464,386.087 25.200,387.192 25.200 C 388.195 25.200,388.629 26.218,388.995 29.426 C 389.398 32.961,389.511 33.200,390.778 33.200 C 391.396 33.200,392.109 33.449,392.361 33.753 C 392.707 34.170,393.096 324.609,392.806 365.895 C 392.801 366.629,392.511 366.837,391.195 367.047 C 389.439 367.328,389.435 367.337,389.002 371.200 C 388.600 374.789,388.444 375.127,387.063 375.423 C 385.316 375.796,384.862 376.252,384.558 377.940 C 384.214 379.856,383.736 380.400,382.400 380.400 C 381.079 380.400,380.517 380.995,380.335 382.585 C 380.219 383.604,379.952 383.841,378.423 384.282 C 376.328 384.885,375.942 385.216,375.371 386.899 C 374.925 388.209,372.640 389.173,369.933 389.192 C 368.281 389.204,367.600 389.606,367.600 390.566 C 367.600 391.051,367.374 391.756,367.099 392.133 C 366.590 392.828,35.646 393.253,33.843 392.561 C 33.473 392.419,33.200 391.858,33.200 391.237 C 33.200 389.786,32.520 389.202,30.820 389.192 C 27.908 389.176,25.473 388.258,25.151 387.054 C 24.711 385.409,24.073 384.830,22.174 384.352 C 20.668 383.973,20.420 383.748,20.125 382.500 C 19.779 381.038,19.519 380.806,17.300 379.985 C 16.322 379.622,16.000 379.262,16.000 378.532 C 16.000 376.821,14.897 375.200,13.734 375.200 C 12.459 375.200,11.630 374.196,11.613 372.633 C 11.577 369.329,10.747 366.473,9.751 366.223 C 7.097 365.557,7.199 372.247,7.207 200.316 C 7.214 30.450,7.145 35.417,9.540 34.425 C 10.802 33.902,11.593 31.795,11.613 28.906 C 11.627 26.717,12.198 25.766,13.727 25.383 C 14.838 25.104,15.842 23.494,16.077 21.615 C 16.171 20.864,16.509 20.567,17.498 20.366 C 19.270 20.005,19.921 19.377,20.413 17.553 C 20.750 16.301,21.015 16.000,21.783 16.000 C 23.186 16.000,25.195 14.724,25.197 13.831 C 25.202 12.349,26.368 11.600,28.668 11.600 C 31.462 11.600,33.846 10.835,34.425 9.752 C 35.107 8.478,36.219 8.062,40.000 7.665 C 45.012 7.138,354.454 7.091,359.575 7.617 M194.400 55.328 C 192.541 55.815,190.000 57.159,190.000 57.654 C 190.000 57.809,189.235 58.117,188.300 58.339 C 182.758 59.656,180.706 60.303,179.913 60.982 C 178.873 61.873,175.556 63.200,174.371 63.200 C 173.439 63.200,169.504 64.409,169.200 64.789 C 168.426 65.756,166.078 66.816,163.000 67.587 C 161.020 68.082,158.770 68.886,158.000 69.372 C 156.232 70.489,155.638 70.718,152.200 71.619 C 147.690 72.800,147.425 72.901,146.901 73.635 C 146.303 74.470,143.925 75.356,140.468 76.029 C 139.075 76.301,137.365 76.941,136.668 77.451 C 134.578 78.982,133.402 79.416,128.234 80.565 C 126.933 80.855,125.658 81.380,125.401 81.732 C 124.813 82.536,121.446 84.000,120.186 84.000 C 118.922 84.000,115.516 85.342,114.351 86.299 C 113.494 87.002,109.640 88.400,108.556 88.400 C 107.185 88.400,104.424 89.509,103.173 90.561 C 102.538 91.095,101.430 91.653,100.710 91.800 C 97.409 92.474,93.711 93.772,92.725 94.602 C 91.589 95.558,88.517 96.605,85.777 96.969 C 84.111 97.191,81.791 98.167,81.391 98.815 C 80.965 99.503,78.332 100.461,73.717 101.605 C 72.791 101.834,71.913 102.217,71.766 102.456 C 71.314 103.187,67.256 104.800,65.869 104.800 C 65.149 104.800,64.389 104.943,64.180 105.118 C 63.971 105.293,63.080 105.675,62.200 105.966 C 61.320 106.257,60.240 106.811,59.800 107.196 C 59.052 107.850,57.172 108.494,52.761 109.606 C 51.749 109.861,50.445 110.479,49.863 110.980 C 48.616 112.051,46.556 112.827,42.302 113.830 C 40.065 114.356,39.139 114.762,38.972 115.288 C 38.845 115.689,37.877 116.454,36.820 116.990 C 34.719 118.055,34.592 118.244,34.190 120.928 C 33.924 122.700,34.554 126.463,35.282 127.449 C 35.991 128.409,40.442 129.235,45.884 129.416 C 48.918 129.517,52.120 129.775,53.000 129.990 C 55.324 130.558,342.595 130.542,350.800 129.974 C 363.521 129.094,365.930 128.313,366.068 125.025 C 366.278 120.007,365.736 118.482,363.343 117.346 C 362.537 116.964,361.590 116.145,361.238 115.528 C 360.887 114.910,360.396 114.404,360.146 114.403 C 359.896 114.401,358.816 114.142,357.746 113.826 C 356.676 113.511,354.946 113.038,353.903 112.775 C 352.860 112.513,351.514 111.841,350.912 111.283 C 350.169 110.595,348.490 109.915,345.695 109.172 C 341.850 108.149,341.042 107.791,339.674 106.501 C 339.382 106.226,338.662 105.898,338.072 105.773 C 337.482 105.647,336.587 105.377,336.081 105.172 C 335.576 104.968,334.709 104.800,334.156 104.800 C 333.134 104.800,328.800 102.876,328.800 102.422 C 328.800 102.286,327.945 101.942,326.900 101.657 C 325.855 101.373,324.587 100.974,324.081 100.770 C 323.576 100.567,322.766 100.387,322.281 100.371 C 321.797 100.355,320.938 100.040,320.374 99.671 C 319.810 99.302,318.745 98.606,318.007 98.124 C 317.270 97.642,315.932 97.140,315.034 97.009 C 311.279 96.460,308.320 95.324,307.200 94.002 C 307.090 93.873,306.190 93.530,305.200 93.242 C 304.210 92.953,302.987 92.555,302.481 92.358 C 301.976 92.161,301.202 92.000,300.761 92.000 C 299.776 92.000,297.507 90.874,297.101 90.183 C 296.801 89.673,294.484 88.910,290.407 87.979 C 289.201 87.704,287.386 86.969,286.374 86.346 C 284.611 85.261,282.790 84.603,278.746 83.587 C 277.727 83.331,276.340 82.617,275.663 81.999 C 274.924 81.324,273.749 80.764,272.717 80.596 C 268.509 79.910,265.809 79.001,264.305 77.762 C 263.229 76.875,260.509 75.944,257.451 75.414 C 255.702 75.111,254.511 74.525,253.558 73.501 C 253.200 73.116,251.218 72.368,249.154 71.838 C 244.506 70.646,244.089 70.491,242.600 69.411 C 241.940 68.932,240.500 68.316,239.400 68.041 C 234.858 66.908,232.993 66.229,232.176 65.412 C 231.695 64.931,230.093 64.242,228.556 63.855 C 223.074 62.475,222.576 62.296,221.021 61.157 C 220.153 60.521,219.176 60.000,218.850 60.000 C 218.524 60.000,217.704 59.830,217.028 59.622 C 216.353 59.414,214.720 58.937,213.400 58.561 C 212.080 58.186,210.499 57.463,209.888 56.955 C 207.683 55.124,198.755 54.186,194.400 55.328 M55.720 133.401 C 55.227 133.746,54.251 135.578,53.429 137.701 C 50.259 145.890,50.749 146.193,67.205 146.218 C 73.698 146.228,79.243 146.379,79.527 146.555 C 80.453 147.127,109.255 147.343,112.911 146.805 C 116.787 146.235,137.658 146.219,163.400 146.767 C 174.825 147.011,181.204 146.998,182.400 146.731 C 184.844 146.184,215.482 146.217,218.600 146.770 C 221.736 147.326,246.926 147.317,250.600 146.759 C 254.408 146.180,285.219 146.168,287.600 146.745 C 290.326 147.405,317.171 147.336,320.035 146.661 C 321.705 146.268,324.957 146.182,332.887 146.320 C 344.278 146.519,347.212 146.153,348.308 144.399 C 349.390 142.666,346.859 134.927,344.720 133.429 C 343.378 132.489,57.061 132.462,55.720 133.401 M175.600 149.656 C 174.830 149.871,173.227 150.223,172.037 150.439 C 170.847 150.655,169.767 150.895,169.637 150.973 C 169.507 151.052,165.440 150.969,160.600 150.788 C 148.861 150.352,148.006 150.613,147.025 154.934 C 146.629 156.678,147.118 157.574,148.843 158.264 C 151.115 159.173,151.502 159.912,151.157 162.680 C 150.730 166.100,150.761 279.697,151.190 283.000 C 151.600 286.162,151.292 287.002,149.354 288.004 C 147.800 288.807,147.360 289.260,147.005 290.419 C 146.650 291.582,145.653 292.795,145.038 292.813 C 143.704 292.851,143.392 293.776,143.624 297.000 C 143.816 299.655,143.909 299.983,144.172 298.926 C 144.656 296.985,144.447 297.004,166.153 296.937 C 187.874 296.870,186.897 296.962,187.440 294.926 C 187.714 293.902,186.099 291.381,183.737 289.145 C 182.892 288.345,181.779 287.224,181.265 286.653 L 180.331 285.615 180.380 225.308 C 180.428 166.980,180.404 164.924,179.666 162.694 L 178.904 160.388 180.252 159.749 C 180.993 159.397,181.600 158.981,181.600 158.825 C 181.600 158.669,182.406 158.139,183.391 157.647 C 185.767 156.461,185.767 156.462,183.965 154.410 C 183.104 153.430,182.400 152.341,182.400 151.990 C 182.400 150.960,180.859 149.600,179.684 149.595 C 179.088 149.592,178.240 149.516,177.800 149.427 C 177.360 149.337,176.370 149.441,175.600 149.656 M91.845 149.889 C 91.686 150.047,89.193 150.182,86.305 150.189 L 81.054 150.200 80.697 151.571 C 80.501 152.326,79.825 153.692,79.195 154.607 L 78.050 156.272 79.725 157.664 C 80.646 158.430,81.996 159.313,82.724 159.628 C 83.854 160.116,84.012 160.347,83.796 161.200 C 82.894 164.778,82.779 173.121,82.897 225.987 C 82.991 267.849,83.147 283.348,83.487 284.311 C 83.936 285.582,83.904 285.650,82.416 286.590 C 81.572 287.123,80.370 288.271,79.744 289.141 C 79.119 290.011,78.155 291.029,77.603 291.402 C 75.634 292.733,75.144 293.770,75.702 295.430 L 76.200 296.914 96.800 296.957 C 112.501 296.990,117.608 297.119,118.275 297.501 C 119.108 297.977,119.164 297.916,119.415 296.240 C 119.716 294.233,119.388 292.800,118.628 292.800 C 117.914 292.800,116.000 290.827,116.000 290.091 C 116.000 289.509,114.242 287.613,113.679 287.587 C 111.827 287.503,111.929 291.151,111.958 225.931 C 111.973 192.639,111.837 164.240,111.657 162.821 C 111.321 160.183,112.184 158.400,113.797 158.400 C 116.969 158.400,116.282 152.463,112.889 150.560 C 111.165 149.593,92.729 149.004,91.845 149.889 M219.500 150.065 C 218.851 150.302,218.400 150.765,218.400 151.193 C 218.400 151.593,217.778 152.844,217.018 153.974 C 215.742 155.870,215.520 157.200,216.481 157.200 C 216.699 157.200,217.443 157.605,218.136 158.100 C 220.767 159.981,221.531 160.078,233.400 160.036 C 239.560 160.014,245.230 160.159,246.000 160.357 C 246.927 160.596,243.200 160.732,234.962 160.759 C 221.353 160.804,222.105 160.674,220.881 163.200 C 219.682 165.676,219.600 169.516,219.600 223.108 C 219.600 275.947,219.678 279.986,220.787 284.292 C 221.093 285.480,221.011 285.652,219.760 286.425 C 219.012 286.887,218.400 287.401,218.400 287.567 C 218.400 287.733,217.163 289.176,215.651 290.774 C 212.928 293.653,212.386 295.320,213.736 296.669 C 213.849 296.782,223.197 296.903,234.509 296.937 C 250.229 296.985,255.218 297.117,255.676 297.497 C 256.173 297.910,256.353 297.822,256.737 296.978 C 257.627 295.024,257.326 293.742,255.700 292.571 C 254.875 291.976,253.864 290.781,253.453 289.915 C 253.042 289.048,252.232 288.129,251.653 287.871 C 249.116 286.740,248.789 285.999,249.211 282.332 C 249.437 280.364,249.595 256.091,249.597 223.033 C 249.600 167.842,249.507 163.351,248.321 161.072 C 247.841 160.151,249.080 158.988,251.224 158.345 C 254.523 157.357,253.914 152.426,250.268 150.609 L 248.243 149.600 234.421 149.632 C 226.249 149.650,220.150 149.827,219.500 150.065 M287.698 150.628 C 283.915 152.895,283.424 156.847,286.754 158.238 C 287.533 158.564,288.490 159.119,288.880 159.473 C 289.760 160.269,315.735 160.425,316.522 159.638 C 316.763 159.397,317.464 159.200,318.080 159.200 C 318.696 159.200,319.200 159.019,319.200 158.798 C 319.200 158.577,320.100 158.004,321.200 157.523 C 323.604 156.474,323.592 156.558,321.614 154.415 C 320.742 153.470,319.835 152.112,319.599 151.396 C 319.010 149.612,318.898 149.599,303.050 149.604 L 289.400 149.608 287.698 150.628 M289.423 161.300 C 289.339 161.575,289.075 162.412,288.835 163.160 C 288.348 164.680,288.283 282.071,288.768 284.200 C 289.121 285.750,288.330 287.016,286.389 288.005 C 285.335 288.543,284.710 289.241,284.248 290.398 C 283.827 291.448,283.096 292.324,282.197 292.855 C 280.750 293.709,280.446 294.839,281.054 297.108 C 281.259 297.872,281.395 297.936,281.910 297.508 C 282.385 297.114,287.124 296.980,302.961 296.911 C 314.203 296.862,323.603 296.817,323.851 296.811 C 325.221 296.778,325.271 292.000,323.902 292.000 C 323.736 292.000,323.600 291.782,323.600 291.515 C 323.600 291.069,318.458 286.008,318.000 286.002 C 317.890 286.001,317.800 258.865,317.800 225.700 C 317.800 162.809,317.831 164.011,316.165 162.031 L 315.129 160.800 302.352 160.800 C 292.478 160.800,289.540 160.914,289.423 161.300 M64.085 301.582 C 56.776 301.761,55.097 301.908,54.769 302.400 C 51.952 306.624,52.050 310.059,55.074 313.104 L 55.972 314.009 200.099 314.104 L 344.225 314.200 345.713 312.473 C 348.221 309.559,347.515 302.541,344.644 301.858 C 342.301 301.300,326.091 301.427,325.389 302.009 C 324.401 302.829,282.285 302.902,280.760 302.087 C 279.552 301.441,259.456 301.648,254.600 302.356 C 249.915 303.039,213.850 302.798,212.202 302.073 C 210.485 301.317,189.246 301.319,187.921 302.075 C 186.659 302.794,150.409 303.054,145.993 302.376 C 140.532 301.536,121.635 301.245,120.000 301.975 C 117.752 302.979,76.368 302.910,74.520 301.900 C 73.816 301.515,73.186 301.237,73.120 301.282 C 73.054 301.327,68.988 301.462,64.085 301.582 M55.923 316.746 C 55.128 317.880,51.798 318.399,45.280 318.406 C 42.046 318.409,39.202 318.544,38.960 318.706 C 37.624 319.598,37.743 327.768,39.123 329.899 C 39.379 330.295,72.308 330.401,200.223 330.414 L 361.000 330.431 362.100 328.735 C 363.671 326.313,363.561 321.534,361.873 318.900 C 361.639 318.534,359.811 318.397,355.076 318.390 C 347.929 318.379,345.319 317.978,344.369 316.742 C 343.760 315.951,343.671 315.944,341.855 316.561 C 339.129 317.486,61.168 317.513,58.600 316.588 C 56.565 315.855,56.546 315.856,55.923 316.746 M199.600 333.234 C 84.823 333.403,38.201 333.597,36.200 333.914 C 34.660 334.159,31.028 334.368,28.129 334.379 C 21.404 334.406,21.600 334.238,21.600 339.967 C 21.600 343.601,21.717 344.413,22.347 345.139 L 23.094 346.000 200.301 346.000 L 377.508 346.000 378.154 345.014 C 379.136 343.515,379.093 335.379,378.100 334.868 C 377.715 334.670,374.129 334.405,370.131 334.280 C 364.670 334.109,362.560 333.896,361.650 333.426 C 360.985 333.082,360.386 332.845,360.320 332.899 C 360.254 332.953,287.930 333.104,199.600 333.234 " stroke="none" fill="#161616" fill-rule="evenodd"></path><path id="path1" d="M38.400 13.072 C 36.530 13.383,34.119 13.765,33.043 13.919 C 31.701 14.112,30.946 14.450,30.643 14.994 C 29.965 16.211,28.761 17.196,27.626 17.463 C 26.223 17.794,24.702 18.986,21.347 22.386 C 18.594 25.176,18.225 25.692,17.253 28.112 C 17.008 28.723,16.204 29.579,15.468 30.013 C 14.156 30.787,14.118 30.887,13.615 34.901 C 13.332 37.156,12.940 39.309,12.744 39.686 C 12.267 40.602,12.273 360.211,12.749 361.117 C 12.947 361.493,13.317 363.420,13.571 365.400 C 14.170 370.059,14.189 370.111,15.530 370.705 C 16.338 371.063,16.977 371.899,17.730 373.587 C 19.011 376.458,23.581 381.110,26.600 382.616 C 27.700 383.165,29.140 384.240,29.800 385.005 C 30.857 386.230,31.285 386.422,33.400 386.617 C 35.752 386.833,40.419 388.040,42.400 388.944 C 43.142 389.282,83.651 389.427,199.600 389.504 C 365.753 389.615,356.827 389.699,361.000 387.993 C 362.998 387.176,364.651 386.800,366.241 386.800 C 367.829 386.800,369.923 386.175,370.400 385.558 C 370.510 385.416,370.958 384.827,371.395 384.250 C 371.832 383.672,372.412 383.200,372.683 383.200 C 372.954 383.200,373.817 382.840,374.600 382.400 C 375.383 381.960,376.268 381.600,376.567 381.600 C 376.865 381.600,377.408 380.969,377.774 380.198 C 378.191 379.320,379.030 378.495,380.020 377.990 C 380.889 377.547,381.600 376.996,381.600 376.767 C 381.600 375.697,384.116 371.276,384.938 370.901 C 385.927 370.450,386.800 368.165,386.800 366.024 C 386.800 364.898,387.826 361.370,389.175 357.856 C 389.684 356.529,390.008 43.600,389.500 43.600 C 389.335 43.600,389.200 43.251,389.200 42.824 C 389.200 42.397,389.020 41.936,388.800 41.800 C 388.580 41.664,388.400 41.124,388.400 40.600 C 388.400 40.076,388.251 39.555,388.068 39.442 C 387.686 39.206,386.925 35.869,386.624 33.109 C 386.386 30.930,385.846 29.901,384.662 29.373 C 384.201 29.168,383.233 27.806,382.510 26.346 C 381.697 24.704,380.627 23.258,379.707 22.556 C 378.888 21.931,377.698 20.829,377.063 20.105 C 376.428 19.382,374.804 18.276,373.454 17.647 C 372.041 16.988,370.613 15.972,370.088 15.251 C 369.457 14.386,368.841 13.998,368.088 13.992 C 367.490 13.988,365.560 13.679,363.800 13.307 C 359.306 12.355,44.072 12.128,38.400 13.072 M203.872 51.428 C 204.795 52.132,206.069 52.579,207.910 52.845 C 212.139 53.457,213.940 54.089,215.483 55.502 C 216.271 56.223,217.295 56.887,217.758 56.977 C 218.221 57.067,220.109 57.422,221.952 57.766 C 224.667 58.272,225.514 58.610,226.406 59.543 C 227.012 60.177,228.023 60.800,228.654 60.928 C 229.284 61.055,230.700 61.333,231.800 61.546 C 234.587 62.083,235.704 62.567,237.256 63.910 C 238.304 64.817,239.304 65.190,241.800 65.605 C 245.598 66.236,247.089 66.802,248.416 68.114 C 249.169 68.860,250.327 69.262,253.354 69.828 C 256.926 70.496,257.461 70.714,258.887 72.084 C 259.821 72.981,260.858 73.600,261.427 73.600 C 264.047 73.600,269.253 75.367,270.351 76.630 C 271.210 77.618,271.768 77.808,274.854 78.160 C 277.612 78.475,279.917 79.386,280.802 80.511 C 281.236 81.063,282.174 81.611,282.894 81.733 C 287.607 82.535,291.290 83.670,291.531 84.393 C 291.840 85.319,292.921 86.000,294.082 86.000 C 295.246 86.000,296.691 86.312,300.125 87.304 C 300.964 87.546,302.044 88.211,302.525 88.781 C 303.391 89.806,305.875 90.800,307.571 90.800 C 309.255 90.800,312.319 92.071,313.430 93.231 C 314.171 94.005,314.948 94.400,315.728 94.400 C 316.842 94.400,318.275 94.710,321.670 95.686 C 322.479 95.918,323.704 96.623,324.393 97.252 C 325.082 97.881,326.040 98.480,326.523 98.582 C 327.005 98.685,328.480 98.976,329.800 99.229 C 332.564 99.759,333.322 100.103,335.055 101.607 C 335.974 102.405,336.938 102.772,338.655 102.976 C 342.241 103.404,343.919 104.018,345.524 105.488 C 346.996 106.837,347.403 107.005,350.000 107.344 C 352.923 107.725,355.041 108.483,356.200 109.564 C 356.860 110.180,358.300 110.918,359.400 111.204 C 362.307 111.960,363.507 112.661,364.204 114.007 C 364.543 114.663,365.131 115.206,365.510 115.213 C 366.772 115.236,368.392 117.183,368.407 118.695 C 368.411 119.083,368.951 120.192,369.607 121.160 C 370.263 122.128,370.800 123.046,370.800 123.200 C 370.800 123.354,370.263 124.272,369.607 125.240 C 368.951 126.208,368.411 127.389,368.407 127.864 C 368.398 128.952,366.248 130.800,364.992 130.800 C 364.471 130.800,363.788 131.168,363.473 131.618 C 362.300 133.292,360.104 134.000,356.087 134.000 C 351.059 134.000,351.200 133.806,351.200 140.734 C 351.200 150.542,351.230 150.520,337.313 150.794 C 325.009 151.036,325.138 150.995,325.921 154.387 C 326.544 157.085,325.742 158.896,323.534 159.780 L 322.000 160.394 322.000 223.126 L 322.000 285.859 323.500 286.647 C 324.466 287.154,325.266 287.998,325.748 289.017 C 326.159 289.888,326.789 290.822,327.148 291.094 C 329.386 292.791,329.621 293.132,330.240 295.600 C 331.079 298.943,330.654 298.784,338.800 298.811 C 347.008 298.839,349.382 299.369,350.399 301.400 C 351.049 302.698,351.271 311.634,350.704 313.653 C 350.274 315.183,351.537 315.528,358.200 315.697 C 366.969 315.921,367.597 316.520,367.605 324.680 C 367.613 332.205,367.122 331.600,373.228 331.600 C 381.609 331.600,382.958 332.636,383.374 339.397 C 383.701 344.706,383.436 345.575,380.584 348.552 L 378.813 350.400 200.568 350.400 C 23.746 350.400,22.315 350.394,21.215 349.610 C 20.605 349.176,19.886 348.231,19.617 347.510 C 19.349 346.790,18.857 345.691,18.524 345.069 C 17.748 343.621,18.142 336.562,19.126 334.267 C 20.086 332.027,21.443 331.600,27.606 331.600 C 33.741 331.600,33.305 332.106,33.375 324.911 C 33.455 316.796,34.350 315.930,42.980 315.612 C 49.984 315.354,49.355 316.081,49.379 308.220 C 49.408 298.978,49.651 298.800,62.182 298.800 C 69.948 298.800,69.766 298.867,70.216 295.848 C 70.448 294.287,70.834 293.578,72.142 292.308 C 73.042 291.435,74.143 290.120,74.589 289.386 C 75.035 288.652,76.092 287.545,76.938 286.926 L 78.477 285.800 78.438 223.870 C 78.399 159.930,78.404 160.182,77.193 159.798 C 74.674 158.998,73.481 155.665,74.819 153.164 C 75.853 151.232,74.793 151.018,63.080 150.796 L 52.301 150.592 51.034 149.125 C 49.221 147.028,48.674 144.471,49.014 139.677 C 49.416 134.001,49.415 134.000,44.172 134.000 C 39.737 134.000,38.650 133.654,37.112 131.754 C 36.734 131.287,35.846 130.789,35.138 130.648 C 33.250 130.270,32.497 129.378,31.938 126.855 C 31.663 125.615,31.198 124.356,30.905 124.058 C 30.373 123.516,30.546 122.168,31.245 121.420 C 31.440 121.211,31.600 120.594,31.600 120.048 C 31.600 118.527,32.499 116.268,33.369 115.600 C 33.800 115.270,34.703 114.460,35.376 113.800 C 36.845 112.359,37.894 111.857,40.800 111.202 C 42.163 110.895,43.457 110.279,44.200 109.583 C 45.425 108.437,49.214 107.200,51.498 107.200 C 52.274 107.200,53.126 106.775,53.972 105.966 C 55.674 104.340,57.400 103.659,61.501 102.995 C 64.075 102.578,65.032 102.247,65.471 101.621 C 66.342 100.376,68.002 99.671,71.485 99.067 C 74.015 98.628,75.013 98.232,76.549 97.060 C 77.601 96.257,78.943 95.499,79.531 95.377 C 80.119 95.254,81.355 94.984,82.277 94.777 C 83.200 94.570,84.387 94.400,84.916 94.400 C 85.460 94.400,86.468 93.829,87.239 93.084 C 88.231 92.125,89.250 91.631,91.000 91.260 C 92.320 90.981,93.953 90.583,94.628 90.376 C 95.304 90.169,96.077 90.000,96.347 90.000 C 96.616 90.000,97.299 89.538,97.863 88.973 C 99.183 87.654,100.240 87.238,104.400 86.402 C 107.066 85.867,108.073 85.463,109.065 84.532 C 109.921 83.729,111.085 83.184,112.665 82.848 C 113.949 82.575,115.553 82.183,116.228 81.976 C 116.904 81.769,117.745 81.600,118.098 81.600 C 118.450 81.600,119.261 81.077,119.901 80.438 C 121.111 79.228,122.938 78.543,126.000 78.153 C 128.083 77.888,130.400 76.944,130.400 76.361 C 130.400 75.723,133.099 74.745,136.997 73.970 C 139.783 73.417,140.784 73.034,141.439 72.273 C 142.634 70.884,143.335 70.594,147.400 69.812 C 150.171 69.279,151.276 68.868,152.200 68.023 C 153.661 66.687,154.905 66.228,158.800 65.586 C 161.195 65.191,162.105 64.830,163.316 63.793 C 164.151 63.079,165.681 62.283,166.717 62.024 C 167.753 61.765,169.251 61.383,170.046 61.176 C 170.842 60.969,171.871 60.800,172.332 60.800 C 172.794 60.800,173.364 60.442,173.598 60.004 C 174.202 58.876,175.773 58.182,179.000 57.620 C 183.033 56.917,184.495 56.400,185.400 55.356 C 186.426 54.172,188.779 53.352,192.195 52.986 C 194.375 52.752,195.148 52.474,196.152 51.560 C 197.922 49.948,201.845 49.882,203.872 51.428 M118.440 151.526 C 118.003 152.341,118.451 154.897,119.184 155.781 C 119.616 156.301,118.186 159.320,117.187 160.000 C 117.025 160.110,116.492 161.055,116.002 162.100 C 115.513 163.145,114.952 164.000,114.756 164.000 C 114.220 164.000,114.329 165.769,114.900 166.340 C 115.295 166.735,115.400 178.605,115.400 223.000 C 115.400 267.395,115.295 279.265,114.900 279.660 C 114.179 280.381,114.300 281.649,115.200 282.800 C 115.630 283.350,115.986 284.016,115.991 284.279 C 115.996 284.543,116.450 285.245,117.000 285.838 C 117.551 286.432,118.182 287.590,118.403 288.411 C 118.702 289.521,119.125 290.038,120.050 290.421 C 121.340 290.955,122.796 292.894,122.799 294.082 C 122.799 294.457,123.205 295.199,123.700 295.730 C 124.195 296.262,124.991 297.170,125.470 297.748 C 126.329 298.787,126.406 298.800,131.616 298.800 L 136.892 298.800 138.446 297.100 C 139.301 296.165,140.000 295.073,140.000 294.674 C 140.000 293.016,141.699 290.954,143.246 290.735 C 143.975 290.632,144.341 290.177,144.800 288.802 C 145.130 287.813,145.884 286.525,146.475 285.940 C 147.722 284.705,148.218 282.638,147.779 280.502 C 147.389 278.607,147.397 168.540,147.788 165.709 C 148.016 164.053,147.944 163.486,147.438 162.981 C 147.087 162.630,146.800 162.040,146.800 161.670 C 146.800 161.300,146.266 160.494,145.614 159.878 C 144.187 158.531,143.782 156.720,144.330 154.147 C 145.081 150.629,145.743 150.800,131.400 150.800 C 119.664 150.800,118.802 150.848,118.440 151.526 M188.873 151.500 C 188.159 152.112,188.097 152.450,188.380 154.195 C 188.557 155.292,188.618 156.462,188.515 156.795 C 188.019 158.397,187.431 159.100,186.223 159.537 C 184.323 160.224,184.400 157.479,184.400 224.594 C 184.400 290.061,184.308 286.800,186.150 286.800 C 186.601 286.800,188.400 288.716,188.400 289.196 C 188.400 289.917,189.658 291.600,190.197 291.600 C 191.242 291.600,192.780 294.638,192.794 296.729 C 192.806 298.618,193.469 298.800,200.322 298.800 C 207.543 298.800,207.286 298.909,207.974 295.551 C 208.228 294.315,208.742 293.017,209.118 292.668 C 211.334 290.608,212.400 289.429,212.400 289.036 C 212.400 288.790,212.881 288.232,213.470 287.795 C 216.269 285.716,216.014 292.519,215.901 222.862 L 215.800 160.278 214.275 159.487 C 211.852 158.230,211.357 157.166,211.932 154.458 C 212.716 150.766,212.824 150.800,200.200 150.800 C 190.767 150.800,189.605 150.872,188.873 151.500 M256.080 151.280 C 255.332 152.028,255.994 155.600,256.880 155.600 C 257.285 155.600,257.303 157.088,256.900 157.267 C 256.486 157.450,254.352 160.247,253.065 162.292 C 251.855 164.215,251.733 165.663,252.606 167.752 C 253.430 169.725,253.327 278.033,252.500 278.860 C 251.901 279.459,251.831 282.248,252.406 282.604 C 252.629 282.742,253.058 283.427,253.359 284.127 C 253.660 284.827,254.258 285.766,254.688 286.213 C 255.118 286.661,255.588 287.471,255.731 288.013 C 256.076 289.313,256.376 289.675,257.753 290.447 C 258.989 291.139,259.820 292.373,260.165 294.026 C 260.368 295.004,260.984 295.893,262.848 297.900 C 264.366 299.534,275.600 299.096,275.600 297.403 C 275.600 297.233,275.933 296.803,276.339 296.447 C 276.746 296.091,277.308 295.080,277.590 294.200 C 278.222 292.222,279.016 291.288,280.639 290.609 C 281.614 290.202,281.956 289.761,282.166 288.639 C 282.336 287.737,283.031 286.589,284.019 285.581 C 284.888 284.694,285.602 283.615,285.605 283.184 C 285.608 282.753,285.611 255.670,285.611 223.000 C 285.611 190.330,285.608 163.257,285.605 162.838 C 285.602 162.418,284.700 161.141,283.600 160.000 C 281.443 157.762,281.095 156.367,282.029 153.688 C 283.043 150.779,283.138 150.800,269.066 150.800 C 259.872 150.800,256.433 150.927,256.080 151.280 " stroke="none" fill="#fbfbfb" fill-rule="evenodd"></path><path id="path2" d="M41.400 9.754 C 40.520 10.002,39.227 10.499,38.526 10.859 C 37.243 11.517,34.703 12.188,31.864 12.617 C 30.839 12.772,29.759 13.374,28.619 14.425 C 27.680 15.291,26.716 16.000,26.478 16.000 C 25.370 16.000,22.214 18.313,21.265 19.821 C 21.119 20.052,20.252 20.833,19.338 21.557 C 18.247 22.421,17.316 23.677,16.624 25.218 C 16.045 26.509,15.101 27.935,14.526 28.387 C 13.167 29.456,12.400 30.971,12.400 32.586 C 12.400 34.236,11.808 36.077,10.465 38.600 L 9.400 40.600 9.281 198.200 C 9.163 354.740,9.193 360.336,10.176 361.319 C 10.930 362.073,12.400 366.453,12.400 367.946 C 12.400 369.521,13.182 371.105,14.540 372.279 C 15.100 372.762,16.034 374.202,16.616 375.479 C 17.199 376.755,17.953 377.958,18.292 378.151 C 19.427 378.795,22.000 381.287,22.005 381.747 C 22.007 381.996,23.097 382.797,24.425 383.527 C 25.754 384.257,27.439 385.434,28.169 386.143 C 29.190 387.135,30.119 387.556,32.191 387.968 C 35.009 388.528,36.481 389.136,38.752 390.677 L 40.112 391.600 200.397 391.600 L 360.682 391.600 362.041 390.610 C 364.083 389.123,368.249 387.600,370.275 387.600 C 370.624 387.600,371.679 386.891,372.619 386.025 C 373.559 385.159,375.253 383.981,376.383 383.409 C 377.513 382.836,378.549 382.060,378.686 381.684 C 379.003 380.812,381.193 378.800,381.825 378.800 C 382.090 378.800,382.772 377.817,383.341 376.615 C 383.910 375.414,384.894 373.929,385.528 373.315 C 386.984 371.907,387.424 371.031,387.752 368.889 C 388.038 367.012,389.575 363.200,390.046 363.200 C 390.208 363.200,390.625 362.632,390.971 361.939 C 391.821 360.234,391.949 40.201,391.100 38.713 C 390.825 38.231,390.301 37.558,389.936 37.218 C 389.127 36.465,387.600 32.164,387.600 30.640 C 387.600 29.906,387.140 29.086,386.233 28.205 C 385.481 27.475,384.295 25.825,383.598 24.539 C 382.832 23.123,381.703 21.760,380.738 21.084 C 379.862 20.470,378.863 19.480,378.520 18.884 C 378.140 18.225,376.827 17.277,375.172 16.466 C 373.674 15.733,372.181 14.725,371.854 14.227 C 371.274 13.342,370.536 13.078,365.600 11.995 C 364.390 11.730,362.839 11.192,362.152 10.801 C 361.466 10.409,359.972 9.889,358.833 9.644 C 355.859 9.007,43.674 9.115,41.400 9.754 M363.800 13.307 C 365.560 13.679,367.490 13.988,368.088 13.992 C 368.841 13.998,369.457 14.386,370.088 15.251 C 370.613 15.972,372.041 16.988,373.454 17.647 C 374.804 18.276,376.428 19.382,377.063 20.105 C 377.698 20.829,378.888 21.931,379.707 22.556 C 380.627 23.258,381.697 24.704,382.510 26.346 C 383.233 27.806,384.201 29.168,384.662 29.373 C 385.846 29.901,386.386 30.930,386.624 33.109 C 386.925 35.869,387.686 39.206,388.068 39.442 C 388.251 39.555,388.400 40.076,388.400 40.600 C 388.400 41.124,388.580 41.664,388.800 41.800 C 389.020 41.936,389.200 42.397,389.200 42.824 C 389.200 43.251,389.335 43.600,389.500 43.600 C 390.008 43.600,389.684 356.529,389.175 357.856 C 387.826 361.370,386.800 364.898,386.800 366.024 C 386.800 368.165,385.927 370.450,384.938 370.901 C 384.116 371.276,381.600 375.697,381.600 376.767 C 381.600 376.996,380.889 377.547,380.020 377.990 C 379.030 378.495,378.191 379.320,377.774 380.198 C 377.408 380.969,376.865 381.600,376.567 381.600 C 376.268 381.600,375.383 381.960,374.600 382.400 C 373.817 382.840,372.954 383.200,372.683 383.200 C 372.412 383.200,371.832 383.672,371.395 384.250 C 370.958 384.827,370.510 385.416,370.400 385.558 C 369.923 386.175,367.829 386.800,366.241 386.800 C 364.651 386.800,362.998 387.176,361.000 387.993 C 356.827 389.699,365.753 389.615,199.600 389.504 C 83.651 389.427,43.142 389.282,42.400 388.944 C 40.419 388.040,35.752 386.833,33.400 386.617 C 31.285 386.422,30.857 386.230,29.800 385.005 C 29.140 384.240,27.700 383.165,26.600 382.616 C 23.581 381.110,19.011 376.458,17.730 373.587 C 16.977 371.899,16.338 371.063,15.530 370.705 C 14.189 370.111,14.170 370.059,13.571 365.400 C 13.317 363.420,12.947 361.493,12.749 361.117 C 12.273 360.211,12.267 40.602,12.744 39.686 C 12.940 39.309,13.332 37.156,13.615 34.901 C 14.118 30.887,14.156 30.787,15.468 30.013 C 16.204 29.579,17.008 28.723,17.253 28.112 C 18.225 25.692,18.594 25.176,21.347 22.386 C 24.702 18.986,26.223 17.794,27.626 17.463 C 28.761 17.196,29.965 16.211,30.643 14.994 C 30.946 14.450,31.701 14.112,33.043 13.919 C 34.119 13.765,36.530 13.383,38.400 13.072 C 44.072 12.128,359.306 12.355,363.800 13.307 M196.152 51.560 C 195.148 52.474,194.375 52.752,192.195 52.986 C 188.779 53.352,186.426 54.172,185.400 55.356 C 184.495 56.400,183.033 56.917,179.000 57.620 C 175.773 58.182,174.202 58.876,173.598 60.004 C 173.364 60.442,172.794 60.800,172.332 60.800 C 171.871 60.800,170.842 60.969,170.046 61.176 C 169.251 61.383,167.753 61.765,166.717 62.024 C 165.681 62.283,164.151 63.079,163.316 63.793 C 162.105 64.830,161.195 65.191,158.800 65.586 C 154.905 66.228,153.661 66.687,152.200 68.023 C 151.276 68.868,150.171 69.279,147.400 69.812 C 143.335 70.594,142.634 70.884,141.439 72.273 C 140.784 73.034,139.783 73.417,136.997 73.970 C 133.099 74.745,130.400 75.723,130.400 76.361 C 130.400 76.944,128.083 77.888,126.000 78.153 C 122.938 78.543,121.111 79.228,119.901 80.438 C 119.261 81.077,118.450 81.600,118.098 81.600 C 117.745 81.600,116.904 81.769,116.228 81.976 C 115.553 82.183,113.949 82.575,112.665 82.848 C 111.085 83.184,109.921 83.729,109.065 84.532 C 108.073 85.463,107.066 85.867,104.400 86.402 C 100.240 87.238,99.183 87.654,97.863 88.973 C 97.299 89.538,96.616 90.000,96.347 90.000 C 96.077 90.000,95.304 90.169,94.628 90.376 C 93.953 90.583,92.320 90.981,91.000 91.260 C 89.250 91.631,88.231 92.125,87.239 93.084 C 86.468 93.829,85.460 94.400,84.916 94.400 C 84.387 94.400,83.200 94.570,82.277 94.777 C 81.355 94.984,80.119 95.254,79.531 95.377 C 78.943 95.499,77.601 96.257,76.549 97.060 C 75.013 98.232,74.015 98.628,71.485 99.067 C 68.002 99.671,66.342 100.376,65.471 101.621 C 65.032 102.247,64.075 102.578,61.501 102.995 C 57.400 103.659,55.674 104.340,53.972 105.966 C 53.126 106.775,52.274 107.200,51.498 107.200 C 49.214 107.200,45.425 108.437,44.200 109.583 C 43.457 110.279,42.163 110.895,40.800 111.202 C 37.894 111.857,36.845 112.359,35.376 113.800 C 34.703 114.460,33.800 115.270,33.369 115.600 C 32.499 116.268,31.600 118.527,31.600 120.048 C 31.600 120.594,31.440 121.211,31.245 121.420 C 30.546 122.168,30.373 123.516,30.905 124.058 C 31.198 124.356,31.663 125.615,31.938 126.855 C 32.497 129.378,33.250 130.270,35.138 130.648 C 35.846 130.789,36.734 131.287,37.112 131.754 C 38.650 133.654,39.737 134.000,44.172 134.000 C 49.415 134.000,49.416 134.001,49.014 139.677 C 48.674 144.471,49.221 147.028,51.034 149.125 L 52.301 150.592 63.080 150.796 C 74.793 151.018,75.853 151.232,74.819 153.164 C 73.481 155.665,74.674 158.998,77.193 159.798 C 78.404 160.182,78.399 159.930,78.438 223.870 L 78.477 285.800 76.938 286.926 C 76.092 287.545,75.035 288.652,74.589 289.386 C 74.143 290.120,73.042 291.435,72.142 292.308 C 70.834 293.578,70.448 294.287,70.216 295.848 C 69.766 298.867,69.948 298.800,62.182 298.800 C 49.651 298.800,49.408 298.978,49.379 308.220 C 49.355 316.081,49.984 315.354,42.980 315.612 C 34.350 315.930,33.455 316.796,33.375 324.911 C 33.305 332.106,33.741 331.600,27.606 331.600 C 21.443 331.600,20.086 332.027,19.126 334.267 C 18.142 336.562,17.748 343.621,18.524 345.069 C 18.857 345.691,19.349 346.790,19.617 347.510 C 19.886 348.231,20.605 349.176,21.215 349.610 C 22.315 350.394,23.746 350.400,200.568 350.400 L 378.813 350.400 380.584 348.552 C 383.436 345.575,383.701 344.706,383.374 339.397 C 382.958 332.636,381.609 331.600,373.228 331.600 C 367.122 331.600,367.613 332.205,367.605 324.680 C 367.597 316.520,366.969 315.921,358.200 315.697 C 351.537 315.528,350.274 315.183,350.704 313.653 C 351.271 311.634,351.049 302.698,350.399 301.400 C 349.382 299.369,347.008 298.839,338.800 298.811 C 330.654 298.784,331.079 298.943,330.240 295.600 C 329.621 293.132,329.386 292.791,327.148 291.094 C 326.789 290.822,326.159 289.888,325.748 289.017 C 325.266 287.998,324.466 287.154,323.500 286.647 L 322.000 285.859 322.000 223.126 L 322.000 160.394 323.534 159.780 C 325.742 158.896,326.544 157.085,325.921 154.387 C 325.138 150.995,325.009 151.036,337.313 150.794 C 351.230 150.520,351.200 150.542,351.200 140.734 C 351.200 133.806,351.059 134.000,356.087 134.000 C 360.104 134.000,362.300 133.292,363.473 131.618 C 363.788 131.168,364.471 130.800,364.992 130.800 C 366.248 130.800,368.398 128.952,368.407 127.864 C 368.411 127.389,368.951 126.208,369.607 125.240 C 370.263 124.272,370.800 123.354,370.800 123.200 C 370.800 123.046,370.263 122.128,369.607 121.160 C 368.951 120.192,368.411 119.083,368.407 118.695 C 368.392 117.183,366.772 115.236,365.510 115.213 C 365.131 115.206,364.543 114.663,364.204 114.007 C 363.507 112.661,362.307 111.960,359.400 111.204 C 358.300 110.918,356.860 110.180,356.200 109.564 C 355.041 108.483,352.923 107.725,350.000 107.344 C 347.403 107.005,346.996 106.837,345.524 105.488 C 343.919 104.018,342.241 103.404,338.655 102.976 C 336.938 102.772,335.974 102.405,335.055 101.607 C 333.322 100.103,332.564 99.759,329.800 99.229 C 328.480 98.976,327.005 98.685,326.523 98.582 C 326.040 98.480,325.082 97.881,324.393 97.252 C 323.704 96.623,322.479 95.918,321.670 95.686 C 318.275 94.710,316.842 94.400,315.728 94.400 C 314.948 94.400,314.171 94.005,313.430 93.231 C 312.319 92.071,309.255 90.800,307.571 90.800 C 305.875 90.800,303.391 89.806,302.525 88.781 C 302.044 88.211,300.964 87.546,300.125 87.304 C 296.691 86.312,295.246 86.000,294.082 86.000 C 292.921 86.000,291.840 85.319,291.531 84.393 C 291.290 83.670,287.607 82.535,282.894 81.733 C 282.174 81.611,281.236 81.063,280.802 80.511 C 279.917 79.386,277.612 78.475,274.854 78.160 C 271.768 77.808,271.210 77.618,270.351 76.630 C 269.253 75.367,264.047 73.600,261.427 73.600 C 260.858 73.600,259.821 72.981,258.887 72.084 C 257.461 70.714,256.926 70.496,253.354 69.828 C 250.327 69.262,249.169 68.860,248.416 68.114 C 247.089 66.802,245.598 66.236,241.800 65.605 C 239.304 65.190,238.304 64.817,237.256 63.910 C 235.704 62.567,234.587 62.083,231.800 61.546 C 230.700 61.333,229.284 61.055,228.654 60.928 C 228.023 60.800,227.012 60.177,226.406 59.543 C 225.514 58.610,224.667 58.272,221.952 57.766 C 220.109 57.422,218.221 57.067,217.758 56.977 C 217.295 56.887,216.271 56.223,215.483 55.502 C 213.940 54.089,212.139 53.457,207.910 52.845 C 206.069 52.579,204.795 52.132,203.872 51.428 C 201.845 49.882,197.922 49.948,196.152 51.560 M204.921 53.437 C 208.957 54.330,211.175 55.098,212.800 56.166 C 214.463 57.259,215.734 57.743,219.143 58.581 C 220.542 58.924,222.612 59.711,223.743 60.328 C 224.874 60.945,226.700 61.681,227.800 61.962 C 230.240 62.587,230.759 62.780,233.800 64.198 C 237.092 65.733,240.030 66.799,240.994 66.807 C 241.437 66.812,243.031 67.439,244.536 68.201 C 246.040 68.964,248.560 69.960,250.136 70.414 C 253.888 71.498,255.188 71.996,256.400 72.816 C 257.580 73.614,261.577 75.041,263.688 75.419 C 264.507 75.565,265.947 76.171,266.888 76.765 C 269.020 78.111,269.530 78.314,273.000 79.202 C 274.540 79.596,277.357 80.656,279.259 81.559 C 281.161 82.462,282.961 83.203,283.259 83.206 C 284.124 83.215,287.293 84.396,288.600 85.197 C 289.260 85.601,291.060 86.313,292.600 86.778 C 297.547 88.273,298.105 88.483,299.968 89.555 C 302.044 90.751,303.875 91.421,306.200 91.839 C 307.627 92.095,309.895 93.119,311.000 94.006 C 311.220 94.183,312.660 94.712,314.200 95.182 C 319.993 96.950,321.200 97.373,321.200 97.636 C 321.200 97.934,324.481 99.275,327.000 100.008 C 327.880 100.264,329.680 100.988,331.000 101.617 C 333.266 102.697,334.521 103.148,338.800 104.419 C 339.790 104.713,341.862 105.616,343.405 106.426 C 344.948 107.235,347.009 108.033,347.986 108.198 C 349.688 108.485,351.374 109.158,354.400 110.759 C 355.170 111.166,357.040 111.898,358.556 112.385 C 360.367 112.967,361.853 113.773,362.891 114.735 C 363.760 115.541,364.769 116.368,365.135 116.574 C 366.260 117.207,366.667 117.768,367.194 119.415 C 367.474 120.287,367.856 121.407,368.045 121.905 C 368.434 122.934,367.567 126.781,366.619 128.228 C 365.655 129.699,357.097 132.367,353.262 132.391 C 349.820 132.414,349.152 134.202,349.940 141.291 C 350.181 143.452,350.106 144.258,349.560 145.379 C 348.079 148.425,347.905 148.465,335.113 148.762 C 322.551 149.053,322.171 149.253,324.244 154.501 C 325.117 156.713,324.880 157.359,322.766 158.519 C 322.015 158.931,321.164 159.496,320.875 159.774 C 320.446 160.186,320.354 171.743,320.372 222.994 L 320.394 285.711 322.797 287.997 C 324.119 289.255,325.200 290.465,325.200 290.688 C 325.200 290.910,325.738 291.701,326.396 292.446 C 327.054 293.191,327.695 294.160,327.821 294.600 C 329.310 299.803,329.913 300.120,338.538 300.243 C 348.675 300.388,349.505 300.962,349.570 307.867 C 349.592 310.297,349.395 311.612,348.800 313.000 C 348.360 314.026,348.000 314.922,348.000 314.989 C 348.000 315.933,352.049 316.801,356.496 316.811 C 363.082 316.826,364.693 317.547,365.457 320.819 C 365.986 323.082,365.509 329.334,364.744 330.180 C 363.340 331.732,365.559 332.472,372.477 332.761 C 378.316 333.004,378.361 333.013,379.605 334.203 L 380.857 335.400 380.729 340.461 L 380.600 345.522 379.200 346.755 L 377.800 347.987 200.166 347.994 L 22.532 348.000 21.369 346.700 C 20.254 345.455,20.199 345.211,20.059 340.888 C 19.814 333.329,20.188 332.988,29.001 332.715 C 35.752 332.507,37.024 332.119,36.597 330.400 C 36.461 329.850,36.249 327.192,36.126 324.493 L 35.903 319.586 37.380 318.193 L 38.857 316.800 43.500 316.800 C 49.960 316.800,53.048 315.649,51.781 313.715 C 50.387 311.587,50.389 303.178,51.783 301.783 C 52.899 300.667,54.927 300.360,61.826 300.261 C 70.430 300.138,70.384 300.157,72.239 296.087 C 73.006 294.404,73.771 292.931,73.940 292.813 C 74.108 292.696,74.532 292.181,74.882 291.670 C 75.232 291.158,76.616 289.602,77.959 288.211 L 80.400 285.683 80.400 223.054 L 80.400 160.425 78.176 158.782 C 76.952 157.878,75.860 156.900,75.748 156.608 C 75.536 156.056,76.913 153.024,77.557 152.627 C 77.777 152.490,77.755 151.846,77.501 151.017 C 76.872 148.968,75.934 148.800,65.136 148.800 C 50.696 148.800,49.065 147.536,50.869 137.748 C 51.716 133.148,50.279 131.622,45.086 131.609 C 38.314 131.592,33.932 129.478,32.951 125.756 C 31.686 120.957,32.743 117.849,36.600 115.017 C 37.480 114.371,38.290 113.722,38.400 113.576 C 38.510 113.429,39.950 112.906,41.600 112.414 C 44.964 111.410,46.278 110.859,47.261 110.040 C 48.041 109.389,50.210 108.600,52.288 108.210 C 53.865 107.914,56.803 106.657,58.400 105.595 C 58.950 105.229,60.300 104.696,61.400 104.411 C 65.258 103.411,68.423 102.320,68.924 101.819 C 69.202 101.541,70.053 101.116,70.815 100.874 C 76.554 99.055,77.925 98.552,78.848 97.929 C 80.266 96.969,81.671 96.444,85.101 95.590 C 86.697 95.193,89.127 94.240,90.501 93.472 C 91.875 92.704,93.857 91.948,94.905 91.792 C 95.953 91.636,96.908 91.348,97.029 91.154 C 97.149 90.959,97.561 90.800,97.945 90.800 C 98.329 90.800,99.444 90.297,100.422 89.682 C 102.458 88.401,103.734 87.900,106.721 87.207 C 107.887 86.937,110.047 86.137,111.521 85.430 C 114.621 83.943,116.123 83.365,117.800 83.014 C 118.460 82.876,120.317 82.120,121.928 81.333 C 123.538 80.547,125.473 79.745,126.228 79.552 C 126.982 79.358,128.209 79.044,128.953 78.853 C 129.697 78.662,130.912 78.188,131.653 77.801 C 135.115 75.989,135.983 75.638,138.600 74.990 C 140.140 74.609,141.956 74.005,142.634 73.648 C 146.008 71.877,147.694 71.178,151.000 70.181 C 152.980 69.584,154.690 68.984,154.800 68.847 C 155.260 68.275,158.047 67.225,161.400 66.361 C 162.500 66.078,164.480 65.268,165.800 64.562 C 167.120 63.856,169.550 62.892,171.200 62.420 C 174.380 61.511,175.584 61.023,177.200 59.989 C 178.265 59.307,179.871 58.787,183.915 57.814 C 185.297 57.481,187.084 56.764,187.885 56.219 C 188.686 55.675,190.255 54.966,191.371 54.643 C 198.529 52.574,200.306 52.416,204.921 53.437 M117.368 149.792 C 116.722 150.778,116.731 151.739,117.424 155.687 C 117.671 157.095,115.630 160.000,114.394 160.000 C 113.670 160.000,113.594 165.958,113.587 223.255 C 113.580 280.647,113.649 286.000,114.389 286.000 C 114.949 286.000,116.720 288.024,117.383 289.422 C 117.746 290.185,118.527 291.119,119.121 291.499 C 120.666 292.487,121.048 293.099,121.629 295.519 C 122.615 299.632,129.622 301.774,136.400 300.037 C 137.170 299.839,138.301 299.565,138.912 299.428 C 140.315 299.113,141.597 297.077,141.599 295.161 C 141.600 293.779,142.654 292.000,143.472 292.000 C 144.007 292.000,146.000 289.853,146.000 289.278 C 146.000 289.014,146.730 288.091,147.622 287.225 L 149.245 285.650 149.232 223.125 L 149.219 160.600 148.323 160.000 C 145.558 158.149,144.817 156.637,145.638 154.526 C 146.223 153.018,146.171 150.664,145.529 149.636 C 145.017 148.815,144.766 148.800,131.513 148.800 L 118.018 148.800 117.368 149.792 M187.133 149.403 C 185.795 150.140,185.319 151.988,186.135 153.274 C 186.457 153.783,186.841 154.773,186.987 155.474 C 187.269 156.831,187.327 156.748,184.290 159.321 L 182.781 160.600 182.781 222.000 C 182.782 255.770,182.786 283.922,182.791 284.560 C 182.798 285.416,183.302 286.202,184.715 287.560 C 185.768 288.572,187.241 290.300,187.989 291.400 C 188.736 292.500,189.462 293.490,189.603 293.600 C 189.895 293.829,190.256 294.649,191.189 297.200 C 192.174 299.895,193.012 300.165,200.400 300.176 C 207.841 300.186,207.731 300.235,209.903 295.934 C 210.958 293.846,212.710 291.333,214.591 289.210 L 217.595 285.819 217.698 223.093 L 217.800 160.366 216.619 159.483 C 215.969 158.997,214.903 158.133,214.251 157.561 L 213.064 156.523 213.768 154.763 C 214.156 153.794,214.661 152.886,214.890 152.744 C 215.392 152.434,215.060 150.908,214.250 149.800 C 213.464 148.724,189.014 148.366,187.133 149.403 M254.796 150.100 C 253.849 151.653,253.848 151.670,254.608 154.175 C 255.396 156.773,253.813 159.939,251.700 159.988 C 251.425 159.995,251.195 160.405,251.189 160.900 C 251.182 161.395,251.179 189.588,251.181 223.551 L 251.184 285.302 252.575 286.551 C 253.340 287.238,254.301 288.430,254.711 289.200 C 255.121 289.970,256.015 290.960,256.697 291.400 C 258.166 292.348,258.741 293.446,259.078 295.951 C 259.599 299.815,267.272 301.751,274.480 299.837 C 278.164 298.859,278.409 298.604,278.978 295.151 C 279.234 293.597,280.087 292.397,281.448 291.677 C 281.914 291.430,282.618 290.546,283.011 289.714 C 283.405 288.881,284.416 287.568,285.259 286.796 L 286.791 285.391 286.804 223.996 C 286.811 190.228,286.810 162.060,286.800 161.400 C 286.786 160.435,286.435 159.967,285.012 159.012 C 282.981 157.649,282.698 156.907,283.249 154.400 C 283.780 151.987,283.716 150.836,282.989 149.727 L 282.382 148.800 268.985 148.800 L 255.588 148.800 254.796 150.100 M144.355 151.516 C 144.602 151.977,144.593 152.915,144.330 154.147 C 143.782 156.720,144.187 158.531,145.614 159.878 C 146.266 160.494,146.800 161.300,146.800 161.670 C 146.800 162.040,147.087 162.630,147.438 162.981 C 147.944 163.486,148.016 164.053,147.788 165.709 C 147.397 168.540,147.389 278.607,147.779 280.502 C 148.218 282.638,147.722 284.705,146.475 285.940 C 145.884 286.525,145.130 287.813,144.800 288.802 C 144.341 290.177,143.975 290.632,143.246 290.735 C 141.699 290.954,140.000 293.016,140.000 294.674 C 140.000 295.073,139.301 296.165,138.446 297.100 L 136.892 298.800 131.616 298.800 C 126.406 298.800,126.329 298.787,125.470 297.748 C 124.991 297.170,124.195 296.262,123.700 295.730 C 123.205 295.199,122.799 294.457,122.799 294.082 C 122.796 292.894,121.340 290.955,120.050 290.421 C 119.125 290.038,118.702 289.521,118.403 288.411 C 118.182 287.590,117.551 286.432,117.000 285.838 C 116.450 285.245,115.996 284.543,115.991 284.279 C 115.986 284.016,115.630 283.350,115.200 282.800 C 114.300 281.649,114.179 280.381,114.900 279.660 C 115.295 279.265,115.400 267.395,115.400 223.000 C 115.400 178.605,115.295 166.735,114.900 166.340 C 114.329 165.769,114.220 164.000,114.756 164.000 C 114.952 164.000,115.513 163.145,116.002 162.100 C 116.492 161.055,117.025 160.110,117.187 160.000 C 118.186 159.320,119.616 156.301,119.184 155.781 C 118.451 154.897,118.003 152.341,118.440 151.526 C 119.036 150.412,143.759 150.403,144.355 151.516 M211.561 151.500 C 212.360 152.158,212.383 152.336,211.932 154.458 C 211.357 157.166,211.852 158.230,214.275 159.487 L 215.800 160.278 215.901 222.862 C 216.014 292.519,216.269 285.716,213.470 287.795 C 212.881 288.232,212.400 288.790,212.400 289.036 C 212.400 289.429,211.334 290.608,209.118 292.668 C 208.742 293.017,208.228 294.315,207.974 295.551 C 207.286 298.909,207.543 298.800,200.322 298.800 C 193.469 298.800,192.806 298.618,192.794 296.729 C 192.780 294.638,191.242 291.600,190.197 291.600 C 189.658 291.600,188.400 289.917,188.400 289.196 C 188.400 288.716,186.601 286.800,186.150 286.800 C 184.308 286.800,184.400 290.061,184.400 224.594 C 184.400 157.479,184.323 160.224,186.223 159.537 C 187.431 159.100,188.019 158.397,188.515 156.795 C 188.618 156.462,188.557 155.292,188.380 154.195 C 187.830 150.793,187.805 150.800,200.200 150.800 C 209.620 150.800,210.800 150.873,211.561 151.500 M282.015 151.628 C 282.334 152.225,282.338 152.802,282.029 153.688 C 281.095 156.367,281.443 157.762,283.600 160.000 C 284.700 161.141,285.602 162.418,285.605 162.838 C 285.608 163.257,285.611 190.330,285.611 223.000 C 285.611 255.670,285.608 282.753,285.605 283.184 C 285.602 283.615,284.888 284.694,284.019 285.581 C 283.031 286.589,282.336 287.737,282.166 288.639 C 281.956 289.761,281.614 290.202,280.639 290.609 C 279.016 291.288,278.222 292.222,277.590 294.200 C 277.308 295.080,276.746 296.091,276.339 296.447 C 275.933 296.803,275.600 297.233,275.600 297.403 C 275.600 299.096,264.366 299.534,262.848 297.900 C 260.984 295.893,260.368 295.004,260.165 294.026 C 259.820 292.373,258.989 291.139,257.753 290.447 C 256.376 289.675,256.076 289.313,255.731 288.013 C 255.588 287.471,255.118 286.661,254.688 286.213 C 254.258 285.766,253.660 284.827,253.359 284.127 C 253.058 283.427,252.629 282.742,252.406 282.604 C 251.831 282.248,251.901 279.459,252.500 278.860 C 253.327 278.033,253.430 169.725,252.606 167.752 C 251.733 165.663,251.855 164.215,253.065 162.292 C 254.352 160.247,256.486 157.450,256.900 157.267 C 257.303 157.088,257.285 155.600,256.880 155.600 C 255.994 155.600,255.332 152.028,256.080 151.280 C 257.061 150.299,281.479 150.627,282.015 151.628 " stroke="none" fill="#a8a8a8" fill-rule="evenodd"></path><path id="path3" d="M40.000 7.665 C 36.219 8.062,35.107 8.478,34.425 9.752 C 33.846 10.835,31.462 11.600,28.668 11.600 C 26.368 11.600,25.202 12.349,25.197 13.831 C 25.195 14.724,23.186 16.000,21.783 16.000 C 21.015 16.000,20.750 16.301,20.413 17.553 C 19.921 19.377,19.270 20.005,17.498 20.366 C 16.509 20.567,16.171 20.864,16.077 21.615 C 15.842 23.494,14.838 25.104,13.727 25.383 C 12.198 25.766,11.627 26.717,11.613 28.906 C 11.593 31.795,10.802 33.902,9.540 34.425 C 7.145 35.417,7.214 30.450,7.207 200.316 C 7.199 372.247,7.097 365.557,9.751 366.223 C 10.747 366.473,11.577 369.329,11.613 372.633 C 11.630 374.196,12.459 375.200,13.734 375.200 C 14.897 375.200,16.000 376.821,16.000 378.532 C 16.000 379.262,16.322 379.622,17.300 379.985 C 19.519 380.806,19.779 381.038,20.125 382.500 C 20.420 383.748,20.668 383.973,22.174 384.352 C 24.073 384.830,24.711 385.409,25.151 387.054 C 25.473 388.258,27.908 389.176,30.820 389.192 C 32.520 389.202,33.200 389.786,33.200 391.237 C 33.200 391.858,33.473 392.419,33.843 392.561 C 35.646 393.253,366.590 392.828,367.099 392.133 C 367.374 391.756,367.600 391.051,367.600 390.566 C 367.600 389.606,368.281 389.204,369.933 389.192 C 372.640 389.173,374.925 388.209,375.371 386.899 C 375.942 385.216,376.328 384.885,378.423 384.282 C 379.952 383.841,380.219 383.604,380.335 382.585 C 380.517 380.995,381.079 380.400,382.400 380.400 C 383.736 380.400,384.214 379.856,384.558 377.940 C 384.862 376.252,385.316 375.796,387.063 375.423 C 388.444 375.127,388.600 374.789,389.002 371.200 C 389.435 367.337,389.439 367.328,391.195 367.047 C 392.511 366.837,392.801 366.629,392.806 365.895 C 393.096 324.609,392.707 34.170,392.361 33.753 C 392.109 33.449,391.396 33.200,390.778 33.200 C 389.511 33.200,389.398 32.961,388.995 29.426 C 388.629 26.218,388.195 25.200,387.192 25.200 C 386.087 25.200,384.402 23.464,384.394 22.318 C 384.385 20.952,383.853 20.351,382.390 20.051 C 381.035 19.774,380.803 19.509,379.985 17.300 C 379.621 16.319,379.263 16.000,378.525 16.000 C 376.686 16.000,375.218 14.869,375.206 13.444 C 375.197 12.329,374.019 11.627,372.131 11.613 C 369.142 11.590,366.519 10.780,366.042 9.732 C 365.464 8.464,364.381 8.110,359.575 7.617 C 354.454 7.091,45.012 7.138,40.000 7.665 M359.429 8.834 C 360.800 9.073,362.255 9.575,362.661 9.949 C 363.592 10.806,365.147 11.382,368.200 12.000 C 371.610 12.690,372.695 13.157,372.924 14.031 C 373.034 14.452,373.456 14.916,373.862 15.063 C 374.268 15.210,375.078 15.661,375.662 16.065 C 376.246 16.469,376.971 16.800,377.273 16.800 C 377.576 16.800,378.088 17.185,378.412 17.656 C 379.769 19.629,380.986 20.890,381.850 21.219 C 382.368 21.416,383.210 22.435,383.774 23.548 C 384.326 24.637,385.413 26.129,386.190 26.864 C 387.315 27.928,387.716 28.730,388.159 30.800 C 388.942 34.463,389.446 35.561,390.537 35.976 C 392.047 36.550,392.000 31.247,392.000 200.624 C 392.000 369.247,392.056 364.094,390.207 364.797 C 389.653 365.008,389.200 365.457,389.200 365.796 C 389.200 366.134,389.033 366.723,388.829 367.105 C 388.624 367.487,388.268 368.848,388.036 370.128 C 387.682 372.088,387.338 372.726,385.861 374.162 C 384.896 375.100,383.898 376.498,383.643 377.268 C 383.322 378.242,382.726 378.907,381.691 379.450 C 380.868 379.881,379.853 380.872,379.425 381.662 C 378.911 382.613,378.172 383.263,377.225 383.598 C 376.441 383.876,375.038 384.890,374.107 385.851 C 372.866 387.132,371.905 387.719,370.507 388.048 C 365.482 389.229,365.054 389.401,364.427 390.490 C 363.492 392.116,372.212 392.040,198.871 391.916 L 37.143 391.800 36.071 390.539 C 35.016 389.297,34.120 388.910,30.239 388.020 C 28.868 387.706,27.836 387.123,26.812 386.085 C 26.006 385.268,24.638 384.240,23.773 383.801 C 22.031 382.916,21.200 382.239,21.200 381.703 C 21.200 381.263,19.364 379.571,17.900 378.664 C 17.295 378.288,16.800 377.738,16.800 377.441 C 16.800 376.486,14.694 373.097,13.985 372.912 C 13.099 372.680,12.592 371.569,12.017 368.600 C 11.439 365.613,10.866 364.030,9.990 363.000 C 8.371 361.095,8.400 364.068,8.400 200.677 C 8.400 34.969,8.344 39.878,10.260 37.114 C 11.250 35.685,11.678 34.302,12.274 30.606 C 12.544 28.926,12.949 28.326,14.105 27.888 C 14.493 27.741,15.420 26.284,16.164 24.650 C 17.042 22.724,17.810 21.587,18.348 21.416 C 18.805 21.272,19.995 20.198,20.992 19.030 C 22.269 17.536,23.517 16.588,25.203 15.831 C 26.521 15.239,27.600 14.592,27.600 14.393 C 27.600 13.409,29.421 12.504,32.422 11.996 C 34.194 11.696,35.735 11.305,35.846 11.126 C 35.957 10.947,36.314 10.800,36.640 10.800 C 36.967 10.800,37.609 10.450,38.068 10.022 C 38.527 9.595,39.825 9.076,40.951 8.870 C 44.016 8.309,356.213 8.274,359.429 8.834 M196.800 53.654 C 196.030 53.875,194.680 54.239,193.800 54.462 C 192.920 54.684,190.760 55.555,189.000 56.396 C 187.240 57.237,184.540 58.234,183.000 58.612 C 181.460 58.990,179.525 59.637,178.700 60.049 C 177.875 60.462,176.489 61.160,175.619 61.600 C 174.750 62.040,173.714 62.400,173.318 62.400 C 172.286 62.400,167.364 64.236,166.083 65.099 C 165.025 65.812,164.069 66.166,160.400 67.199 C 159.410 67.478,157.520 68.220,156.200 68.849 C 154.880 69.477,152.186 70.459,150.213 71.031 C 148.239 71.602,146.169 72.382,145.613 72.764 C 143.892 73.943,141.739 74.800,139.320 75.268 C 138.044 75.514,135.920 76.308,134.600 77.032 C 132.224 78.335,130.953 78.810,126.100 80.207 C 124.725 80.603,123.600 81.057,123.600 81.217 C 123.600 81.537,120.400 82.820,117.600 83.622 C 116.610 83.905,114.540 84.716,113.000 85.423 C 109.836 86.877,108.653 87.306,105.800 88.034 C 104.700 88.315,103.170 88.903,102.400 89.340 C 99.722 90.861,98.177 91.531,96.710 91.806 C 94.617 92.198,92.875 92.859,90.800 94.045 C 89.810 94.612,88.280 95.271,87.400 95.510 C 82.630 96.805,80.903 97.380,80.000 97.973 C 78.353 99.054,76.789 99.674,72.800 100.828 C 71.810 101.115,70.550 101.647,70.000 102.012 C 68.988 102.683,67.278 103.296,62.200 104.809 C 60.660 105.267,58.950 105.958,58.400 106.344 C 57.161 107.212,55.740 107.758,52.400 108.651 C 50.970 109.033,49.170 109.703,48.400 110.140 C 46.045 111.477,44.064 112.400,43.548 112.400 C 41.942 112.400,38.511 113.977,36.692 115.551 C 33.307 118.481,33.200 118.669,33.200 121.696 C 33.200 128.671,35.266 130.358,44.200 130.678 C 51.051 130.924,52.376 131.753,51.890 135.487 C 50.221 148.305,49.928 148.066,67.141 147.955 C 76.116 147.898,78.145 147.985,78.435 148.443 C 78.890 149.162,78.908 152.800,78.456 152.800 C 78.266 152.800,77.681 153.629,77.156 154.643 L 76.200 156.485 77.372 157.343 C 78.016 157.814,79.057 158.650,79.685 159.200 L 80.826 160.200 80.851 223.000 L 80.875 285.800 78.137 288.926 C 76.632 290.645,75.185 292.287,74.923 292.574 C 74.661 292.862,73.830 294.425,73.077 296.048 C 70.961 300.608,71.199 300.499,63.105 300.602 C 53.765 300.722,52.627 301.071,51.722 304.097 C 50.866 306.957,51.245 312.059,52.398 313.200 C 54.853 315.629,52.457 316.878,44.773 317.176 C 36.877 317.482,36.727 317.601,36.748 323.579 C 36.761 327.399,37.215 329.981,38.061 331.052 C 39.032 332.281,35.087 333.200,28.835 333.200 L 22.862 333.200 21.631 334.431 C 19.515 336.546,19.840 344.498,22.124 346.500 C 22.882 347.164,31.946 347.200,200.432 347.200 L 377.942 347.200 379.171 345.709 C 380.374 344.250,380.400 344.126,380.400 339.938 L 380.400 335.658 378.943 334.457 C 377.491 333.260,377.465 333.255,371.643 333.128 C 366.961 333.025,365.507 332.854,364.324 332.266 L 362.848 331.532 363.603 330.066 C 364.733 327.870,365.397 323.439,364.863 321.654 C 364.624 320.855,364.332 319.840,364.215 319.400 C 363.832 317.967,362.094 317.514,355.800 317.210 C 347.498 316.809,345.963 316.000,347.810 313.000 C 349.499 310.259,349.120 303.216,347.205 301.731 C 346.159 300.919,344.391 300.714,337.569 300.610 C 329.289 300.484,329.435 300.553,327.395 295.800 C 326.129 292.849,324.294 290.217,321.944 287.979 L 319.611 285.759 319.582 223.012 L 319.553 160.265 320.506 159.382 C 321.030 158.896,321.827 158.382,322.277 158.239 C 324.480 157.540,324.576 152.800,322.386 152.800 C 322.120 152.800,322.006 151.875,322.081 150.318 L 322.200 147.835 333.249 147.952 C 348.503 148.114,350.041 147.504,349.450 141.524 C 348.613 133.059,348.599 133.416,349.806 132.467 C 350.440 131.968,351.479 131.600,352.254 131.600 C 356.055 131.600,364.066 129.693,365.716 128.395 C 368.335 126.335,367.367 116.800,364.538 116.800 C 364.279 116.800,364.007 116.665,363.933 116.500 C 363.563 115.666,360.139 113.200,359.352 113.200 C 358.854 113.200,358.336 113.020,358.200 112.800 C 358.064 112.580,357.558 112.399,357.076 112.398 C 356.594 112.397,354.940 111.750,353.401 110.960 C 350.350 109.394,348.217 108.604,345.912 108.185 C 345.093 108.037,343.609 107.399,342.614 106.768 C 340.831 105.637,336.471 104.001,335.234 103.999 C 334.885 103.998,333.430 103.410,332.000 102.692 C 330.570 101.974,328.590 101.144,327.600 100.846 C 324.469 99.907,321.423 98.692,320.738 98.108 C 320.080 97.548,318.106 96.854,314.121 95.781 C 312.978 95.473,310.856 94.603,309.407 93.847 C 307.957 93.091,305.833 92.261,304.686 92.001 C 302.544 91.516,299.156 90.140,298.800 89.610 C 298.527 89.204,293.921 87.600,293.028 87.600 C 292.633 87.600,290.575 86.814,288.455 85.854 C 286.335 84.894,283.880 83.891,283.000 83.626 C 280.347 82.825,277.200 81.525,277.200 81.229 C 277.200 81.076,276.075 80.638,274.700 80.254 C 269.688 78.856,268.951 78.589,266.200 77.170 C 264.660 76.376,262.680 75.597,261.800 75.439 C 259.512 75.028,257.565 74.340,256.323 73.504 C 254.852 72.513,252.625 71.613,250.000 70.947 C 247.605 70.341,247.267 70.214,244.000 68.711 C 240.691 67.188,239.637 66.800,238.814 66.800 C 237.970 66.800,234.327 65.315,234.008 64.840 C 233.766 64.481,227.991 62.400,227.234 62.400 C 226.953 62.400,225.345 61.743,223.662 60.940 C 221.978 60.138,219.070 59.043,217.200 58.508 C 212.379 57.129,212.400 57.136,212.400 56.825 C 212.400 55.161,200.186 52.678,196.800 53.654 M207.288 55.563 C 208.106 55.820,209.276 56.446,209.888 56.955 C 210.499 57.463,212.080 58.186,213.400 58.561 C 214.720 58.937,216.353 59.414,217.028 59.622 C 217.704 59.830,218.524 60.000,218.850 60.000 C 219.176 60.000,220.153 60.521,221.021 61.157 C 222.576 62.296,223.074 62.475,228.556 63.855 C 230.093 64.242,231.695 64.931,232.176 65.412 C 232.993 66.229,234.858 66.908,239.400 68.041 C 240.500 68.316,241.940 68.932,242.600 69.411 C 244.089 70.491,244.506 70.646,249.154 71.838 C 251.218 72.368,253.200 73.116,253.558 73.501 C 254.511 74.525,255.702 75.111,257.451 75.414 C 260.509 75.944,263.229 76.875,264.305 77.762 C 265.809 79.001,268.509 79.910,272.717 80.596 C 273.749 80.764,274.924 81.324,275.663 81.999 C 276.340 82.617,277.727 83.331,278.746 83.587 C 282.790 84.603,284.611 85.261,286.374 86.346 C 287.386 86.969,289.201 87.704,290.407 87.979 C 294.484 88.910,296.801 89.673,297.101 90.183 C 297.507 90.874,299.776 92.000,300.761 92.000 C 301.202 92.000,301.976 92.161,302.481 92.358 C 302.987 92.555,304.210 92.953,305.200 93.242 C 306.190 93.530,307.090 93.873,307.200 94.002 C 308.320 95.324,311.279 96.460,315.034 97.009 C 315.932 97.140,317.270 97.642,318.007 98.124 C 318.745 98.606,319.810 99.302,320.374 99.671 C 320.938 100.040,321.797 100.355,322.281 100.371 C 322.766 100.387,323.576 100.567,324.081 100.770 C 324.587 100.974,325.855 101.373,326.900 101.657 C 327.945 101.942,328.800 102.286,328.800 102.422 C 328.800 102.876,333.134 104.800,334.156 104.800 C 334.709 104.800,335.576 104.968,336.081 105.172 C 336.587 105.377,337.482 105.647,338.072 105.773 C 338.662 105.898,339.382 106.226,339.674 106.501 C 341.042 107.791,341.850 108.149,345.695 109.172 C 348.490 109.915,350.169 110.595,350.912 111.283 C 351.514 111.841,352.860 112.513,353.903 112.775 C 354.946 113.038,356.676 113.511,357.746 113.826 C 358.816 114.142,359.896 114.401,360.146 114.403 C 360.396 114.404,360.887 114.910,361.238 115.528 C 361.590 116.145,362.537 116.964,363.343 117.346 C 365.736 118.482,366.278 120.007,366.068 125.025 C 365.930 128.313,363.521 129.094,350.800 129.974 C 342.595 130.542,55.324 130.558,53.000 129.990 C 52.120 129.775,48.918 129.517,45.884 129.416 C 40.442 129.235,35.991 128.409,35.282 127.449 C 34.554 126.463,33.924 122.700,34.190 120.928 C 34.592 118.244,34.719 118.055,36.820 116.990 C 37.877 116.454,38.845 115.689,38.972 115.288 C 39.139 114.762,40.065 114.356,42.302 113.830 C 46.556 112.827,48.616 112.051,49.863 110.980 C 50.445 110.479,51.749 109.861,52.761 109.606 C 57.172 108.494,59.052 107.850,59.800 107.196 C 60.240 106.811,61.320 106.257,62.200 105.966 C 63.080 105.675,63.971 105.293,64.180 105.118 C 64.389 104.943,65.149 104.800,65.869 104.800 C 67.256 104.800,71.314 103.187,71.766 102.456 C 71.913 102.217,72.791 101.834,73.717 101.605 C 78.332 100.461,80.965 99.503,81.391 98.815 C 81.791 98.167,84.111 97.191,85.777 96.969 C 88.517 96.605,91.589 95.558,92.725 94.602 C 93.711 93.772,97.409 92.474,100.710 91.800 C 101.430 91.653,102.538 91.095,103.173 90.561 C 104.424 89.509,107.185 88.400,108.556 88.400 C 109.640 88.400,113.494 87.002,114.351 86.299 C 115.516 85.342,118.922 84.000,120.186 84.000 C 121.446 84.000,124.813 82.536,125.401 81.732 C 125.658 81.380,126.933 80.855,128.234 80.565 C 133.402 79.416,134.578 78.982,136.668 77.451 C 137.365 76.941,139.075 76.301,140.468 76.029 C 143.925 75.356,146.303 74.470,146.901 73.635 C 147.425 72.901,147.690 72.800,152.200 71.619 C 155.638 70.718,156.232 70.489,158.000 69.372 C 158.770 68.886,161.020 68.082,163.000 67.587 C 166.078 66.816,168.426 65.756,169.200 64.789 C 169.504 64.409,173.439 63.200,174.371 63.200 C 175.556 63.200,178.873 61.873,179.913 60.982 C 180.706 60.303,182.758 59.656,188.300 58.339 C 189.235 58.117,190.000 57.809,190.000 57.654 C 190.000 55.465,202.264 53.981,207.288 55.563 M344.720 133.429 C 346.859 134.927,349.390 142.666,348.308 144.399 C 347.212 146.153,344.278 146.519,332.887 146.320 C 324.957 146.182,321.705 146.268,320.035 146.661 C 317.171 147.336,290.326 147.405,287.600 146.745 C 285.219 146.168,254.408 146.180,250.600 146.759 C 246.926 147.317,221.736 147.326,218.600 146.770 C 215.482 146.217,184.844 146.184,182.400 146.731 C 181.204 146.998,174.825 147.011,163.400 146.767 C 137.658 146.219,116.787 146.235,112.911 146.805 C 109.255 147.343,80.453 147.127,79.527 146.555 C 79.243 146.379,73.698 146.228,67.205 146.218 C 50.749 146.193,50.259 145.890,53.429 137.701 C 54.251 135.578,55.227 133.746,55.720 133.401 C 57.061 132.462,343.378 132.489,344.720 133.429 M145.533 147.989 L 146.866 148.000 146.652 150.700 C 146.534 152.185,146.325 154.212,146.186 155.205 C 145.934 157.013,146.958 159.200,148.058 159.200 C 149.732 159.200,149.676 157.081,149.649 220.109 C 149.635 252.939,149.781 281.060,149.974 282.600 L 150.324 285.400 148.598 287.000 C 147.649 287.880,146.589 289.171,146.242 289.868 C 145.896 290.566,145.024 291.550,144.306 292.055 C 142.182 293.549,142.000 293.851,142.000 295.882 C 142.000 299.866,140.405 300.586,131.600 300.574 C 123.134 300.563,121.485 299.823,120.984 295.810 C 120.704 293.573,120.058 292.474,118.552 291.677 C 118.086 291.430,117.402 290.591,117.033 289.813 C 116.351 288.375,114.910 286.725,113.789 286.098 C 113.078 285.700,112.840 160.475,113.549 160.026 C 116.881 157.920,117.428 156.888,116.603 154.265 C 116.243 153.121,116.005 151.288,116.074 150.192 C 116.242 147.528,113.516 147.732,145.533 147.989 M215.500 147.984 C 216.408 148.013,216.144 152.495,215.173 153.537 C 213.590 155.236,213.702 156.885,215.466 157.877 C 218.612 159.645,218.737 159.971,218.352 165.400 C 218.165 168.040,218.033 196.268,218.059 228.128 L 218.106 286.056 215.106 289.528 C 213.245 291.682,211.561 294.147,210.672 296.020 C 208.448 300.707,208.795 300.554,200.431 300.554 C 192.901 300.554,191.499 300.247,190.945 298.477 C 190.829 298.105,190.389 297.108,189.967 296.262 C 189.545 295.416,189.200 294.486,189.200 294.196 C 189.200 293.905,189.065 293.607,188.900 293.533 C 188.735 293.460,187.975 292.500,187.212 291.400 C 186.449 290.300,184.993 288.585,183.977 287.589 C 181.842 285.496,181.353 283.260,182.034 278.706 C 182.256 277.221,182.385 252.574,182.351 218.225 L 182.293 160.251 183.533 159.225 C 184.215 158.661,185.270 157.817,185.876 157.348 L 186.979 156.496 185.924 154.348 C 184.768 151.993,184.093 148.437,184.729 148.044 C 185.015 147.867,210.442 147.817,215.500 147.984 M283.241 147.997 L 284.683 148.000 284.510 150.100 C 284.414 151.255,284.071 153.160,283.747 154.334 C 283.261 156.094,283.249 156.583,283.679 157.128 C 284.400 158.043,285.736 159.171,286.117 159.187 C 287.548 159.247,287.850 160.567,287.535 165.400 C 287.364 168.040,287.242 196.191,287.265 227.958 L 287.307 285.715 285.692 287.158 C 284.804 287.951,283.803 289.140,283.469 289.800 C 283.135 290.460,282.127 291.626,281.231 292.391 C 279.712 293.687,279.600 293.924,279.600 295.855 C 279.600 299.779,277.732 300.600,268.800 300.600 C 260.015 300.600,258.400 299.878,258.400 295.952 C 258.400 293.980,258.248 293.490,257.396 292.714 C 255.154 290.674,254.557 289.998,253.620 288.434 C 253.080 287.536,252.433 286.800,252.182 286.800 C 250.328 286.800,250.411 289.769,250.395 222.794 L 250.380 160.240 251.470 159.620 C 252.541 159.011,254.800 156.830,254.800 156.405 C 254.800 156.286,254.450 155.232,254.023 154.062 C 253.464 152.534,253.310 151.387,253.476 149.989 C 253.760 147.590,252.415 147.771,269.000 147.897 C 276.040 147.950,282.449 147.995,283.241 147.997 M179.684 149.595 C 180.859 149.600,182.400 150.960,182.400 151.990 C 182.400 152.341,183.104 153.430,183.965 154.410 C 185.767 156.462,185.767 156.461,183.391 157.647 C 182.406 158.139,181.600 158.669,181.600 158.825 C 181.600 158.981,180.993 159.397,180.252 159.749 L 178.904 160.388 179.666 162.694 C 180.404 164.924,180.428 166.980,180.380 225.308 L 180.331 285.615 181.265 286.653 C 181.779 287.224,182.892 288.345,183.737 289.145 C 186.099 291.381,187.714 293.902,187.440 294.926 C 186.897 296.962,187.874 296.870,166.153 296.937 C 144.447 297.004,144.656 296.985,144.172 298.926 C 143.909 299.983,143.816 299.655,143.624 297.000 C 143.392 293.776,143.704 292.851,145.038 292.813 C 145.653 292.795,146.650 291.582,147.005 290.419 C 147.360 289.260,147.800 288.807,149.354 288.004 C 151.292 287.002,151.600 286.162,151.190 283.000 C 150.761 279.697,150.730 166.100,151.157 162.680 C 151.502 159.912,151.115 159.173,148.843 158.264 C 147.118 157.574,146.629 156.678,147.025 154.934 C 148.006 150.613,148.861 150.352,160.600 150.788 C 165.440 150.969,169.507 151.052,169.637 150.973 C 169.767 150.895,170.847 150.655,172.037 150.439 C 173.227 150.223,174.830 149.871,175.600 149.656 C 176.370 149.441,177.360 149.337,177.800 149.427 C 178.240 149.516,179.088 149.592,179.684 149.595 M112.889 150.560 C 116.282 152.463,116.969 158.400,113.797 158.400 C 112.184 158.400,111.321 160.183,111.657 162.821 C 111.837 164.240,111.973 192.639,111.958 225.931 C 111.929 291.151,111.827 287.503,113.679 287.587 C 114.242 287.613,116.000 289.509,116.000 290.091 C 116.000 290.827,117.914 292.800,118.628 292.800 C 119.388 292.800,119.716 294.233,119.415 296.240 C 119.164 297.916,119.108 297.977,118.275 297.501 C 117.608 297.119,112.501 296.990,96.800 296.957 L 76.200 296.914 75.702 295.430 C 75.144 293.770,75.634 292.733,77.603 291.402 C 78.155 291.029,79.119 290.011,79.744 289.141 C 80.370 288.271,81.572 287.123,82.416 286.590 C 83.904 285.650,83.936 285.582,83.487 284.311 C 83.147 283.348,82.991 267.849,82.897 225.987 C 82.779 173.121,82.894 164.778,83.796 161.200 C 84.012 160.347,83.854 160.116,82.724 159.628 C 81.996 159.313,80.646 158.430,79.725 157.664 L 78.050 156.272 79.195 154.607 C 79.825 153.692,80.501 152.326,80.697 151.571 L 81.054 150.200 86.305 150.189 C 89.193 150.182,91.686 150.047,91.845 149.889 C 92.729 149.004,111.165 149.593,112.889 150.560 M250.268 150.609 C 253.914 152.426,254.523 157.357,251.224 158.345 C 249.080 158.988,247.841 160.151,248.321 161.072 C 249.507 163.351,249.600 167.842,249.597 223.033 C 249.595 256.091,249.437 280.364,249.211 282.332 C 248.789 285.999,249.116 286.740,251.653 287.871 C 252.232 288.129,253.042 289.048,253.453 289.915 C 253.864 290.781,254.875 291.976,255.700 292.571 C 257.326 293.742,257.627 295.024,256.737 296.978 C 256.353 297.822,256.173 297.910,255.676 297.497 C 255.218 297.117,250.229 296.985,234.509 296.937 C 223.197 296.903,213.849 296.782,213.736 296.669 C 212.386 295.320,212.928 293.653,215.651 290.774 C 217.163 289.176,218.400 287.733,218.400 287.567 C 218.400 287.401,219.012 286.887,219.760 286.425 C 221.011 285.652,221.093 285.480,220.787 284.292 C 219.678 279.986,219.600 275.947,219.600 223.108 C 219.600 169.516,219.682 165.676,220.881 163.200 C 222.105 160.674,221.353 160.804,234.962 160.759 C 243.200 160.732,246.927 160.596,246.000 160.357 C 245.230 160.159,239.560 160.014,233.400 160.036 C 221.531 160.078,220.767 159.981,218.136 158.100 C 217.443 157.605,216.699 157.200,216.481 157.200 C 215.520 157.200,215.742 155.870,217.018 153.974 C 217.778 152.844,218.400 151.593,218.400 151.193 C 218.400 149.846,220.271 149.664,234.421 149.632 L 248.243 149.600 250.268 150.609 M317.934 149.847 C 318.876 150.035,319.271 150.403,319.599 151.396 C 319.835 152.112,320.742 153.470,321.614 154.415 C 323.592 156.558,323.604 156.474,321.200 157.523 C 320.100 158.004,319.200 158.577,319.200 158.798 C 319.200 159.019,318.696 159.200,318.080 159.200 C 317.464 159.200,316.763 159.397,316.522 159.638 C 315.735 160.425,289.760 160.269,288.880 159.473 C 288.490 159.119,287.533 158.564,286.754 158.238 C 283.424 156.847,283.915 152.895,287.698 150.628 L 289.400 149.608 303.050 149.604 C 310.558 149.602,317.256 149.711,317.934 149.847 M316.165 162.031 C 317.831 164.011,317.800 162.809,317.800 225.700 C 317.800 258.865,317.890 286.001,318.000 286.002 C 318.458 286.008,323.600 291.069,323.600 291.515 C 323.600 291.782,323.736 292.000,323.902 292.000 C 325.271 292.000,325.221 296.778,323.851 296.811 C 323.603 296.817,314.203 296.862,302.961 296.911 C 287.124 296.980,282.385 297.114,281.910 297.508 C 281.395 297.936,281.259 297.872,281.054 297.108 C 280.446 294.839,280.750 293.709,282.197 292.855 C 283.096 292.324,283.827 291.448,284.248 290.398 C 284.710 289.241,285.335 288.543,286.389 288.005 C 288.330 287.016,289.121 285.750,288.768 284.200 C 288.283 282.071,288.348 164.680,288.835 163.160 C 289.075 162.412,289.339 161.575,289.423 161.300 C 289.540 160.914,292.478 160.800,302.352 160.800 L 315.129 160.800 316.165 162.031 M74.520 301.900 C 76.368 302.910,117.752 302.979,120.000 301.975 C 121.635 301.245,140.532 301.536,145.993 302.376 C 150.409 303.054,186.659 302.794,187.921 302.075 C 189.246 301.319,210.485 301.317,212.202 302.073 C 213.850 302.798,249.915 303.039,254.600 302.356 C 259.456 301.648,279.552 301.441,280.760 302.087 C 282.285 302.902,324.401 302.829,325.389 302.009 C 326.091 301.427,342.301 301.300,344.644 301.858 C 345.436 302.046,347.033 304.619,347.215 306.000 C 347.599 308.903,347.161 310.790,345.713 312.473 L 344.225 314.200 200.099 314.104 L 55.972 314.009 55.074 313.104 C 52.050 310.059,51.952 306.624,54.769 302.400 C 55.097 301.908,56.776 301.761,64.085 301.582 C 68.988 301.462,73.054 301.327,73.120 301.282 C 73.186 301.237,73.816 301.515,74.520 301.900 M58.600 316.588 C 61.168 317.513,339.129 317.486,341.855 316.561 C 343.671 315.944,343.760 315.951,344.369 316.742 C 345.319 317.978,347.929 318.379,355.076 318.390 C 359.811 318.397,361.639 318.534,361.873 318.900 C 363.561 321.534,363.671 326.313,362.100 328.735 L 361.000 330.431 200.223 330.414 C 72.308 330.401,39.379 330.295,39.123 329.899 C 37.743 327.768,37.624 319.598,38.960 318.706 C 39.202 318.544,42.046 318.409,45.280 318.406 C 51.798 318.399,55.128 317.880,55.923 316.746 C 56.546 315.856,56.565 315.855,58.600 316.588 M361.650 333.426 C 362.560 333.896,364.670 334.109,370.131 334.280 C 374.129 334.405,377.715 334.670,378.100 334.868 C 379.093 335.379,379.136 343.515,378.154 345.014 L 377.508 346.000 200.301 346.000 L 23.094 346.000 22.347 345.139 C 21.717 344.413,21.600 343.601,21.600 339.967 C 21.600 334.238,21.404 334.406,28.129 334.379 C 31.028 334.368,34.660 334.159,36.200 333.914 C 38.201 333.597,84.823 333.403,199.600 333.234 C 287.930 333.104,360.254 332.953,360.320 332.899 C 360.386 332.845,360.985 333.082,361.650 333.426 " stroke="none" fill="#747472" fill-rule="evenodd"></path><path id="path4" d="M40.951 8.870 C 39.825 9.076,38.527 9.595,38.068 10.022 C 37.609 10.450,36.967 10.800,36.640 10.800 C 36.314 10.800,35.957 10.947,35.846 11.126 C 35.735 11.305,34.194 11.696,32.422 11.996 C 29.421 12.504,27.600 13.409,27.600 14.393 C 27.600 14.592,26.521 15.239,25.203 15.831 C 23.517 16.588,22.269 17.536,20.992 19.030 C 19.995 20.198,18.805 21.272,18.348 21.416 C 17.810 21.587,17.042 22.724,16.164 24.650 C 15.420 26.284,14.493 27.741,14.105 27.888 C 12.920 28.337,12.335 29.154,12.521 30.099 C 12.698 30.997,12.699 30.998,12.983 30.150 C 13.139 29.683,13.780 28.921,14.408 28.457 C 15.035 27.993,16.028 26.547,16.613 25.243 C 17.315 23.678,18.242 22.425,19.338 21.557 C 20.252 20.833,21.119 20.052,21.265 19.821 C 22.214 18.313,25.370 16.000,26.478 16.000 C 26.716 16.000,27.680 15.291,28.619 14.425 C 29.759 13.374,30.839 12.772,31.864 12.617 C 34.693 12.189,37.241 11.518,38.526 10.862 C 41.817 9.182,36.538 9.236,200.080 9.218 C 362.197 9.199,359.297 9.171,362.152 10.801 C 362.839 11.192,364.390 11.730,365.600 11.995 C 370.536 13.078,371.274 13.342,371.854 14.227 C 372.181 14.725,373.674 15.733,375.172 16.466 C 376.827 17.277,378.140 18.225,378.520 18.884 C 378.863 19.480,379.862 20.470,380.738 21.084 C 381.703 21.760,382.832 23.123,383.598 24.539 C 384.295 25.825,385.481 27.475,386.233 28.205 C 387.140 29.086,387.600 29.906,387.600 30.640 C 387.600 32.164,389.127 36.465,389.936 37.218 C 390.301 37.558,390.825 38.231,391.100 38.713 C 391.949 40.201,391.821 360.234,390.971 361.939 C 390.625 362.632,390.208 363.200,390.046 363.200 C 389.575 363.200,388.038 367.012,387.752 368.889 C 387.424 371.031,386.984 371.907,385.528 373.315 C 384.894 373.929,383.910 375.414,383.341 376.615 C 382.772 377.817,382.090 378.800,381.825 378.800 C 381.193 378.800,379.003 380.812,378.686 381.684 C 378.549 382.060,377.513 382.836,376.383 383.409 C 375.253 383.981,373.559 385.159,372.619 386.025 C 371.679 386.891,370.624 387.600,370.275 387.600 C 368.249 387.600,364.083 389.123,362.041 390.610 L 360.682 391.600 200.397 391.600 L 40.112 391.600 38.752 390.677 C 36.481 389.136,35.009 388.528,32.191 387.968 C 30.119 387.556,29.190 387.135,28.169 386.143 C 27.439 385.434,25.754 384.257,24.425 383.527 C 23.097 382.797,22.007 381.996,22.005 381.747 C 22.000 381.295,19.454 378.818,18.308 378.151 C 17.977 377.958,17.131 376.600,16.427 375.133 C 15.724 373.666,14.891 372.367,14.576 372.246 C 14.262 372.126,13.644 371.436,13.204 370.713 C 12.436 369.454,12.403 369.441,12.414 370.400 C 12.427 371.528,13.085 372.532,14.048 372.892 C 14.744 373.153,16.800 376.551,16.800 377.441 C 16.800 377.738,17.295 378.288,17.900 378.664 C 19.364 379.571,21.200 381.263,21.200 381.703 C 21.200 382.239,22.031 382.916,23.773 383.801 C 24.638 384.240,26.006 385.268,26.812 386.085 C 27.836 387.123,28.868 387.706,30.239 388.020 C 34.120 388.910,35.016 389.297,36.071 390.539 L 37.143 391.800 198.871 391.916 C 372.212 392.040,363.492 392.116,364.427 390.490 C 365.054 389.401,365.482 389.229,370.507 388.048 C 371.905 387.719,372.866 387.132,374.107 385.851 C 375.038 384.890,376.441 383.876,377.225 383.598 C 378.172 383.263,378.911 382.613,379.425 381.662 C 379.853 380.872,380.868 379.881,381.691 379.450 C 382.726 378.907,383.322 378.242,383.643 377.268 C 383.898 376.498,384.896 375.100,385.861 374.162 C 387.338 372.726,387.682 372.088,388.036 370.128 C 388.268 368.848,388.624 367.487,388.829 367.105 C 389.033 366.723,389.200 366.134,389.200 365.796 C 389.200 365.457,389.653 365.008,390.207 364.797 C 392.056 364.094,392.000 369.247,392.000 200.624 C 392.000 31.247,392.047 36.550,390.537 35.976 C 389.446 35.561,388.942 34.463,388.159 30.800 C 387.716 28.730,387.315 27.928,386.190 26.864 C 385.413 26.129,384.326 24.637,383.774 23.548 C 383.210 22.435,382.368 21.416,381.850 21.219 C 380.986 20.890,379.769 19.629,378.412 17.656 C 378.088 17.185,377.576 16.800,377.273 16.800 C 376.971 16.800,376.246 16.469,375.662 16.065 C 375.078 15.661,374.268 15.210,373.862 15.063 C 373.456 14.916,373.034 14.452,372.924 14.031 C 372.695 13.157,371.610 12.690,368.200 12.000 C 365.147 11.382,363.592 10.806,362.661 9.949 C 362.255 9.575,360.800 9.073,359.429 8.834 C 356.213 8.274,44.016 8.309,40.951 8.870 M11.851 33.000 C 11.561 34.570,11.212 35.391,9.469 38.600 L 8.600 40.200 8.478 199.000 C 8.352 364.399,8.321 361.118,9.994 363.000 C 10.687 363.781,11.234 365.167,11.966 368.000 L 12.328 369.400 12.364 368.027 C 12.404 366.502,10.974 362.117,10.176 361.319 C 9.193 360.336,9.163 354.740,9.281 198.200 L 9.400 40.600 10.424 38.785 C 11.671 36.576,12.528 33.655,12.309 32.359 C 12.181 31.598,12.086 31.731,11.851 33.000 M196.200 53.423 L 194.600 53.985 196.200 53.721 C 198.191 53.392,202.143 53.416,204.000 53.768 C 207.404 54.412,212.400 56.231,212.400 56.825 C 212.400 57.136,212.379 57.129,217.200 58.508 C 219.070 59.043,221.978 60.138,223.662 60.940 C 225.345 61.743,226.953 62.400,227.234 62.400 C 227.991 62.400,233.766 64.481,234.008 64.840 C 234.362 65.367,238.018 66.801,238.933 66.773 C 239.745 66.748,239.736 66.720,238.800 66.335 C 238.250 66.108,236.360 65.284,234.600 64.503 C 230.548 62.704,230.220 62.582,227.800 61.962 C 226.700 61.681,224.874 60.945,223.743 60.328 C 222.612 59.711,220.542 58.924,219.143 58.581 C 215.734 57.743,214.463 57.259,212.800 56.166 C 208.839 53.563,199.974 52.098,196.200 53.423 M190.734 54.787 C 189.707 55.178,188.331 55.879,187.675 56.346 C 187.020 56.813,185.339 57.471,183.942 57.807 C 179.868 58.788,178.267 59.306,177.200 59.989 C 175.584 61.023,174.380 61.511,171.200 62.420 C 169.550 62.892,167.120 63.856,165.800 64.562 C 164.480 65.268,162.500 66.078,161.400 66.361 C 158.047 67.225,155.260 68.275,154.800 68.847 C 154.690 68.984,152.980 69.584,151.000 70.181 C 147.694 71.178,146.008 71.877,142.634 73.648 C 141.956 74.005,140.140 74.609,138.600 74.990 C 135.983 75.638,135.115 75.989,131.653 77.801 C 130.912 78.188,129.697 78.662,128.953 78.853 C 128.209 79.044,126.982 79.358,126.228 79.552 C 125.473 79.745,123.538 80.547,121.928 81.333 C 120.317 82.120,118.460 82.876,117.800 83.014 C 116.123 83.365,114.621 83.943,111.521 85.430 C 110.047 86.137,107.887 86.937,106.721 87.207 C 103.734 87.900,102.458 88.401,100.422 89.682 C 99.444 90.297,98.329 90.800,97.945 90.800 C 97.561 90.800,97.149 90.959,97.029 91.154 C 96.908 91.348,95.953 91.636,94.905 91.792 C 93.857 91.948,91.875 92.704,90.501 93.472 C 89.127 94.240,86.697 95.193,85.101 95.590 C 81.671 96.444,80.266 96.969,78.848 97.929 C 77.925 98.552,76.554 99.055,70.815 100.874 C 70.053 101.116,69.202 101.541,68.924 101.819 C 68.423 102.320,65.258 103.411,61.400 104.411 C 60.300 104.696,58.950 105.229,58.400 105.595 C 56.803 106.657,53.865 107.914,52.288 108.210 C 50.210 108.600,48.041 109.389,47.261 110.040 C 46.278 110.859,44.964 111.410,41.600 112.414 C 39.950 112.906,38.510 113.429,38.400 113.576 C 38.290 113.722,37.480 114.371,36.600 115.017 C 34.840 116.309,33.201 118.009,33.200 118.542 C 33.200 118.731,33.713 118.371,34.340 117.742 C 37.650 114.425,41.141 112.400,43.548 112.400 C 44.064 112.400,46.045 111.477,48.400 110.140 C 49.170 109.703,50.970 109.033,52.400 108.651 C 55.740 107.758,57.161 107.212,58.400 106.344 C 58.950 105.958,60.660 105.267,62.200 104.809 C 67.278 103.296,68.988 102.683,70.000 102.012 C 70.550 101.647,71.810 101.115,72.800 100.828 C 76.789 99.674,78.353 99.054,80.000 97.973 C 80.903 97.380,82.630 96.805,87.400 95.510 C 88.280 95.271,89.810 94.612,90.800 94.045 C 92.875 92.859,94.617 92.198,96.710 91.806 C 98.177 91.531,99.722 90.861,102.400 89.340 C 103.170 88.903,104.700 88.315,105.800 88.034 C 108.653 87.306,109.836 86.877,113.000 85.423 C 114.540 84.716,116.610 83.905,117.600 83.622 C 120.400 82.820,123.600 81.537,123.600 81.217 C 123.600 81.057,124.725 80.603,126.100 80.207 C 130.953 78.810,132.224 78.335,134.600 77.032 C 135.920 76.308,138.044 75.514,139.320 75.268 C 141.739 74.800,143.892 73.943,145.613 72.764 C 146.169 72.382,148.239 71.602,150.213 71.031 C 152.186 70.459,154.880 69.477,156.200 68.849 C 157.520 68.220,159.410 67.478,160.400 67.199 C 164.069 66.166,165.025 65.812,166.083 65.099 C 167.364 64.236,172.286 62.400,173.318 62.400 C 173.714 62.400,174.750 62.040,175.619 61.600 C 176.489 61.160,177.875 60.462,178.700 60.049 C 179.525 59.637,181.460 58.991,183.000 58.615 C 184.540 58.239,187.192 57.226,188.894 56.365 C 190.595 55.504,192.305 54.797,192.694 54.794 C 193.082 54.791,193.670 54.613,194.000 54.400 C 195.033 53.732,192.813 53.995,190.734 54.787 M240.800 67.275 C 241.350 67.506,242.790 68.152,244.000 68.709 C 247.260 70.212,247.602 70.340,250.000 70.947 C 252.625 71.613,254.852 72.513,256.323 73.504 C 257.565 74.340,259.512 75.028,261.800 75.439 C 262.680 75.597,264.660 76.376,266.200 77.170 C 268.951 78.589,269.688 78.856,274.700 80.254 C 276.075 80.638,277.200 81.076,277.200 81.229 C 277.200 81.525,280.347 82.825,283.000 83.626 C 283.880 83.891,286.335 84.894,288.455 85.854 C 290.575 86.814,292.633 87.600,293.028 87.600 C 293.921 87.600,298.527 89.204,298.800 89.610 C 299.156 90.140,302.544 91.516,304.686 92.001 C 305.833 92.261,307.957 93.091,309.407 93.847 C 310.856 94.603,312.978 95.473,314.121 95.781 C 318.106 96.854,320.080 97.548,320.738 98.108 C 321.423 98.692,324.469 99.907,327.600 100.846 C 328.590 101.144,330.570 101.974,332.000 102.692 C 333.430 103.410,334.885 103.998,335.234 103.999 C 336.471 104.001,340.831 105.637,342.614 106.768 C 343.609 107.399,345.093 108.037,345.912 108.185 C 348.217 108.604,350.350 109.394,353.401 110.960 C 354.940 111.750,356.594 112.397,357.076 112.398 C 357.558 112.399,358.064 112.580,358.200 112.800 C 358.336 113.020,358.854 113.200,359.352 113.200 C 360.139 113.200,363.563 115.666,363.933 116.500 C 364.007 116.665,364.279 116.800,364.538 116.800 C 367.367 116.800,368.335 126.335,365.716 128.395 C 364.066 129.693,356.055 131.600,352.254 131.600 C 351.479 131.600,350.440 131.968,349.806 132.467 C 348.599 133.416,348.613 133.059,349.450 141.524 C 350.041 147.504,348.503 148.114,333.249 147.952 L 322.200 147.835 322.081 150.318 C 322.006 151.875,322.120 152.800,322.386 152.800 C 324.576 152.800,324.480 157.540,322.277 158.239 C 321.827 158.382,321.030 158.896,320.506 159.382 L 319.553 160.265 319.582 223.012 L 319.611 285.759 321.944 287.979 C 324.673 290.578,328.000 295.770,328.000 297.431 C 328.000 298.913,330.416 300.401,332.731 300.344 L 335.000 300.287 332.923 300.035 C 330.694 299.764,328.800 298.440,328.800 297.154 C 328.800 296.765,328.643 296.350,328.452 296.232 C 328.260 296.114,327.996 295.518,327.864 294.908 C 327.732 294.299,327.079 293.191,326.412 292.446 C 325.746 291.701,325.200 290.910,325.200 290.688 C 325.200 290.465,324.119 289.255,322.797 287.997 L 320.394 285.711 320.372 222.994 C 320.354 171.743,320.446 160.186,320.875 159.774 C 321.164 159.496,322.015 158.931,322.766 158.519 C 324.880 157.359,325.117 156.713,324.244 154.501 C 322.171 149.253,322.551 149.053,335.113 148.762 C 347.905 148.465,348.079 148.425,349.560 145.379 C 350.106 144.258,350.181 143.452,349.940 141.291 C 349.152 134.202,349.820 132.414,353.262 132.391 C 357.097 132.367,365.655 129.699,366.619 128.228 C 367.567 126.781,368.434 122.934,368.045 121.905 C 367.856 121.407,367.474 120.287,367.194 119.415 C 366.667 117.768,366.260 117.207,365.135 116.574 C 364.769 116.368,363.760 115.541,362.891 114.735 C 361.853 113.773,360.367 112.967,358.556 112.385 C 357.040 111.898,355.170 111.166,354.400 110.759 C 351.374 109.158,349.688 108.485,347.986 108.198 C 347.009 108.033,344.948 107.235,343.405 106.426 C 341.862 105.616,339.790 104.713,338.800 104.419 C 334.521 103.148,333.266 102.697,331.000 101.617 C 329.680 100.988,327.880 100.264,327.000 100.008 C 324.481 99.275,321.200 97.934,321.200 97.636 C 321.200 97.373,319.993 96.950,314.200 95.182 C 312.660 94.712,311.220 94.183,311.000 94.006 C 309.895 93.119,307.627 92.095,306.200 91.839 C 303.875 91.421,302.044 90.751,299.968 89.555 C 298.105 88.483,297.547 88.273,292.600 86.778 C 291.060 86.313,289.260 85.601,288.600 85.197 C 287.293 84.396,284.124 83.215,283.259 83.206 C 282.961 83.203,281.161 82.462,279.259 81.559 C 277.357 80.656,274.540 79.596,273.000 79.202 C 269.530 78.314,269.020 78.111,266.888 76.765 C 265.947 76.171,264.507 75.565,263.688 75.419 C 261.577 75.041,257.580 73.614,256.400 72.816 C 255.188 71.996,253.888 71.498,250.136 70.414 C 248.560 69.960,246.040 68.964,244.536 68.201 C 243.031 67.439,241.350 66.824,240.800 66.835 L 239.800 66.854 240.800 67.275 M32.659 120.968 C 31.518 127.801,35.938 131.586,45.086 131.609 C 50.279 131.622,51.716 133.148,50.869 137.748 C 49.065 147.536,50.696 148.800,65.136 148.800 C 75.934 148.800,76.872 148.968,77.501 151.017 C 77.755 151.846,77.777 152.490,77.557 152.627 C 76.913 153.024,75.536 156.056,75.748 156.608 C 75.860 156.900,76.952 157.878,78.176 158.782 L 80.400 160.425 80.400 223.054 L 80.400 285.683 77.959 288.211 C 76.616 289.602,75.232 291.158,74.882 291.670 C 74.532 292.181,74.108 292.696,73.940 292.813 C 73.771 292.931,73.009 294.397,72.246 296.072 C 70.679 299.509,70.496 299.680,68.000 300.036 L 66.200 300.293 68.230 300.347 C 70.711 300.412,71.383 299.802,73.181 295.856 C 73.869 294.346,74.649 292.873,74.916 292.582 C 75.182 292.290,76.632 290.645,78.137 288.926 L 80.875 285.800 80.851 223.000 L 80.826 160.200 79.685 159.200 C 79.057 158.650,78.016 157.814,77.372 157.343 L 76.200 156.485 77.156 154.643 C 77.681 153.629,78.266 152.800,78.456 152.800 C 78.908 152.800,78.890 149.162,78.435 148.443 C 78.145 147.985,76.116 147.898,67.141 147.955 C 54.777 148.035,52.928 147.720,51.490 145.292 C 50.745 144.032,50.730 144.394,51.890 135.487 C 52.376 131.753,51.051 130.924,44.200 130.678 C 40.314 130.539,38.981 130.327,37.200 129.567 C 33.825 128.126,33.670 127.845,33.250 122.400 L 32.988 119.000 32.659 120.968 M117.600 148.000 C 115.883 148.245,115.489 150.723,116.603 154.265 C 117.428 156.888,116.881 157.920,113.549 160.026 C 112.840 160.475,113.078 285.700,113.789 286.098 C 114.910 286.725,116.351 288.375,117.033 289.813 C 117.402 290.591,118.086 291.430,118.552 291.677 C 120.058 292.474,120.704 293.573,120.984 295.810 C 121.485 299.823,123.134 300.563,131.600 300.574 C 140.405 300.586,142.000 299.866,142.000 295.882 C 142.000 293.851,142.182 293.549,144.306 292.055 C 145.024 291.550,145.896 290.566,146.242 289.868 C 146.589 289.171,147.649 287.880,148.598 287.000 L 150.324 285.400 149.974 282.600 C 149.781 281.060,149.635 252.939,149.649 220.109 C 149.676 157.081,149.732 159.200,148.058 159.200 C 146.958 159.200,145.934 157.013,146.186 155.205 C 146.325 154.212,146.534 152.185,146.652 150.700 L 146.866 148.000 145.533 147.989 C 126.161 147.834,118.743 147.837,117.600 148.000 M184.729 148.044 C 184.093 148.437,184.768 151.993,185.924 154.348 L 186.979 156.496 185.876 157.348 C 185.270 157.817,184.215 158.661,183.533 159.225 L 182.293 160.251 182.351 218.225 C 182.385 252.574,182.256 277.221,182.034 278.706 C 181.353 283.260,181.842 285.496,183.977 287.589 C 184.993 288.585,186.449 290.300,187.212 291.400 C 187.975 292.500,188.735 293.460,188.900 293.533 C 189.065 293.607,189.200 293.916,189.200 294.221 C 189.200 294.526,189.560 295.417,190.000 296.200 C 190.440 296.983,190.800 297.876,190.800 298.183 C 190.800 299.405,192.807 300.402,195.154 300.348 L 197.400 300.295 195.105 300.001 C 192.391 299.653,191.946 299.343,191.263 297.325 C 190.674 295.584,189.908 293.894,189.574 293.600 C 189.449 293.490,188.736 292.500,187.989 291.400 C 187.241 290.300,185.768 288.572,184.715 287.560 C 183.302 286.202,182.798 285.416,182.791 284.560 C 182.786 283.922,182.782 255.770,182.781 222.000 L 182.781 160.600 184.290 159.321 C 187.327 156.748,187.269 156.831,186.987 155.474 C 186.841 154.773,186.457 153.783,186.135 153.274 C 185.281 151.928,185.794 150.127,187.245 149.377 C 189.278 148.325,213.449 148.704,214.250 149.800 C 215.060 150.908,215.392 152.434,214.890 152.744 C 214.661 152.886,214.156 153.794,213.768 154.763 L 213.064 156.523 214.251 157.561 C 214.903 158.133,215.969 158.997,216.619 159.483 L 217.800 160.366 217.698 223.093 L 217.595 285.819 214.595 289.210 C 212.791 291.248,210.946 293.876,209.967 295.800 C 207.955 299.758,208.008 299.706,205.698 300.028 L 203.800 300.293 205.830 300.347 C 208.288 300.411,208.868 299.879,210.793 295.800 C 211.574 294.146,213.341 291.579,215.110 289.528 L 218.106 286.056 218.059 228.128 C 218.033 196.268,218.165 168.040,218.352 165.400 C 218.737 159.971,218.612 159.645,215.466 157.877 C 213.702 156.885,213.590 155.236,215.173 153.537 C 216.144 152.495,216.408 148.013,215.500 147.984 C 210.442 147.817,185.015 147.867,184.729 148.044 M254.953 147.921 C 253.253 148.087,252.838 150.822,254.023 154.062 C 254.450 155.232,254.800 156.286,254.800 156.405 C 254.800 156.830,252.541 159.011,251.470 159.620 L 250.380 160.240 250.395 222.794 C 250.411 289.769,250.328 286.800,252.182 286.800 C 252.433 286.800,253.080 287.536,253.620 288.434 C 254.557 289.998,255.154 290.674,257.396 292.714 C 258.248 293.490,258.400 293.980,258.400 295.952 C 258.400 299.878,260.015 300.600,268.800 300.600 C 277.732 300.600,279.600 299.779,279.600 295.855 C 279.600 293.924,279.712 293.687,281.231 292.391 C 282.127 291.626,283.135 290.460,283.469 289.800 C 283.803 289.140,284.804 287.951,285.692 287.158 L 287.307 285.715 287.265 227.958 C 287.242 196.191,287.364 168.040,287.535 165.400 C 287.850 160.567,287.548 159.247,286.117 159.187 C 285.736 159.171,284.400 158.043,283.679 157.128 C 283.249 156.583,283.261 156.094,283.747 154.334 C 284.071 153.160,284.414 151.255,284.510 150.100 L 284.683 148.000 283.241 147.997 C 282.449 147.995,276.040 147.950,269.000 147.897 C 261.960 147.844,255.639 147.855,254.953 147.921 M145.529 149.636 C 146.171 150.664,146.223 153.018,145.638 154.526 C 144.817 156.637,145.558 158.149,148.323 160.000 L 149.219 160.600 149.232 223.125 L 149.245 285.650 147.622 287.225 C 146.730 288.091,146.000 289.014,146.000 289.278 C 146.000 289.853,144.007 292.000,143.472 292.000 C 142.654 292.000,141.600 293.779,141.599 295.161 C 141.597 297.077,140.315 299.113,138.912 299.428 C 138.301 299.565,137.170 299.839,136.400 300.037 C 129.622 301.774,122.615 299.632,121.629 295.519 C 121.048 293.099,120.666 292.487,119.121 291.499 C 118.527 291.119,117.746 290.185,117.383 289.422 C 116.720 288.024,114.949 286.000,114.389 286.000 C 113.649 286.000,113.580 280.647,113.587 223.255 C 113.594 165.958,113.670 160.000,114.394 160.000 C 115.630 160.000,117.671 157.095,117.424 155.687 C 116.731 151.739,116.722 150.778,117.368 149.792 L 118.018 148.800 131.513 148.800 C 144.766 148.800,145.017 148.815,145.529 149.636 M282.989 149.727 C 283.716 150.836,283.780 151.987,283.249 154.400 C 282.698 156.907,282.981 157.649,285.012 159.012 C 286.435 159.967,286.786 160.435,286.800 161.400 C 286.810 162.060,286.811 190.228,286.804 223.996 L 286.791 285.391 285.259 286.796 C 284.416 287.568,283.405 288.881,283.011 289.714 C 282.618 290.546,281.914 291.430,281.448 291.677 C 280.087 292.397,279.234 293.597,278.978 295.151 C 278.409 298.604,278.164 298.859,274.480 299.837 C 267.272 301.751,259.599 299.815,259.078 295.951 C 258.741 293.446,258.166 292.348,256.697 291.400 C 256.015 290.960,255.121 289.970,254.711 289.200 C 254.301 288.430,253.340 287.238,252.575 286.551 L 251.184 285.302 251.181 223.551 C 251.179 189.588,251.182 161.395,251.189 160.900 C 251.195 160.405,251.425 159.995,251.700 159.988 C 253.813 159.939,255.396 156.773,254.608 154.175 C 253.848 151.670,253.849 151.653,254.796 150.100 L 255.588 148.800 268.985 148.800 L 282.382 148.800 282.989 149.727 M55.600 300.273 C 54.259 300.493,52.297 301.269,51.783 301.783 C 50.389 303.178,50.387 311.587,51.781 313.715 C 53.048 315.649,49.960 316.800,43.500 316.800 L 38.857 316.800 37.380 318.193 L 35.903 319.586 36.126 324.493 C 36.249 327.192,36.461 329.850,36.597 330.400 C 37.024 332.119,35.752 332.507,29.001 332.715 C 20.188 332.988,19.814 333.329,20.059 340.888 C 20.199 345.211,20.254 345.455,21.369 346.700 L 22.532 348.000 200.166 347.994 L 377.800 347.987 379.200 346.755 L 380.600 345.522 380.729 340.461 L 380.857 335.400 379.605 334.203 C 378.361 333.013,378.316 333.004,372.477 332.761 C 365.559 332.472,363.340 331.732,364.744 330.180 C 365.509 329.334,365.986 323.082,365.457 320.819 C 364.693 317.547,363.082 316.826,356.496 316.811 C 352.049 316.801,348.000 315.933,348.000 314.989 C 348.000 314.922,348.360 314.026,348.800 313.000 C 349.733 310.824,349.862 305.504,349.039 303.200 C 348.450 301.551,346.755 300.594,343.786 300.233 L 341.800 299.992 344.000 300.599 C 348.304 301.787,348.801 302.557,348.798 308.028 C 348.796 310.910,348.653 311.633,347.810 313.000 C 345.963 316.000,347.498 316.809,355.800 317.210 C 362.094 317.514,363.832 317.967,364.215 319.400 C 364.332 319.840,364.624 320.855,364.863 321.654 C 365.397 323.439,364.733 327.870,363.603 330.066 L 362.848 331.532 364.324 332.266 C 365.507 332.854,366.961 333.025,371.643 333.128 C 377.465 333.255,377.491 333.260,378.943 334.457 L 380.400 335.658 380.400 339.938 C 380.400 344.126,380.374 344.250,379.171 345.709 L 377.942 347.200 200.432 347.200 C 31.946 347.200,22.882 347.164,22.124 346.500 C 19.840 344.498,19.515 336.546,21.631 334.431 L 22.862 333.200 28.835 333.200 C 35.087 333.200,39.032 332.281,38.061 331.052 C 37.215 329.981,36.761 327.399,36.748 323.579 C 36.727 317.601,36.877 317.482,44.773 317.176 C 52.457 316.878,54.853 315.629,52.398 313.200 C 51.237 312.052,50.867 306.954,51.734 304.056 C 52.318 302.102,52.849 301.689,56.000 300.733 C 58.061 300.107,57.880 299.899,55.600 300.273 M61.111 300.693 C 62.051 300.778,63.491 300.777,64.311 300.691 C 65.130 300.605,64.360 300.536,62.600 300.537 C 60.840 300.539,60.170 300.609,61.111 300.693 M198.900 300.691 C 199.725 300.778,201.075 300.778,201.900 300.691 C 202.725 300.605,202.050 300.534,200.400 300.534 C 198.750 300.534,198.075 300.605,198.900 300.691 M336.500 300.691 C 337.325 300.778,338.675 300.778,339.500 300.691 C 340.325 300.605,339.650 300.534,338.000 300.534 C 336.350 300.534,335.675 300.605,336.500 300.691 " stroke="none" fill="#7c7c7c" fill-rule="evenodd"></path></g></svg>